<?xml version="1.0" encoding="UTF-8" standalone="no"?>
<!-- Created with Inkscape (http://www.inkscape.org/) -->

<svg
   width="150mm"
   height="260mm"
   viewBox="0 0 75 130"
   version="1.1"
   id="svg5"
   xmlns="http://www.w3.org/2000/svg"
   xmlns:svg="http://www.w3.org/2000/svg"
   xmlns:rdf="http://www.w3.org/1999/02/22-rdf-syntax-ns#"
   xmlns:cc="http://creativecommons.org/ns#">
  <defs
     id="defs2" />
  <g
     id="layer1">
    <g
       aria-label="Contact"
       transform="scale(0.99517381,1.0048496)"
       id="text234"
       style="font-size:20.4633px;font-family:FreeSerif;-inkscape-font-specification:FreeSerif;fill:#ffff00;stroke-width:0.4035">
      <path
         d="m 6.9854631,13.947234 q 0,-3.192275 1.9644768,-5.1772149 1.9644771,-2.0054034 4.8907291,-2.0054034 1.309651,0 2.455596,0.3478761 1.145945,0.3274128 1.330114,0.3274128 0.675289,0 0.859459,-0.6752889 h 0.429729 l 0.18417,4.6247063 H 18.629081 Q 17.5036,7.5831477 14.229472,7.5831477 q -2.2305,0 -3.560615,1.6575273 -1.3096511,1.657527 -1.3096511,4.440536 0,1.780307 0.4501927,3.089959 0.4706554,1.289188 1.2482614,1.964477 0.777605,0.654825 1.596137,0.961775 0.838996,0.286486 1.780308,0.286486 2.414669,0 4.563316,-2.066793 l 0.368339,0.368339 q -0.941312,1.248261 -2.394206,1.92355 -1.452895,0.675289 -3.192275,0.675289 -3.028569,0 -4.9111923,-1.903087 -1.8826236,-1.903087 -1.8826236,-5.033972 z"
         style="fill:none;stroke:#ffea00"
         id="path3970" />
      <path
         d="m 25.013632,11.184689 q 1.964477,0 3.233202,1.309651 1.268725,1.309651 1.268725,3.315055 0,2.128183 -1.309652,3.560614 -1.309651,1.432431 -3.233201,1.432431 -1.92355,0 -3.212738,-1.371041 -1.268725,-1.391505 -1.268725,-3.458298 0,-2.10772 1.248261,-3.437835 1.268725,-1.350577 3.274128,-1.350577 z m -2.680692,3.78571 q 0,2.189573 0.798069,3.724321 0.798069,1.534748 2.087256,1.534748 1.145945,0 1.800771,-0.982239 0.654826,-0.982238 0.654826,-2.721619 0,-2.10772 -0.818532,-3.437834 -0.818532,-1.330115 -2.10772,-1.330115 -1.084555,0 -1.759844,0.879922 -0.654826,0.879922 -0.654826,2.332816 z"
         style="fill:none;stroke:#ffea00"
         id="path3972" />
      <path
         d="m 30.02712,12.453413 v -0.347876 q 1.514285,-0.450192 2.823936,-0.920848 l 0.143243,0.04093 v 1.616601 q 1.043628,-0.982238 1.637064,-1.309651 0.613899,-0.347876 1.330115,-0.347876 1.125481,0 1.759843,0.818532 0.654826,0.798068 0.654826,2.250963 v 4.686096 q 0,0.757142 0.24556,1.023165 0.245559,0.245559 1.002701,0.327412 v 0.30695 h -4.256366 v -0.30695 q 0.777605,-0.06139 1.023165,-0.409266 0.266023,-0.347876 0.266023,-1.309651 v -4.27683 q 0,-1.98494 -1.493821,-1.98494 -0.511583,0 -0.941312,0.24556 -0.429729,0.225096 -1.166408,0.920848 v 5.750188 q 0,0.552509 0.286486,0.777605 0.286486,0.225097 1.064092,0.286486 v 0.30695 h -4.33822 v -0.30695 q 0.777605,-0.06139 1.023165,-0.347876 0.24556,-0.306949 0.24556,-1.186871 v -5.074899 q 0,-0.757142 -0.163707,-1.023165 -0.163706,-0.286486 -0.593436,-0.286486 -0.388802,0 -0.552509,0.08185 z"
         style="fill:none;stroke:#ffea00"
         id="path3974" />
      <path
         d="m 45.026743,11.389322 v 0.654825 H 42.95995 v 5.852504 q 0,0.961775 0.245559,1.411968 0.24556,0.429729 0.818532,0.429729 0.634362,0 1.227798,-0.716215 l 0.266023,0.225096 q -0.982238,1.555211 -2.455596,1.555211 -1.821234,0 -1.821234,-2.598839 v -6.159454 h -1.084555 q -0.08185,-0.06139 -0.08185,-0.143243 0,-0.102316 0.06139,-0.163706 0.06139,-0.06139 0.225096,-0.163707 0.18417,-0.122779 0.42973,-0.306949 0.245559,-0.204633 0.675289,-0.716216 0.429729,-0.511582 0.941311,-1.2277978 0.327413,-0.4706559 0.409266,-0.5729724 0.143244,0 0.143244,0.2660229 v 2.3737433 z"
         style="fill:none;stroke:#ffea00"
         id="path3976" />
      <path
         d="m 46.029464,18.612867 q 0,-0.36834 0.08185,-0.675289 0.08185,-0.327413 0.286486,-0.593436 0.204633,-0.286486 0.388803,-0.511582 0.184169,-0.225097 0.552509,-0.450193 0.368339,-0.24556 0.613899,-0.388803 0.245559,-0.163706 0.736678,-0.368339 0.511583,-0.225096 0.777606,-0.327413 0.266023,-0.12278 0.838995,-0.347876 0.572973,-0.225096 0.838996,-0.327413 v -1.248261 q 0,-1.698454 -1.555211,-1.698454 -0.613899,0 -1.043629,0.306949 -0.429729,0.286487 -0.429729,0.695753 0,0.163706 0.04093,0.450192 0.06139,0.286486 0.06139,0.36834 0,0.347876 -0.286487,0.613899 -0.266023,0.245559 -0.634362,0.245559 -0.347876,0 -0.613899,-0.266023 -0.266023,-0.266023 -0.266023,-0.613899 0,-0.961775 0.982239,-1.6166 1.002701,-0.675289 2.455596,-0.675289 1.67799,0 2.312353,0.818532 0.634362,0.798068 0.634362,2.455596 v 3.990343 q 0,0.675289 0.12278,0.941312 0.143243,0.24556 0.491119,0.24556 0.429729,0 0.900385,-0.388803 v 0.532046 q -0.532046,0.593436 -0.941312,0.818532 -0.388802,0.204633 -0.900385,0.204633 -0.634362,0 -0.941312,-0.347876 -0.286486,-0.347876 -0.368339,-1.145945 -1.759844,1.493821 -2.987642,1.493821 -0.941312,0 -1.555211,-0.613899 -0.593436,-0.613899 -0.593436,-1.575674 z m 5.115826,-0.532046 v -2.967179 q -1.841697,0.675289 -2.578376,1.309652 -0.736679,0.634362 -0.736679,1.534747 0,0.838995 0.409266,1.248261 0.409266,0.409266 0.879922,0.409266 0.695752,0 1.493821,-0.470655 0.327413,-0.18417 0.429729,-0.388803 0.102317,-0.204633 0.102317,-0.675289 z"
         style="fill:none;stroke:#ffea00"
         id="path3978" />
      <path
         d="m 54.828689,16.239124 q 0,-2.271426 1.330115,-3.662931 1.350578,-1.391504 3.151348,-1.391504 1.289188,0 2.210037,0.634362 0.941311,0.613899 0.941311,1.473358 0,0.347876 -0.286486,0.613899 -0.286486,0.245559 -0.695752,0.245559 -0.695752,0 -0.961775,-0.941312 l -0.12278,-0.450192 q -0.163706,-0.572973 -0.409266,-0.777606 -0.24556,-0.204633 -0.798069,-0.204633 -1.248261,0 -2.025866,1.002702 -0.757143,0.982238 -0.757143,2.557913 0,1.759844 0.879922,2.885325 0.900386,1.105018 2.29189,1.105018 0.879922,0 1.514284,-0.409266 0.634363,-0.429729 1.371041,-1.514284 l 0.286487,0.18417 q -0.204633,0.409266 -0.36834,0.675289 -0.143243,0.266023 -0.552509,0.798068 -0.388803,0.532046 -0.777605,0.859459 -0.388803,0.327413 -1.023165,0.613899 -0.634363,0.266023 -1.309652,0.266023 -1.698454,0 -2.803472,-1.268725 -1.084555,-1.289188 -1.084555,-3.294591 z"
         style="fill:none;stroke:#ffea00"
         id="path3980" />
      <path
         d="m 68.293539,11.389322 v 0.654825 h -2.066793 v 5.852504 q 0,0.961775 0.245559,1.411968 0.24556,0.429729 0.818532,0.429729 0.634363,0 1.227798,-0.716215 l 0.266023,0.225096 q -0.982238,1.555211 -2.455596,1.555211 -1.821234,0 -1.821234,-2.598839 v -6.159454 h -1.084555 q -0.08185,-0.06139 -0.08185,-0.143243 0,-0.102316 0.06139,-0.163706 0.06139,-0.06139 0.225096,-0.163707 0.18417,-0.122779 0.42973,-0.306949 0.245559,-0.204633 0.675289,-0.716216 0.429729,-0.511582 0.941311,-1.2277978 0.327413,-0.4706559 0.409267,-0.5729724 0.143243,0 0.143243,0.2660229 v 2.3737433 z"
         style="fill:none;stroke:#ffea00"
         id="path3982" />
    </g>
    <g
       aria-label="My signal is
 Tre.99
"
       id="text1673"
       style="font-size:8.46667px;font-family:FreeSerif;-inkscape-font-specification:FreeSerif;fill:none;stroke:#ffea00;stroke-width:0.4035">
      <path
         d="m 22.954496,44.832989 -2.167468,4.851402 h -0.118533 l -2.125134,-4.656668 v 3.412068 q 0,0.643466 0.1524,0.855133 0.1524,0.2032 0.643466,0.2286 v 0.160867 H 17.34956 v -0.160867 q 0.524934,-0.03387 0.668867,-0.2286 0.1524,-0.2032 0.1524,-0.855133 v -3.437469 q 0,-0.465666 -0.143933,-0.592666 -0.135467,-0.135467 -0.660401,-0.169334 v -0.160867 h 1.676401 l 1.955801,4.275669 1.871134,-4.275669 h 1.684867 v 0.160867 q -0.474133,0.04233 -0.6096,0.1778 -0.127,0.135467 -0.127,0.5842 v 3.759202 q 0,0.448733 0.135467,0.592667 0.135466,0.135467 0.601133,0.169333 v 0.160867 h -2.370667 v -0.160867 q 0.499533,-0.03387 0.635,-0.1778 0.135467,-0.1524 0.135467,-0.677333 z"
         style="text-align:center;text-anchor:middle;opacity:1;fill:#000000;stroke:none"
         id="path4102" />
      <path
         d="m 25.883968,50.818925 q 0.237067,0 0.499533,-0.524934 0.262467,-0.524933 0.262467,-0.770467 0,-0.110066 -0.372533,-0.855133 l -1.117601,-2.404535 q -0.1016,-0.220133 -0.4318,-0.270933 V 45.87439 h 1.744134 v 0.127 q -0.270933,0.0085 -0.381,0.05927 -0.110067,0.0508 -0.110067,0.169334 0,0.127 0.08467,0.321733 l 0.973667,2.142068 0.821267,-2.336801 q 0.03387,-0.0762 0.03387,-0.143934 0,-0.211666 -0.4064,-0.211666 v -0.127 h 1.143 v 0.127 q -0.1524,0.01693 -0.245533,0.1016 -0.08467,0.0762 -0.160867,0.2794 l -1.303867,3.454401 q -0.338667,0.9144 -0.677334,1.303867 -0.3302,0.389467 -0.753534,0.389467 -0.270933,0 -0.448733,-0.143933 -0.1778,-0.135467 -0.1778,-0.347134 0,-0.1524 0.110067,-0.262467 0.110066,-0.110066 0.254,-0.110066 0.186266,0 0.397933,0.0762 0.211667,0.0762 0.262467,0.0762 z"
         style="text-align:center;text-anchor:middle;opacity:1;fill:#000000;stroke:none"
         id="path4104" />
      <path
         d="m 33.055243,45.959056 q 0.0085,0 0.135467,-0.08467 h 0.09313 l 0.03387,1.151467 h -0.127 q -0.143933,-0.567267 -0.3556,-0.804334 -0.211667,-0.237067 -0.575734,-0.237067 -0.287866,0 -0.474133,0.160867 -0.1778,0.160867 -0.1778,0.414867 0,0.364067 0.364067,0.575733 l 0.9144,0.541867 q 0.381,0.2286 0.541867,0.465667 0.169333,0.2286 0.169333,0.541867 0,0.440267 -0.3556,0.762 -0.347133,0.321734 -0.8382,0.321734 -0.211667,0 -0.567267,-0.0762 -0.3556,-0.0762 -0.440267,-0.0762 -0.127,0 -0.194733,0.1016 h -0.110067 v -1.320801 h 0.135467 q 0.135466,0.592667 0.321733,0.838201 0.270934,0.347133 0.753534,0.347133 0.321733,0 0.508,-0.160867 0.194733,-0.169333 0.194733,-0.448733 0,-0.381 -0.440267,-0.635001 l -0.491066,-0.2794 q -0.541867,-0.3048 -0.770467,-0.5842 -0.220134,-0.2794 -0.220134,-0.635 0,-0.4572 0.321734,-0.745067 0.3302,-0.296334 0.829733,-0.296334 0.2794,0 0.524934,0.08467 0.245533,0.0762 0.296333,0.0762 z"
         style="text-align:center;text-anchor:middle;opacity:1;fill:#000000;stroke:none"
         id="path4106" />
      <path
         d="m 34.291387,46.35699 q -0.186266,0 -0.3556,0.0254 v -0.127 q 0.592667,-0.169334 1.312334,-0.465667 l 0.03387,0.0254 v 3.005668 q 0,0.4572 0.1016,0.5842 0.110066,0.118533 0.524933,0.1524 v 0.127 h -2.0066 v -0.127 q 0.440266,-0.0254 0.550333,-0.1524 0.118533,-0.127 0.118533,-0.5842 v -1.964268 q 0,-0.2794 -0.06773,-0.389467 -0.05927,-0.110066 -0.211667,-0.110066 z m 0.558801,-2.455335 q 0.186266,0 0.313266,0.127 0.127,0.127 0.127,0.304801 0,0.186266 -0.127,0.313266 -0.127,0.118534 -0.313266,0.118534 -0.177801,0 -0.304801,-0.127 -0.118533,-0.127 -0.118533,-0.3048 0,-0.177801 0.127,-0.304801 0.127,-0.127 0.296334,-0.127 z"
         style="text-align:center;text-anchor:middle;opacity:1;fill:#000000;stroke:none"
         id="path4108" />
      <path
         d="m 36.374182,49.227191 q 0,-0.160867 0.110066,-0.296334 0.118534,-0.135466 0.643467,-0.626533 -0.423333,-0.211667 -0.6096,-0.474134 -0.1778,-0.262466 -0.1778,-0.6604 0,-0.575734 0.4064,-0.973667 0.414867,-0.4064 1.007534,-0.4064 0.3302,0 0.702733,0.143933 0.381001,0.135467 0.626534,0.135467 h 0.651934 v 0.3302 h -0.702734 q 0.160867,0.364067 0.160867,0.7112 0,0.584201 -0.397934,0.948267 -0.389467,0.364067 -0.922867,0.364067 -0.1016,0 -0.4826,-0.04233 -0.169333,0.0508 -0.338667,0.2286 -0.169333,0.1778 -0.169333,0.3048 0,0.2032 0.6604,0.2286 l 1.092201,0.0508 q 0.465666,0.01693 0.745066,0.262467 0.279401,0.245533 0.279401,0.643467 0,0.6096 -0.702734,1.016 -0.694267,0.414867 -1.498601,0.414867 -0.601133,0 -1.032933,-0.245533 -0.431801,-0.237067 -0.431801,-0.575734 0,-0.237067 0.186267,-0.474133 0.194734,-0.228601 0.643467,-0.558801 -0.262467,-0.127 -0.3556,-0.220133 -0.09313,-0.09313 -0.09313,-0.2286 z m 0.626533,0.474133 q -0.262467,0.313267 -0.338667,0.448734 -0.0762,0.135467 -0.0762,0.2794 0,0.2794 0.338667,0.448733 0.338667,0.169334 0.897467,0.169334 0.719667,0 1.159934,-0.2286 0.440267,-0.2286 0.440267,-0.592667 0,-0.2286 -0.237067,-0.321734 -0.237067,-0.09313 -0.8128,-0.09313 -0.855134,0 -1.371601,-0.110067 z m 1.540934,-2.260601 q 0,-0.143933 -0.03387,-0.347133 -0.03387,-0.2032 -0.118533,-0.4572 -0.08467,-0.262467 -0.270933,-0.4318 -0.186267,-0.1778 -0.448734,-0.1778 -0.296333,0 -0.465667,0.211666 -0.160866,0.211667 -0.160866,0.584201 0,0.728133 0.270933,1.058333 0.270933,0.3302 0.592667,0.3302 0.296333,0 0.465667,-0.2032 0.169333,-0.211666 0.169333,-0.567267 z"
         style="text-align:center;text-anchor:middle;opacity:1;fill:#000000;stroke:none"
         id="path4110" />
      <path
         d="m 39.904791,46.314656 v -0.143933 q 0.626534,-0.186267 1.168401,-0.381 l 0.05927,0.01693 v 0.668867 q 0.4318,-0.4064 0.677333,-0.541867 0.254,-0.143933 0.550334,-0.143933 0.465667,0 0.728133,0.338667 0.270934,0.3302 0.270934,0.931333 v 1.938868 q 0,0.313267 0.1016,0.423333 0.1016,0.1016 0.414867,0.135467 v 0.127 h -1.761068 v -0.127 q 0.321734,-0.0254 0.423334,-0.169333 0.110066,-0.143934 0.110066,-0.541867 v -1.769534 q 0,-0.821267 -0.618066,-0.821267 -0.211667,0 -0.389467,0.1016 -0.1778,0.09313 -0.4826,0.381 v 2.379134 q 0,0.2286 0.118533,0.321734 0.118533,0.09313 0.440267,0.118533 v 0.127 h -1.794934 v -0.127 q 0.321733,-0.0254 0.423333,-0.143933 0.1016,-0.127 0.1016,-0.491067 v -2.099734 q 0,-0.313267 -0.06773,-0.423334 -0.06773,-0.118533 -0.245534,-0.118533 -0.160866,0 -0.2286,0.03387 z"
         style="text-align:center;text-anchor:middle;opacity:1;fill:#000000;stroke:none"
         id="path4112" />
      <path
         d="m 44.129669,48.863124 q 0,-0.1524 0.03387,-0.2794 0.03387,-0.135467 0.118533,-0.245534 0.08467,-0.118533 0.160867,-0.211666 0.0762,-0.09313 0.2286,-0.186267 0.1524,-0.1016 0.254,-0.160867 0.1016,-0.06773 0.3048,-0.1524 0.211667,-0.09313 0.321733,-0.135467 0.110067,-0.0508 0.347134,-0.143933 0.237067,-0.09313 0.347133,-0.135467 v -0.516467 q 0,-0.702733 -0.643466,-0.702733 -0.254001,0 -0.431801,0.127 -0.1778,0.118533 -0.1778,0.287867 0,0.06773 0.01693,0.186266 0.0254,0.118534 0.0254,0.152401 0,0.143933 -0.118534,0.254 -0.110066,0.1016 -0.262467,0.1016 -0.143933,0 -0.254,-0.110067 -0.110066,-0.110067 -0.110066,-0.254 0,-0.397934 0.4064,-0.668867 0.414867,-0.2794 1.016,-0.2794 0.694267,0 0.956734,0.338667 0.262467,0.3302 0.262467,1.016 v 1.651001 q 0,0.2794 0.0508,0.389466 0.05927,0.101601 0.2032,0.101601 0.1778,0 0.372533,-0.160867 v 0.220133 q -0.220133,0.245534 -0.389467,0.338667 -0.160866,0.08467 -0.372533,0.08467 -0.262467,0 -0.389467,-0.143934 -0.118533,-0.143933 -0.1524,-0.474133 -0.728134,0.618067 -1.236134,0.618067 -0.389467,0 -0.643467,-0.254 -0.245533,-0.254 -0.245533,-0.651934 z m 2.116667,-0.220133 v -1.227668 q -0.762,0.279401 -1.0668,0.541867 -0.3048,0.262467 -0.3048,0.635001 0,0.347133 0.169333,0.516466 0.169334,0.169334 0.364067,0.169334 0.287867,0 0.618067,-0.194734 0.135467,-0.0762 0.1778,-0.160866 0.04233,-0.08467 0.04233,-0.2794 z"
         style="text-align:center;text-anchor:middle;opacity:1;fill:#000000;stroke:none"
         id="path4114" />
      <path
         d="m 47.64334,44.409656 v -0.135467 q 0.8382,-0.2032 1.3462,-0.372534 l 0.03387,0.01693 v 5.054602 q 0,0.347133 0.110067,0.4572 0.118533,0.1016 0.524933,0.127 v 0.127 h -1.998134 v -0.127 q 0.397933,-0.03387 0.524934,-0.1524 0.127,-0.118533 0.127,-0.4572 v -4.038602 q 0,-0.296333 -0.0762,-0.4064 -0.0762,-0.110067 -0.279401,-0.110067 -0.169333,0 -0.313266,0.01693 z"
         style="text-align:center;text-anchor:middle;opacity:1;fill:#000000;stroke:none"
         id="path4116" />
      <path
         d="m 52.38467,46.35699 q -0.186267,0 -0.3556,0.0254 v -0.127 q 0.592667,-0.169334 1.312334,-0.465667 l 0.03387,0.0254 v 3.005668 q 0,0.4572 0.1016,0.5842 0.110067,0.118533 0.524934,0.1524 v 0.127 h -2.006601 v -0.127 q 0.440267,-0.0254 0.550334,-0.1524 0.118533,-0.127 0.118533,-0.5842 v -1.964268 q 0,-0.2794 -0.06773,-0.389467 Q 52.53707,46.35699 52.38467,46.35699 Z m 0.5588,-2.455335 q 0.186267,0 0.313267,0.127 0.127,0.127 0.127,0.304801 0,0.186266 -0.127,0.313266 -0.127,0.118534 -0.313267,0.118534 -0.1778,0 -0.3048,-0.127 -0.118533,-0.127 -0.118533,-0.3048 0,-0.177801 0.127,-0.304801 0.127,-0.127 0.296333,-0.127 z"
         style="text-align:center;text-anchor:middle;opacity:1;fill:#000000;stroke:none"
         id="path4118" />
      <path
         d="m 56.39787,45.959056 q 0.0085,0 0.135467,-0.08467 h 0.09313 l 0.03387,1.151467 h -0.127 q -0.143934,-0.567267 -0.355601,-0.804334 -0.211666,-0.237067 -0.575733,-0.237067 -0.287867,0 -0.474134,0.160867 -0.1778,0.160867 -0.1778,0.414867 0,0.364067 0.364067,0.575733 l 0.914401,0.541867 q 0.381,0.2286 0.541866,0.465667 0.169334,0.2286 0.169334,0.541867 0,0.440267 -0.3556,0.762 -0.347134,0.321734 -0.838201,0.321734 -0.211666,0 -0.567267,-0.0762 -0.3556,-0.0762 -0.440266,-0.0762 -0.127,0 -0.194734,0.1016 h -0.110067 v -1.320801 h 0.135467 q 0.135467,0.592667 0.321734,0.838201 0.270933,0.347133 0.753533,0.347133 0.321734,0 0.508,-0.160867 0.194734,-0.169333 0.194734,-0.448733 0,-0.381 -0.440267,-0.635001 l -0.491067,-0.2794 q -0.541867,-0.3048 -0.770467,-0.5842 -0.220133,-0.2794 -0.220133,-0.635 0,-0.4572 0.321733,-0.745067 0.3302,-0.296334 0.829734,-0.296334 0.2794,0 0.524933,0.08467 0.245534,0.0762 0.296334,0.0762 z"
         style="text-align:center;text-anchor:middle;opacity:1;fill:#000000;stroke:none"
         id="path4120" />
      <path
         d="m 29.308747,55.018393 h -0.4572 q -0.711201,0 -0.956734,0.194734 -0.237067,0.194733 -0.389467,0.889 h -0.2032 l 0.0508,-1.439334 h 4.775202 l 0.0508,1.439334 h -0.2032 q -0.143933,-0.702734 -0.389467,-0.889 -0.237067,-0.194734 -0.956734,-0.194734 h -0.4572 v 4.326469 q 0,0.465666 0.143934,0.601133 0.143933,0.135467 0.668867,0.160867 v 0.160867 H 28.51288 v -0.160867 q 0.524933,-0.03387 0.6604,-0.169334 0.135467,-0.143933 0.135467,-0.6858 z"
         style="text-align:center;text-anchor:middle;fill:#000000;stroke:none"
         id="path4122" />
      <path
         d="m 34.769755,57.202794 q -0.127,0 -0.313267,-0.143933 -0.186267,-0.1524 -0.245534,-0.1524 -0.169333,0 -0.381,0.245533 -0.211666,0.245533 -0.211666,0.448734 v 1.905 q 0,0.364067 0.143933,0.491067 0.143933,0.127 0.575733,0.143934 v 0.127 h -2.032 v -0.127 q 0.4064,-0.0762 0.499533,-0.169334 0.1016,-0.09313 0.1016,-0.414867 v -2.116667 q 0,-0.2794 -0.06773,-0.389467 -0.05927,-0.118533 -0.220134,-0.118533 -0.135466,0 -0.296333,0.03387 v -0.135466 q 0.677334,-0.220134 1.253067,-0.457201 l 0.04233,0.01693 v 0.778933 q 0.313266,-0.448733 0.5334,-0.618067 0.220133,-0.1778 0.4826,-0.1778 0.220133,0 0.338667,0.118534 0.127,0.118533 0.127,0.3302 0,0.1778 -0.09313,0.2794 -0.08467,0.1016 -0.237066,0.1016 z"
         style="text-align:center;text-anchor:middle;fill:#000000;stroke:none"
         id="path4124" />
      <path
         d="m 35.878881,57.922461 q 0.01693,0.5334 0.143933,0.922867 0.127,0.381 0.3302,0.575734 0.2032,0.186266 0.4064,0.270933 0.211667,0.0762 0.440267,0.0762 0.4064,0 0.702734,-0.2032 0.3048,-0.2032 0.6096,-0.6858 l 0.135467,0.05927 q -0.262467,0.685801 -0.728134,1.049867 -0.465667,0.364067 -1.0668,0.364067 -0.728134,0 -1.159934,-0.508 -0.423334,-0.516467 -0.423334,-1.388534 0,-0.9398 0.491067,-1.507067 0.499534,-0.575734 1.278467,-0.575734 0.643467,0 0.999067,0.389467 0.355601,0.381 0.448734,1.159934 z m 0.01693,-0.270933 h 1.727201 q -0.08467,-0.550334 -0.262467,-0.762001 -0.1778,-0.211667 -0.567267,-0.211667 -0.762,0 -0.897467,0.973668 z"
         style="text-align:center;text-anchor:middle;fill:#000000;stroke:none"
         id="path4126" />
      <path
         d="m 39.875151,59.421062 q 0.194734,0 0.3302,0.143933 0.143934,0.143933 0.143934,0.338667 0,0.186266 -0.143934,0.321733 -0.143933,0.135467 -0.338666,0.135467 -0.186267,0 -0.321734,-0.135467 -0.135467,-0.135467 -0.135467,-0.321733 0,-0.194734 0.135467,-0.338667 0.143933,-0.143933 0.3302,-0.143933 z"
         style="text-align:center;text-anchor:middle;fill:#000000;stroke:none"
         id="path4128" />
      <path
         d="m 41.433019,60.453995 -0.0254,-0.169333 q 0.9652,-0.169333 1.634067,-0.821267 0.677334,-0.651934 0.9398,-1.684867 -0.626533,0.4826 -1.27,0.4826 -0.6858,0 -1.109134,-0.474134 -0.414867,-0.474133 -0.414867,-1.2446 0,-0.855134 0.499534,-1.422401 0.508,-0.575733 1.261534,-0.575733 0.821267,0 1.3462,0.668867 0.524934,0.668866 0.524934,1.718734 0,0.338666 -0.05927,0.694267 -0.05927,0.3556 -0.2794,0.846667 -0.211667,0.4826 -0.5588,0.872067 -0.347134,0.381 -0.990601,0.694266 -0.643467,0.313267 -1.4986,0.414867 z m 1.583267,-2.556934 q 0.160867,0 0.364067,-0.04233 0.2032,-0.0508 0.4064,-0.2032 0.211667,-0.160867 0.211667,-0.389467 v -0.3302 q 0,-2.150535 -1.117601,-2.150535 -0.262466,0 -0.448733,0.143934 -0.186267,0.135466 -0.287867,0.364067 -0.09313,0.2286 -0.135467,0.465666 -0.04233,0.237067 -0.04233,0.499534 0,0.753534 0.2794,1.202267 0.287867,0.440267 0.770467,0.440267 z"
         style="text-align:center;text-anchor:middle;fill:#000000;stroke:none"
         id="path4130" />
      <path
         d="m 45.666353,60.453995 -0.0254,-0.169333 q 0.965201,-0.169333 1.634068,-0.821267 0.677333,-0.651934 0.9398,-1.684867 -0.626534,0.4826 -1.270001,0.4826 -0.6858,0 -1.109133,-0.474134 -0.414867,-0.474133 -0.414867,-1.2446 0,-0.855134 0.499533,-1.422401 0.508001,-0.575733 1.261534,-0.575733 0.821267,0 1.346201,0.668867 0.524933,0.668866 0.524933,1.718734 0,0.338666 -0.05927,0.694267 -0.05927,0.3556 -0.279401,0.846667 -0.211666,0.4826 -0.5588,0.872067 -0.347133,0.381 -0.9906,0.694266 -0.643467,0.313267 -1.498601,0.414867 z m 1.583268,-2.556934 q 0.160866,0 0.364066,-0.04233 0.2032,-0.0508 0.406401,-0.2032 0.211666,-0.160867 0.211666,-0.389467 v -0.3302 q 0,-2.150535 -1.1176,-2.150535 -0.262467,0 -0.448734,0.143934 -0.186266,0.135466 -0.287866,0.364067 -0.09313,0.2286 -0.135467,0.465666 -0.04233,0.237067 -0.04233,0.499534 0,0.753534 0.279401,1.202267 0.287866,0.440267 0.770467,0.440267 z"
         style="text-align:center;text-anchor:middle;fill:#000000;stroke:none"
         id="path4132" />
    </g>
    <g
       aria-label="My email is
Tre@trebrock.net"
       id="text2312"
       style="font-size:8.46667px;font-family:FreeSerif;-inkscape-font-specification:FreeSerif;text-align:center;text-anchor:middle;stroke-width:0.4035">
      <path
         d="m 23.686688,72.73217 -2.167468,4.851402 h -0.118533 l -2.125135,-4.656668 v 3.412068 q 0,0.643467 0.1524,0.855134 0.152401,0.2032 0.643467,0.2286 v 0.160866 h -1.989667 v -0.160866 q 0.524933,-0.03387 0.668867,-0.2286 0.1524,-0.203201 0.1524,-0.855134 v -3.437468 q 0,-0.465667 -0.143933,-0.592667 -0.135467,-0.135467 -0.660401,-0.169333 v -0.160867 h 1.676401 l 1.955801,4.275668 1.871134,-4.275668 h 1.684867 v 0.160867 q -0.474133,0.04233 -0.6096,0.1778 -0.127,0.135466 -0.127,0.5842 v 3.759201 q 0,0.448734 0.135467,0.592667 0.135466,0.135467 0.601133,0.169334 v 0.160866 h -2.370667 v -0.160866 q 0.499533,-0.03387 0.635,-0.1778 0.135467,-0.1524 0.135467,-0.677334 z"
         id="path4051" />
      <path
         d="m 26.61616,78.718106 q 0.237067,0 0.499533,-0.524933 0.262467,-0.524934 0.262467,-0.770467 0,-0.110067 -0.372533,-0.855134 l -1.117601,-2.404534 q -0.1016,-0.220134 -0.4318,-0.270934 v -0.118533 h 1.744134 v 0.127 q -0.270933,0.0085 -0.381,0.05927 -0.110067,0.0508 -0.110067,0.169333 0,0.127 0.08467,0.321733 l 0.973667,2.142068 0.821267,-2.336801 q 0.03387,-0.0762 0.03387,-0.143933 0,-0.211667 -0.406401,-0.211667 v -0.127 h 1.143001 v 0.127 q -0.1524,0.01693 -0.245534,0.1016 -0.08467,0.0762 -0.160866,0.2794 L 27.6491,77.735975 q -0.338667,0.914401 -0.677334,1.303868 -0.3302,0.389466 -0.753534,0.389466 -0.270933,0 -0.448733,-0.143933 -0.1778,-0.135467 -0.1778,-0.347133 0,-0.1524 0.110066,-0.262467 0.110067,-0.110067 0.254001,-0.110067 0.186266,0 0.397933,0.0762 0.211667,0.0762 0.262467,0.0762 z"
         id="path4053" />
      <path
         d="m 32.339635,75.238305 q 0.01693,0.5334 0.143933,0.922867 0.127,0.381 0.3302,0.575733 0.2032,0.186267 0.4064,0.270934 0.211667,0.0762 0.440267,0.0762 0.4064,0 0.702734,-0.2032 0.3048,-0.2032 0.6096,-0.6858 l 0.135467,0.05927 q -0.262467,0.6858 -0.728134,1.049867 -0.465667,0.364067 -1.0668,0.364067 -0.728134,0 -1.159934,-0.508 -0.423334,-0.516467 -0.423334,-1.388534 0,-0.9398 0.491067,-1.507067 0.499534,-0.575734 1.278467,-0.575734 0.643467,0 0.999068,0.389467 0.3556,0.381 0.448733,1.159934 z m 0.01693,-0.270934 h 1.727201 q -0.08467,-0.550333 -0.262467,-0.762 -0.1778,-0.211667 -0.567267,-0.211667 -0.762,0 -0.897467,0.973667 z"
         id="path4055" />
      <path
         d="m 35.30297,74.213838 v -0.143934 q 0.6096,-0.169333 1.185334,-0.381 l 0.05927,0.01693 v 0.635 q 0.524933,-0.397934 0.778933,-0.524934 0.254,-0.127 0.533401,-0.127 0.668866,0 0.897467,0.7112 0.6604,-0.7112 1.380067,-0.7112 0.982133,0 0.982133,1.507067 v 1.744134 q 0,0.474134 0.364067,0.499534 l 0.220134,0.01693 v 0.127 h -1.854201 v -0.127 q 0.372533,-0.04233 0.465667,-0.143933 0.09313,-0.1016 0.09313,-0.465667 v -1.786467 q 0,-0.524934 -0.135467,-0.728134 -0.135466,-0.2032 -0.499533,-0.2032 -0.5588,0 -0.922867,0.516467 v 2.133601 q 0,0.397933 0.118533,0.5334 0.127,0.135467 0.491067,0.143933 v 0.127 h -1.896534 v -0.127 q 0.364067,-0.0254 0.465667,-0.135466 0.110067,-0.110067 0.110067,-0.465667 v -1.837268 q 0,-0.889 -0.558801,-0.889 -0.237066,0 -0.5334,0.118533 -0.287867,0.118534 -0.465667,0.381001 v 2.3876 q 0,0.245534 0.118534,0.338667 0.118533,0.08467 0.4572,0.1016 v 0.127 H 35.27757 v -0.127 q 0.3556,-0.0085 0.474134,-0.127 0.118533,-0.118533 0.118533,-0.465667 v -2.142067 q 0,-0.3048 -0.06773,-0.423334 -0.05927,-0.118533 -0.2286,-0.118533 -0.127,0 -0.270934,0.03387 z"
         id="path4057" />
      <path
         d="m 41.957774,76.762305 q 0,-0.1524 0.03387,-0.2794 0.03387,-0.135466 0.118534,-0.245533 0.08467,-0.118534 0.160867,-0.211667 0.0762,-0.09313 0.2286,-0.186267 0.1524,-0.1016 0.254,-0.160866 0.1016,-0.06773 0.3048,-0.1524 0.211667,-0.09313 0.321733,-0.135467 0.110067,-0.0508 0.347134,-0.143934 0.237067,-0.09313 0.347133,-0.135466 v -0.516467 q 0,-0.702734 -0.643467,-0.702734 -0.254,0 -0.4318,0.127 -0.1778,0.118534 -0.1778,0.287867 0,0.06773 0.01693,0.186267 0.0254,0.118533 0.0254,0.1524 0,0.143933 -0.118533,0.254 -0.110067,0.1016 -0.262467,0.1016 -0.143933,0 -0.254,-0.110067 -0.110066,-0.110066 -0.110066,-0.254 0,-0.397933 0.4064,-0.668867 0.414866,-0.2794 1.016,-0.2794 0.694267,0 0.956734,0.338667 0.262467,0.3302 0.262467,1.016 v 1.651001 q 0,0.2794 0.0508,0.389467 0.05927,0.1016 0.2032,0.1016 0.1778,0 0.372533,-0.160867 v 0.220134 q -0.220133,0.245533 -0.389467,0.338666 -0.160866,0.08467 -0.372533,0.08467 -0.262467,0 -0.389467,-0.143933 -0.118533,-0.143934 -0.1524,-0.474134 -0.728134,0.618067 -1.236134,0.618067 -0.389467,0 -0.643467,-0.254 -0.245533,-0.254 -0.245533,-0.651934 z m 2.116667,-0.220133 v -1.227667 q -0.762,0.2794 -1.0668,0.541867 -0.3048,0.262466 -0.3048,0.635 0,0.347133 0.169333,0.516467 0.169334,0.169333 0.364067,0.169333 0.287867,0 0.618067,-0.194733 0.135467,-0.0762 0.1778,-0.160867 0.04233,-0.08467 0.04233,-0.2794 z"
         id="path4059" />
      <path
         d="m 45.911711,74.256171 q -0.186266,0 -0.3556,0.0254 v -0.127 q 0.592667,-0.169333 1.312334,-0.465667 l 0.03387,0.0254 v 3.005668 q 0,0.4572 0.1016,0.5842 0.110066,0.118534 0.524933,0.1524 v 0.127 h -2.0066 v -0.127 q 0.440266,-0.0254 0.550333,-0.1524 0.118533,-0.127 0.118533,-0.5842 v -1.964267 q 0,-0.279401 -0.06773,-0.389467 -0.05927,-0.110067 -0.211667,-0.110067 z m 0.558801,-2.455334 q 0.186266,0 0.313266,0.127 0.127,0.127 0.127,0.3048 0,0.186267 -0.127,0.313267 -0.127,0.118533 -0.313266,0.118533 -0.177801,0 -0.304801,-0.127 -0.118533,-0.127 -0.118533,-0.3048 0,-0.1778 0.127,-0.3048 0.127,-0.127 0.296334,-0.127 z"
         id="path4061" />
      <path
         d="M 47.740508,72.308837 V 72.17337 q 0.838201,-0.2032 1.346201,-0.372533 l 0.03387,0.01693 v 5.054602 q 0,0.347134 0.110066,0.4572 0.118534,0.1016 0.524934,0.127 v 0.127 h -1.998134 v -0.127 q 0.397933,-0.03387 0.524933,-0.1524 0.127,-0.118533 0.127,-0.4572 V 72.80837 q 0,-0.296333 -0.0762,-0.4064 -0.0762,-0.110066 -0.2794,-0.110066 -0.169333,0 -0.313267,0.01693 z"
         id="path4063" />
      <path
         d="m 52.481841,74.256171 q -0.186267,0 -0.3556,0.0254 v -0.127 q 0.592666,-0.169333 1.312333,-0.465667 l 0.03387,0.0254 v 3.005668 q 0,0.4572 0.1016,0.5842 0.110067,0.118534 0.524934,0.1524 v 0.127 h -2.006601 v -0.127 q 0.440267,-0.0254 0.550333,-0.1524 0.118534,-0.127 0.118534,-0.5842 v -1.964267 q 0,-0.279401 -0.06773,-0.389467 -0.05927,-0.110067 -0.211666,-0.110067 z m 0.5588,-2.455334 q 0.186267,0 0.313267,0.127 0.127,0.127 0.127,0.3048 0,0.186267 -0.127,0.313267 -0.127,0.118533 -0.313267,0.118533 -0.1778,0 -0.3048,-0.127 -0.118534,-0.127 -0.118534,-0.3048 0,-0.1778 0.127001,-0.3048 0.127,-0.127 0.296333,-0.127 z"
         id="path4065" />
      <path
         d="m 56.495037,73.858238 q 0.0085,0 0.135467,-0.08467 h 0.09313 l 0.03387,1.151467 h -0.127 q -0.143934,-0.567267 -0.355601,-0.804334 -0.211666,-0.237066 -0.575733,-0.237066 -0.287867,0 -0.474134,0.160866 -0.1778,0.160867 -0.1778,0.414867 0,0.364067 0.364067,0.575734 l 0.9144,0.541867 q 0.381001,0.2286 0.541867,0.465666 0.169334,0.228601 0.169334,0.541867 0,0.440267 -0.3556,0.762001 -0.347134,0.321733 -0.838201,0.321733 -0.211667,0 -0.567267,-0.0762 -0.3556,-0.0762 -0.440267,-0.0762 -0.127,0 -0.194733,0.1016 h -0.110067 v -1.3208 h 0.135467 q 0.135467,0.592666 0.321734,0.8382 0.270933,0.347133 0.753533,0.347133 0.321734,0 0.508,-0.160866 0.194734,-0.169334 0.194734,-0.448734 0,-0.381 -0.440267,-0.635 l -0.491067,-0.2794 q -0.541867,-0.3048 -0.770467,-0.5842 -0.220133,-0.279401 -0.220133,-0.635001 0,-0.4572 0.321733,-0.745067 0.3302,-0.296333 0.829734,-0.296333 0.2794,0 0.524933,0.08467 0.245534,0.0762 0.296334,0.0762 z"
         id="path4067" />
      <path
         d="M 10.224691,82.917575 H 9.7674904 q -0.7112003,0 -0.9567338,0.194733 -0.2370667,0.194733 -0.3894668,0.889 H 8.2180897 l 0.0508,-1.439334 h 4.7752023 l 0.0508,1.439334 h -0.2032 q -0.143934,-0.702733 -0.389467,-0.889 -0.237067,-0.194733 -0.956734,-0.194733 h -0.4572 v 4.326468 q 0,0.465667 0.143933,0.601133 0.143934,0.135467 0.668867,0.160867 V 88.16691 H 9.4288236 v -0.160867 q 0.5249335,-0.03387 0.6604004,-0.169333 0.135467,-0.143934 0.135467,-0.6858 z"
         id="path4069" />
      <path
         d="m 15.685699,85.101975 q -0.127001,0 -0.313267,-0.143933 -0.186267,-0.1524 -0.245534,-0.1524 -0.169333,0 -0.381,0.245533 -0.211667,0.245534 -0.211667,0.448734 v 1.905001 q 0,0.364066 0.143934,0.491066 0.143933,0.127001 0.575733,0.143934 v 0.127 h -2.032 v -0.127 q 0.4064,-0.0762 0.499533,-0.169334 0.1016,-0.09313 0.1016,-0.414866 v -2.116668 q 0,-0.2794 -0.06773,-0.389467 -0.05927,-0.118533 -0.220134,-0.118533 -0.135466,0 -0.296333,0.03387 v -0.135467 q 0.677333,-0.220134 1.253067,-0.4572 l 0.04233,0.01693 v 0.778934 q 0.313267,-0.448734 0.533401,-0.618067 0.220133,-0.1778 0.4826,-0.1778 0.220133,0 0.338667,0.118533 0.127,0.118533 0.127,0.3302 0,0.1778 -0.09313,0.2794 -0.08467,0.1016 -0.237066,0.1016 z"
         id="path4071" />
      <path
         d="m 16.794824,85.821642 q 0.01693,0.533401 0.143934,0.922867 0.127,0.381001 0.3302,0.575734 0.2032,0.186267 0.4064,0.270933 0.211667,0.0762 0.440267,0.0762 0.4064,0 0.702734,-0.2032 0.3048,-0.2032 0.6096,-0.6858 l 0.135467,0.05927 q -0.262467,0.6858 -0.728134,1.049867 -0.465667,0.364067 -1.066801,0.364067 -0.728133,0 -1.159933,-0.508001 -0.423334,-0.516466 -0.423334,-1.388533 0,-0.939801 0.491067,-1.507068 0.499534,-0.575733 1.278467,-0.575733 0.643467,0 0.999067,0.389467 0.3556,0.381 0.448734,1.159933 z m 0.01693,-0.270933 h 1.7272 q -0.08467,-0.550334 -0.262466,-0.762 -0.1778,-0.211667 -0.567267,-0.211667 -0.762001,0 -0.897467,0.973667 z"
         id="path4073" />
      <path
         d="m 23.559696,82.705908 q -1.066801,0 -1.727201,0.795867 -0.6604,0.7874 -0.6604,1.930401 0,1.100667 0.694267,1.811867 0.694267,0.7112 1.778,0.7112 0.753534,0 1.659468,-0.4064 l 0.1016,0.254 q -0.618067,0.2794 -1.007534,0.381 -0.381,0.1016 -0.829734,0.1016 -1.312333,0 -2.2098,-0.829733 -0.897468,-0.829734 -0.897468,-2.048934 0,-1.236134 0.897468,-2.099735 0.905933,-0.8636 2.192867,-0.8636 1.176867,0 1.972734,0.719667 0.804334,0.7112 0.804334,1.761067 0,0.821267 -0.465667,1.430868 -0.465667,0.601133 -1.0922,0.601133 -0.304801,0 -0.524934,-0.169333 -0.211667,-0.169334 -0.245533,-0.448734 -0.457201,0.6096 -1.058334,0.6096 -0.313267,0 -0.5334,-0.270933 -0.211667,-0.2794 -0.211667,-0.677334 0,-0.762 0.474133,-1.4478 0.482601,-0.6858 1.185334,-0.6858 0.220134,0 0.338667,0.09313 0.127,0.08467 0.270933,0.347133 l 0.08467,-0.321733 h 0.5842 l -0.550333,2.150534 q -0.01693,0.1016 -0.01693,0.1524 0,0.389467 0.330201,0.389467 0.414866,0 0.753533,-0.516467 0.338667,-0.516467 0.338667,-1.151467 0,-0.948267 -0.719667,-1.625601 -0.7112,-0.677333 -1.710267,-0.677333 z m 0.762,2.023534 q 0,-0.262467 -0.110067,-0.372534 -0.110066,-0.118533 -0.262466,-0.118533 -0.347134,0 -0.753534,0.474134 -0.397934,0.465666 -0.397934,1.151467 0,0.3302 0.135467,0.524933 0.135467,0.194734 0.372534,0.194734 0.4064,0 0.7112,-0.635001 0.3048,-0.635 0.3048,-1.2192 z"
         id="path4075" />
      <path
         d="m 29.249297,84.356908 v 0.270934 h -0.855134 v 2.421467 q 0,0.397934 0.1016,0.584201 0.1016,0.1778 0.338667,0.1778 0.262467,0 0.508,-0.296334 l 0.110067,0.09313 q -0.4064,0.643467 -1.016,0.643467 -0.753534,0 -0.753534,-1.075267 v -2.548468 h -0.448734 q -0.03387,-0.0254 -0.03387,-0.05927 0,-0.04233 0.0254,-0.06773 0.0254,-0.0254 0.09313,-0.06773 0.0762,-0.0508 0.1778,-0.127 0.1016,-0.08467 0.2794,-0.296333 0.1778,-0.211667 0.389467,-0.508 0.135467,-0.194734 0.169334,-0.237067 0.05927,0 0.05927,0.110067 v 0.982133 z"
         id="path4077" />
      <path
         d="m 32.000971,85.101975 q -0.127,0 -0.313266,-0.143933 -0.186267,-0.1524 -0.245534,-0.1524 -0.169333,0 -0.381,0.245533 -0.211667,0.245534 -0.211667,0.448734 v 1.905001 q 0,0.364066 0.143934,0.491066 0.143933,0.127001 0.575733,0.143934 v 0.127 H 29.53717 v -0.127 q 0.406401,-0.0762 0.499534,-0.169334 0.1016,-0.09313 0.1016,-0.414866 v -2.116668 q 0,-0.2794 -0.06773,-0.389467 -0.05927,-0.118533 -0.220134,-0.118533 -0.135467,0 -0.296333,0.03387 v -0.135467 q 0.677333,-0.220134 1.253067,-0.4572 l 0.04233,0.01693 v 0.778934 q 0.313267,-0.448734 0.5334,-0.618067 0.220134,-0.1778 0.482601,-0.1778 0.220133,0 0.338666,0.118533 0.127,0.118533 0.127,0.3302 0,0.1778 -0.09313,0.2794 -0.08467,0.1016 -0.237067,0.1016 z"
         id="path4079" />
      <path
         d="m 33.110097,85.821642 q 0.01693,0.533401 0.143934,0.922867 0.127,0.381001 0.3302,0.575734 0.2032,0.186267 0.4064,0.270933 0.211667,0.0762 0.440267,0.0762 0.4064,0 0.702733,-0.2032 0.304801,-0.2032 0.609601,-0.6858 l 0.135466,0.05927 q -0.262466,0.6858 -0.728133,1.049867 -0.465667,0.364067 -1.066801,0.364067 -0.728133,0 -1.159933,-0.508001 -0.423334,-0.516466 -0.423334,-1.388533 0,-0.939801 0.491067,-1.507068 0.499533,-0.575733 1.278467,-0.575733 0.643467,0 0.999067,0.389467 0.3556,0.381 0.448734,1.159933 z m 0.01693,-0.270933 h 1.7272 q -0.08467,-0.550334 -0.262467,-0.762 -0.1778,-0.211667 -0.567266,-0.211667 -0.762001,0 -0.897467,0.973667 z"
         id="path4081" />
      <path
         d="m 37.233364,82.401108 v 2.590801 q 0.127,-0.313267 0.4572,-0.516467 0.3302,-0.2032 0.719667,-0.2032 0.635,0 1.058334,0.5334 0.4318,0.524933 0.4318,1.303867 0,0.905934 -0.575733,1.524001 -0.567267,0.618067 -1.405468,0.618067 -0.508,0 -0.956733,-0.169334 -0.440267,-0.1778 -0.440267,-0.372533 v -4.394202 q 0,-0.262467 -0.08467,-0.347133 -0.0762,-0.08467 -0.3302,-0.08467 -0.09313,0 -0.143933,0.0085 v -0.135467 q 0.651933,-0.160867 1.227667,-0.372534 z m 0,3.039534 v 2.133601 q 0,0.160867 0.245534,0.287867 0.245533,0.118533 0.575733,0.118533 0.524934,0 0.8128,-0.389467 0.287867,-0.389466 0.287867,-1.0922 0,-0.770467 -0.296333,-1.227667 -0.287867,-0.465667 -0.787401,-0.465667 -0.3302,0 -0.5842,0.194733 -0.254,0.194734 -0.254,0.440267 z"
         id="path4083" />
      <path
         d="m 42.575831,85.101975 q -0.127,0 -0.313267,-0.143933 -0.186267,-0.1524 -0.245533,-0.1524 -0.169334,0 -0.381,0.245533 -0.211667,0.245534 -0.211667,0.448734 v 1.905001 q 0,0.364066 0.143933,0.491066 0.143934,0.127001 0.575734,0.143934 v 0.127 H 40.11203 v -0.127 q 0.4064,-0.0762 0.499534,-0.169334 0.1016,-0.09313 0.1016,-0.414866 v -2.116668 q 0,-0.2794 -0.06773,-0.389467 -0.05927,-0.118533 -0.220133,-0.118533 -0.135467,0 -0.296334,0.03387 v -0.135467 q 0.677334,-0.220134 1.253067,-0.4572 l 0.04233,0.01693 v 0.778934 q 0.313267,-0.448734 0.5334,-0.618067 0.220133,-0.1778 0.4826,-0.1778 0.220134,0 0.338667,0.118533 0.127,0.118533 0.127,0.3302 0,0.1778 -0.09313,0.2794 -0.08467,0.1016 -0.237067,0.1016 z"
         id="path4085" />
      <path
         d="m 44.946493,84.272242 q 0.8128,0 1.337733,0.541867 0.524934,0.541866 0.524934,1.3716 0,0.880534 -0.541867,1.473201 -0.541867,0.592667 -1.337734,0.592667 -0.795867,0 -1.329267,-0.567267 -0.524933,-0.575734 -0.524933,-1.430867 0,-0.872068 0.516466,-1.422401 0.524934,-0.5588 1.354668,-0.5588 z m -1.109134,1.566334 q 0,0.905933 0.3302,1.540934 0.3302,0.635 0.8636,0.635 0.474134,0 0.745067,-0.4064 0.270934,-0.4064 0.270934,-1.126067 0,-0.872067 -0.338667,-1.422401 -0.338667,-0.550334 -0.872067,-0.550334 -0.448734,0 -0.728134,0.364067 -0.270933,0.364067 -0.270933,0.965201 z"
         id="path4087" />
      <path
         d="m 47.232486,86.363509 q 0,-0.9398 0.550333,-1.515534 0.558801,-0.575733 1.303868,-0.575733 0.5334,0 0.9144,0.262466 0.389467,0.254001 0.389467,0.609601 0,0.143933 -0.118534,0.254 -0.118533,0.1016 -0.287866,0.1016 -0.287867,0 -0.397934,-0.389467 l -0.0508,-0.186267 q -0.06773,-0.237066 -0.169333,-0.321733 -0.1016,-0.08467 -0.3302,-0.08467 -0.516467,0 -0.838201,0.414867 -0.313267,0.4064 -0.313267,1.058334 0,0.728133 0.364067,1.1938 0.372534,0.4572 0.948267,0.4572 0.364067,0 0.626534,-0.169333 0.262467,-0.1778 0.567267,-0.626534 l 0.118533,0.0762 q -0.08467,0.169334 -0.1524,0.279401 -0.05927,0.110066 -0.2286,0.3302 -0.160867,0.220133 -0.321733,0.3556 -0.160867,0.135467 -0.423334,0.254 -0.262467,0.110067 -0.541867,0.110067 -0.702733,0 -1.159934,-0.524934 -0.448733,-0.5334 -0.448733,-1.363134 z"
         id="path4089" />
      <path
         d="m 50.695352,82.892175 v -0.135467 q 0.719667,-0.1778 1.312334,-0.372534 l 0.03387,0.01693 v 3.556001 l 1.159934,-1.032934 q 0.194733,-0.169333 0.194733,-0.287866 0,-0.08467 -0.09313,-0.118534 -0.08467,-0.03387 -0.3302,-0.04233 v -0.118534 h 1.7272 v 0.127 q -0.194733,0 -0.313266,0.0254 -0.110067,0.01693 -0.321734,0.110067 -0.211667,0.09313 -0.499533,0.321734 -0.2794,0.2286 -0.694267,0.6096 l -0.245534,0.2286 1.295401,1.642534 q 0.262467,0.321733 0.4826,0.465667 0.2286,0.135467 0.508,0.1524 v 0.127 h -1.84574 v -0.127 q 0.338667,0 0.338667,-0.127 0,-0.03387 -0.0254,-0.0762 -0.0254,-0.0508 -0.08467,-0.110067 -0.0508,-0.06773 -0.06773,-0.1016 l -1.185334,-1.583267 v 1.4478 q 0,0.3048 0.09313,0.389467 0.1016,0.08467 0.541867,0.160867 v 0.127 h -1.981201 v -0.127 q 0.457201,-0.0762 0.541867,-0.1524 0.09313,-0.08467 0.09313,-0.414867 v -4.080935 q 0,-0.3048 -0.0762,-0.4064 -0.0762,-0.110067 -0.287867,-0.110067 -0.118533,0 -0.270934,0.01693 z"
         id="path4091" />
      <path
         d="m 56.012426,87.320243 q 0.194734,0 0.3302,0.143933 0.143934,0.143934 0.143934,0.338667 0,0.186267 -0.143934,0.321734 -0.143933,0.135466 -0.338666,0.135466 -0.186267,0 -0.321734,-0.135466 -0.135467,-0.135467 -0.135467,-0.321734 0,-0.194733 0.135467,-0.338667 0.143933,-0.143933 0.3302,-0.143933 z"
         id="path4093" />
      <path
         d="m 57.155424,84.797175 v -0.143933 q 0.626534,-0.186267 1.168401,-0.381 l 0.05927,0.01693 v 0.668867 q 0.4318,-0.4064 0.677334,-0.541867 0.254,-0.143933 0.550333,-0.143933 0.465667,0 0.728134,0.338667 0.270933,0.3302 0.270933,0.931333 v 1.938868 q 0,0.313266 0.1016,0.423333 0.101601,0.1016 0.414867,0.135467 v 0.127 h -1.761067 v -0.127 q 0.321733,-0.0254 0.423333,-0.169334 0.110067,-0.143933 0.110067,-0.541866 v -1.769534 q 0,-0.821267 -0.618067,-0.821267 -0.211667,0 -0.389467,0.1016 -0.1778,0.09313 -0.4826,0.381 v 2.379134 q 0,0.2286 0.118534,0.321734 0.118533,0.09313 0.440266,0.118533 v 0.127 h -1.794934 v -0.127 q 0.321734,-0.0254 0.423334,-0.143934 0.1016,-0.127 0.1016,-0.491066 v -2.099735 q 0,-0.313266 -0.06773,-0.423333 -0.06773,-0.118533 -0.245534,-0.118533 -0.160867,0 -0.2286,0.03387 z"
         id="path4095" />
      <path
         d="m 61.947563,85.821642 q 0.01693,0.533401 0.143933,0.922867 0.127,0.381001 0.3302,0.575734 0.2032,0.186267 0.4064,0.270933 0.211667,0.0762 0.440267,0.0762 0.4064,0 0.702734,-0.2032 0.3048,-0.2032 0.6096,-0.6858 l 0.135467,0.05927 q -0.262467,0.6858 -0.728134,1.049867 -0.465667,0.364067 -1.0668,0.364067 -0.728134,0 -1.159934,-0.508001 -0.423334,-0.516466 -0.423334,-1.388533 0,-0.939801 0.491067,-1.507068 0.499534,-0.575733 1.278467,-0.575733 0.643467,0 0.999067,0.389467 0.355601,0.381 0.448734,1.159933 z m 0.01693,-0.270933 h 1.727201 q -0.08467,-0.550334 -0.262467,-0.762 -0.1778,-0.211667 -0.567267,-0.211667 -0.762,0 -0.897467,0.973667 z"
         id="path4097" />
      <path
         d="m 66.993697,84.356908 v 0.270934 h -0.855134 v 2.421467 q 0,0.397934 0.1016,0.584201 0.1016,0.1778 0.338667,0.1778 0.262467,0 0.508,-0.296334 l 0.110067,0.09313 q -0.4064,0.643467 -1.016,0.643467 -0.753534,0 -0.753534,-1.075267 v -2.548468 h -0.448734 q -0.03387,-0.0254 -0.03387,-0.05927 0,-0.04233 0.0254,-0.06773 0.0254,-0.0254 0.09313,-0.06773 0.0762,-0.0508 0.1778,-0.127 0.1016,-0.08467 0.2794,-0.296333 0.1778,-0.211667 0.389467,-0.508 0.135467,-0.194734 0.169334,-0.237067 0.05927,0 0.05927,0.110067 v 0.982133 z"
         id="path4099" />
    </g>
    <g
       aria-label="My github is
Tre-brock"
       id="text2312-3"
       style="font-size:8.46667px;font-family:FreeSerif;-inkscape-font-specification:FreeSerif;text-align:center;text-anchor:middle;stroke-width:0.4035">
      <path
         d="m 22.43125,100.97636 -2.167468,4.85141 h -0.118533 l -2.125134,-4.65667 v 3.41207 q 0,0.64346 0.1524,0.85513 0.1524,0.2032 0.643467,0.2286 v 0.16087 h -1.989668 v -0.16087 q 0.524934,-0.0339 0.668867,-0.2286 0.1524,-0.2032 0.1524,-0.85513 v -3.43747 q 0,-0.46567 -0.143933,-0.59267 -0.135467,-0.13547 -0.6604,-0.16933 v -0.16087 h 1.6764 l 1.955801,4.27567 1.871134,-4.27567 h 1.684867 v 0.16087 q -0.474133,0.0423 -0.6096,0.1778 -0.127,0.13546 -0.127,0.5842 v 3.7592 q 0,0.44873 0.135467,0.59267 0.135467,0.13546 0.601133,0.16933 v 0.16087 h -2.370667 v -0.16087 q 0.499533,-0.0339 0.635,-0.1778 0.135467,-0.1524 0.135467,-0.67733 z"
         id="path4012" />
      <path
         d="m 25.360722,106.9623 q 0.237067,0 0.499534,-0.52493 0.262466,-0.52494 0.262466,-0.77047 0,-0.11007 -0.372533,-0.85513 l -1.1176,-2.40454 q -0.101601,-0.22013 -0.431801,-0.27093 v -0.11854 h 1.744134 v 0.127 q -0.270933,0.008 -0.381,0.0593 -0.110066,0.0508 -0.110066,0.16934 0,0.127 0.08467,0.32173 l 0.973667,2.14207 0.821267,-2.3368 q 0.03387,-0.0762 0.03387,-0.14394 0,-0.21167 -0.4064,-0.21167 v -0.127 h 1.143 v 0.127 q -0.1524,0.0169 -0.245533,0.1016 -0.08467,0.0762 -0.160867,0.27941 l -1.303867,3.4544 q -0.338667,0.9144 -0.677334,1.30386 -0.3302,0.38947 -0.753533,0.38947 -0.270934,0 -0.448734,-0.14393 -0.1778,-0.13547 -0.1778,-0.34714 0,-0.1524 0.110067,-0.26246 0.110066,-0.11007 0.254,-0.11007 0.186267,0 0.397933,0.0762 0.211667,0.0762 0.262467,0.0762 z"
         id="path4014" />
      <path
         d="m 30.77093,105.37057 q 0,-0.16087 0.110067,-0.29634 0.118533,-0.13546 0.643467,-0.62653 -0.423334,-0.21167 -0.6096,-0.47413 -0.1778,-0.26247 -0.1778,-0.6604 0,-0.57574 0.4064,-0.97367 0.414867,-0.4064 1.007533,-0.4064 0.330201,0 0.702734,0.14393 0.381,0.13547 0.626534,0.13547 h 0.651933 v 0.3302 h -0.702733 q 0.160866,0.36407 0.160866,0.7112 0,0.5842 -0.397933,0.94827 -0.389467,0.36406 -0.922867,0.36406 -0.1016,0 -0.4826,-0.0423 -0.169334,0.0508 -0.338667,0.2286 -0.169334,0.1778 -0.169334,0.3048 0,0.2032 0.660401,0.2286 l 1.0922,0.0508 q 0.465667,0.0169 0.745067,0.26247 0.2794,0.24553 0.2794,0.64346 0,0.6096 -0.702733,1.016 -0.694267,0.41487 -1.498601,0.41487 -0.601134,0 -1.032934,-0.24553 -0.4318,-0.23707 -0.4318,-0.57574 0,-0.23706 0.186267,-0.47413 0.194733,-0.2286 0.643467,-0.5588 -0.262467,-0.127 -0.3556,-0.22013 -0.09313,-0.0931 -0.09313,-0.2286 z m 0.626534,0.47413 q -0.262467,0.31327 -0.338667,0.44873 -0.0762,0.13547 -0.0762,0.2794 0,0.2794 0.338667,0.44874 0.338667,0.16933 0.897467,0.16933 0.719667,0 1.159934,-0.2286 0.440266,-0.2286 0.440266,-0.59267 0,-0.2286 -0.237066,-0.32173 -0.237067,-0.0931 -0.812801,-0.0931 -0.855133,0 -1.3716,-0.11007 z m 1.540934,-2.2606 q 0,-0.14393 -0.03387,-0.34713 -0.03387,-0.2032 -0.118533,-0.4572 -0.08467,-0.26247 -0.270934,-0.4318 -0.186266,-0.17781 -0.448733,-0.17781 -0.296334,0 -0.465667,0.21167 -0.160867,0.21167 -0.160867,0.5842 0,0.72814 0.270934,1.05834 0.270933,0.3302 0.592666,0.3302 0.296334,0 0.465667,-0.2032 0.169334,-0.21167 0.169334,-0.56727 z"
         id="path4016" />
      <path
         d="m 34.741807,102.50037 q -0.186267,0 -0.3556,0.0254 v -0.127 q 0.592667,-0.16934 1.312334,-0.46567 l 0.03387,0.0254 v 3.00567 q 0,0.4572 0.1016,0.5842 0.110067,0.11853 0.524934,0.1524 v 0.127 H 34.35234 v -0.127 q 0.440267,-0.0254 0.550334,-0.1524 0.118533,-0.127 0.118533,-0.5842 v -1.96427 q 0,-0.2794 -0.06773,-0.38947 -0.05927,-0.11006 -0.211667,-0.11006 z m 0.5588,-2.45534 q 0.186267,0 0.313267,0.127 0.127,0.127 0.127,0.3048 0,0.18627 -0.127,0.31327 -0.127,0.11853 -0.313267,0.11853 -0.1778,0 -0.3048,-0.127 -0.118533,-0.127 -0.118533,-0.3048 0,-0.1778 0.127,-0.3048 0.127,-0.127 0.296333,-0.127 z"
         id="path4018" />
      <path
         d="m 38.594136,102.01776 v 0.27094 h -0.855134 v 2.42147 q 0,0.39793 0.1016,0.5842 0.1016,0.1778 0.338667,0.1778 0.262467,0 0.508,-0.29634 l 0.110067,0.0931 q -0.4064,0.64346 -1.016001,0.64346 -0.753533,0 -0.753533,-1.07526 v -2.54847 h -0.448734 q -0.03387,-0.0254 -0.03387,-0.0593 0,-0.0423 0.0254,-0.0677 0.0254,-0.0254 0.09313,-0.0677 0.0762,-0.0508 0.1778,-0.127 0.1016,-0.0847 0.2794,-0.29633 0.1778,-0.21167 0.389467,-0.508 0.135467,-0.19473 0.169333,-0.23707 0.05927,0 0.05927,0.11007 v 0.98213 z"
         id="path4020" />
      <path
         d="m 40.135078,102.9237 v 2.04047 q 0,0.44026 0.1016,0.56726 0.1016,0.127 0.474134,0.16934 v 0.127 h -1.828801 v -0.127 q 0.364067,-0.0508 0.448734,-0.16934 0.09313,-0.11853 0.09313,-0.56726 v -3.98781 q 0,-0.27093 -0.0762,-0.3556 -0.06773,-0.0847 -0.313267,-0.0847 -0.05927,0 -0.143933,0.0169 v -0.13547 q 0.601133,-0.16086 1.202267,-0.37253 l 0.04233,0.0254 v 2.57387 q 0.287867,-0.381 0.575734,-0.54187 0.296333,-0.16933 0.668867,-0.16933 1.0414,0 1.0414,1.3462 v 1.68487 q 0,0.44026 0.0762,0.5588 0.08467,0.11006 0.4318,0.1778 v 0.127 h -1.794934 v -0.127 q 0.364067,-0.0339 0.465667,-0.16934 0.110067,-0.13546 0.110067,-0.56726 v -1.6764 q 0,-0.89747 -0.635,-0.89747 -0.245534,0 -0.465667,0.127 -0.211667,0.11853 -0.474134,0.4064 z"
         id="path4022" />
      <path
         d="m 46.993073,105.40443 v 0.11854 q -0.6604,0.1778 -1.159934,0.381 l -0.03387,-0.0169 v -0.70273 q -0.0254,0.0254 -0.1524,0.1524 -0.118534,0.127 -0.169334,0.1778 -0.0508,0.0423 -0.1778,0.14393 -0.118533,0.0931 -0.211667,0.13547 -0.09313,0.0423 -0.237066,0.0762 -0.143934,0.0423 -0.287867,0.0423 -0.465667,0 -0.745067,-0.29633 -0.2794,-0.3048 -0.2794,-0.80433 v -2.1336 q 0,-0.29634 -0.110067,-0.4064 -0.110067,-0.11854 -0.414867,-0.13547 v -0.11854 h 1.236134 v 2.76014 q 0,0.26247 0.1778,0.4572 0.1778,0.18627 0.423334,0.18627 0.09313,0 0.220133,-0.0254 0.127,-0.0254 0.287867,-0.0931 0.169333,-0.0762 0.2794,-0.2286 0.118533,-0.16086 0.118533,-0.38946 v -1.98967 q 0,-0.31327 -0.118533,-0.41487 -0.110067,-0.1016 -0.508,-0.11853 v -0.14394 h 1.337734 v 2.90407 q 0,0.29634 0.09313,0.38947 0.09313,0.0931 0.389467,0.0931 z"
         id="path4024" />
      <path
         d="m 48.30541,100.06196 v 2.59081 q 0.127,-0.31327 0.4572,-0.51647 0.3302,-0.2032 0.719667,-0.2032 0.635,0 1.058334,0.5334 0.4318,0.52493 0.4318,1.30387 0,0.90593 -0.575733,1.524 -0.567267,0.61806 -1.405468,0.61806 -0.508,0 -0.956733,-0.16933 -0.440267,-0.1778 -0.440267,-0.37253 v -4.39421 q 0,-0.26246 -0.08467,-0.34713 -0.0762,-0.0847 -0.3302,-0.0847 -0.09313,0 -0.143933,0.008 v -0.13547 q 0.651933,-0.16086 1.227667,-0.37253 z m 0,3.03954 v 2.1336 q 0,0.16087 0.245533,0.28787 0.245534,0.11853 0.575734,0.11853 0.524934,0 0.8128,-0.38947 0.287867,-0.38946 0.287867,-1.0922 0,-0.77046 -0.296333,-1.22766 -0.287867,-0.46567 -0.787401,-0.46567 -0.3302,0 -0.5842,0.19473 -0.254,0.19474 -0.254,0.44027 z"
         id="path4026" />
      <path
         d="m 53.825677,102.50037 q -0.186267,0 -0.3556,0.0254 v -0.127 q 0.592667,-0.16934 1.312333,-0.46567 l 0.03387,0.0254 v 3.00567 q 0,0.4572 0.1016,0.5842 0.110067,0.11853 0.524934,0.1524 v 0.127 H 53.43621 v -0.127 q 0.440267,-0.0254 0.550333,-0.1524 0.118534,-0.127 0.118534,-0.5842 v -1.96427 q 0,-0.2794 -0.06773,-0.38947 -0.05927,-0.11006 -0.211666,-0.11006 z m 0.5588,-2.45534 q 0.186267,0 0.313267,0.127 0.127,0.127 0.127,0.3048 0,0.18627 -0.127,0.31327 -0.127,0.11853 -0.313267,0.11853 -0.1778,0 -0.3048,-0.127 -0.118534,-0.127 -0.118534,-0.3048 0,-0.1778 0.127001,-0.3048 0.127,-0.127 0.296333,-0.127 z"
         id="path4028" />
      <path
         d="m 57.838877,102.10243 q 0.0085,0 0.135466,-0.0847 h 0.09313 l 0.03387,1.15147 h -0.127 q -0.143933,-0.56726 -0.3556,-0.80433 -0.211667,-0.23707 -0.575733,-0.23707 -0.287867,0 -0.474134,0.16087 -0.1778,0.16087 -0.1778,0.41487 0,0.36406 0.364067,0.57573 l 0.9144,0.54187 q 0.381,0.2286 0.541867,0.46566 0.169334,0.2286 0.169334,0.54187 0,0.44027 -0.355601,0.762 -0.347133,0.32173 -0.8382,0.32173 -0.211667,0 -0.567267,-0.0762 -0.3556,-0.0762 -0.440267,-0.0762 -0.127,0 -0.194733,0.1016 h -0.110067 v -1.3208 h 0.135467 q 0.135467,0.59267 0.321733,0.8382 0.270934,0.34714 0.753534,0.34714 0.321733,0 0.508,-0.16087 0.194734,-0.16933 0.194734,-0.44873 0,-0.381 -0.440267,-0.635 l -0.491067,-0.2794 q -0.541867,-0.3048 -0.770467,-0.5842 -0.220133,-0.2794 -0.220133,-0.635 0,-0.4572 0.321733,-0.74507 0.3302,-0.29634 0.829734,-0.29634 0.2794,0 0.524933,0.0847 0.245534,0.0762 0.296334,0.0762 z"
         id="path4030" />
      <path
         d="m 23.053565,111.16177 h -0.4572 q -0.7112,0 -0.956734,0.19473 -0.237067,0.19474 -0.389467,0.889 h -0.2032 l 0.0508,-1.43933 h 4.775202 l 0.0508,1.43933 h -0.2032 q -0.143933,-0.70273 -0.389467,-0.889 -0.237066,-0.19473 -0.956733,-0.19473 h -0.457201 v 4.32647 q 0,0.46566 0.143934,0.60113 0.143933,0.13547 0.668867,0.16087 v 0.16086 h -2.472268 v -0.16086 q 0.524934,-0.0339 0.6604,-0.16934 0.135467,-0.14393 0.135467,-0.6858 z"
         id="path4032" />
      <path
         d="m 28.514573,113.34617 q -0.127,0 -0.313267,-0.14393 -0.186266,-0.1524 -0.245533,-0.1524 -0.169334,0 -0.381,0.24553 -0.211667,0.24553 -0.211667,0.44873 v 1.905 q 0,0.36407 0.143933,0.49107 0.143934,0.127 0.575734,0.14393 v 0.127 h -2.032001 v -0.127 q 0.4064,-0.0762 0.499534,-0.16933 0.1016,-0.0931 0.1016,-0.41487 v -2.11666 q 0,-0.2794 -0.06773,-0.38947 -0.05927,-0.11853 -0.220133,-0.11853 -0.135467,0 -0.296334,0.0339 v -0.13546 q 0.677334,-0.22014 1.253068,-0.4572 l 0.04233,0.0169 v 0.77893 q 0.313267,-0.44873 0.5334,-0.61806 0.220134,-0.1778 0.4826,-0.1778 0.220134,0 0.338667,0.11853 0.127,0.11853 0.127,0.3302 0,0.1778 -0.09313,0.2794 -0.08467,0.1016 -0.237067,0.1016 z"
         id="path4034" />
      <path
         d="m 29.623699,114.06584 q 0.01693,0.5334 0.143933,0.92286 0.127,0.381 0.330201,0.57574 0.2032,0.18626 0.4064,0.27093 0.211666,0.0762 0.440267,0.0762 0.4064,0 0.702733,-0.2032 0.3048,-0.2032 0.6096,-0.6858 l 0.135467,0.0593 q -0.262467,0.6858 -0.728133,1.04986 -0.465667,0.36407 -1.066801,0.36407 -0.728134,0 -1.159934,-0.508 -0.423333,-0.51647 -0.423333,-1.38853 0,-0.9398 0.491067,-1.50707 0.499533,-0.57573 1.278467,-0.57573 0.643467,0 0.999067,0.38946 0.3556,0.381 0.448733,1.15994 z m 0.01693,-0.27094 h 1.727201 q -0.08467,-0.55033 -0.262467,-0.762 -0.1778,-0.21166 -0.567267,-0.21166 -0.762,0 -0.897467,0.97366 z"
         id="path4036" />
      <path
         d="m 32.891836,114.23517 h 2.0828 v 0.5334 h -2.0828 z"
         id="path4038" />
      <path
         d="m 36.735705,110.6453 v 2.5908 q 0.127,-0.31326 0.457201,-0.51646 0.3302,-0.2032 0.719667,-0.2032 0.635,0 1.058333,0.5334 0.4318,0.52493 0.4318,1.30386 0,0.90594 -0.575733,1.524 -0.567267,0.61807 -1.405467,0.61807 -0.508001,0 -0.956734,-0.16933 -0.440267,-0.1778 -0.440267,-0.37254 v -4.3942 q 0,-0.26246 -0.08467,-0.34713 -0.0762,-0.0847 -0.3302,-0.0847 -0.09313,0 -0.143933,0.008 v -0.13547 q 0.651933,-0.16086 1.227667,-0.37253 z m 0,3.03954 v 2.1336 q 0,0.16086 0.245534,0.28786 0.245533,0.11854 0.575733,0.11854 0.524934,0 0.812801,-0.38947 0.287866,-0.38947 0.287866,-1.0922 0,-0.77047 -0.296333,-1.22767 -0.287867,-0.46566 -0.7874,-0.46566 -0.3302,0 -0.584201,0.19473 -0.254,0.19473 -0.254,0.44027 z"
         id="path4040" />
      <path
         d="m 42.078173,113.34617 q -0.127,0 -0.313267,-0.14393 -0.186266,-0.1524 -0.245533,-0.1524 -0.169333,0 -0.381,0.24553 -0.211667,0.24553 -0.211667,0.44873 v 1.905 q 0,0.36407 0.143933,0.49107 0.143934,0.127 0.575734,0.14393 v 0.127 h -2.032001 v -0.127 q 0.4064,-0.0762 0.499534,-0.16933 0.1016,-0.0931 0.1016,-0.41487 v -2.11666 q 0,-0.2794 -0.06773,-0.38947 -0.05927,-0.11853 -0.220133,-0.11853 -0.135467,0 -0.296333,0.0339 v -0.13546 q 0.677333,-0.22014 1.253067,-0.4572 l 0.04233,0.0169 v 0.77893 q 0.313267,-0.44873 0.5334,-0.61806 0.220134,-0.1778 0.4826,-0.1778 0.220134,0 0.338667,0.11853 0.127,0.11853 0.127,0.3302 0,0.1778 -0.09313,0.2794 -0.08467,0.1016 -0.237067,0.1016 z"
         id="path4042" />
      <path
         d="m 44.448833,112.51644 q 0.8128,0 1.337734,0.54186 0.524933,0.54187 0.524933,1.3716 0,0.88054 -0.541867,1.4732 -0.541866,0.59267 -1.337733,0.59267 -0.795867,0 -1.329268,-0.56727 -0.524933,-0.57573 -0.524933,-1.43086 0,-0.87207 0.516467,-1.4224 0.524933,-0.5588 1.354667,-0.5588 z m -1.109134,1.56633 q 0,0.90593 0.3302,1.54093 0.3302,0.635 0.863601,0.635 0.474133,0 0.745067,-0.4064 0.270933,-0.4064 0.270933,-1.12606 0,-0.87207 -0.338667,-1.4224 -0.338667,-0.55034 -0.872067,-0.55034 -0.448733,0 -0.728133,0.36407 -0.270934,0.36407 -0.270934,0.9652 z"
         id="path4044" />
      <path
         d="m 46.734826,114.6077 q 0,-0.9398 0.550334,-1.51553 0.5588,-0.57573 1.303867,-0.57573 0.5334,0 0.9144,0.26246 0.389467,0.254 0.389467,0.6096 0,0.14394 -0.118533,0.254 -0.118534,0.1016 -0.287867,0.1016 -0.287867,0 -0.397934,-0.38946 l -0.0508,-0.18627 q -0.06773,-0.23707 -0.169333,-0.32173 -0.1016,-0.0847 -0.3302,-0.0847 -0.516467,0 -0.8382,0.41487 -0.313267,0.4064 -0.313267,1.05833 0,0.72813 0.364067,1.1938 0.372533,0.4572 0.948267,0.4572 0.364066,0 0.626533,-0.16933 0.262467,-0.1778 0.567267,-0.62654 l 0.118534,0.0762 q -0.08467,0.16934 -0.152401,0.2794 -0.05927,0.11007 -0.2286,0.3302 -0.160866,0.22014 -0.321733,0.3556 -0.160867,0.13547 -0.423334,0.254 -0.262466,0.11007 -0.541866,0.11007 -0.702734,0 -1.159934,-0.52493 -0.448734,-0.5334 -0.448734,-1.36314 z"
         id="path4046" />
      <path
         d="m 50.197693,111.13637 v -0.13547 q 0.719667,-0.1778 1.312334,-0.37253 l 0.03387,0.0169 v 3.556 l 1.159934,-1.03293 q 0.194734,-0.16933 0.194734,-0.28787 0,-0.0847 -0.09313,-0.11853 -0.08467,-0.0339 -0.3302,-0.0423 v -0.11854 h 1.727201 v 0.127 q -0.194734,0 -0.313267,0.0254 -0.110067,0.0169 -0.321734,0.11007 -0.211666,0.0931 -0.499533,0.32173 -0.2794,0.2286 -0.694267,0.6096 l -0.245533,0.2286 1.2954,1.64254 q 0.262467,0.32173 0.4826,0.46566 0.2286,0.13547 0.508,0.1524 v 0.127 H 52.56836 v -0.127 q 0.338667,0 0.338667,-0.127 0,-0.0339 -0.0254,-0.0762 -0.0254,-0.0508 -0.08467,-0.11006 -0.0508,-0.0677 -0.06773,-0.1016 l -1.185334,-1.58327 v 1.4478 q 0,0.3048 0.09313,0.38947 0.1016,0.0847 0.541867,0.16086 v 0.127 h -1.981201 v -0.127 q 0.4572,-0.0762 0.541867,-0.1524 0.09313,-0.0847 0.09313,-0.41486 v -4.08094 q 0,-0.3048 -0.0762,-0.4064 -0.0762,-0.11006 -0.287867,-0.11006 -0.118533,0 -0.270933,0.0169 z"
         id="path4048" />
    </g>
  </g>
  <metadata
     id="metadata735">
    <rdf:RDF>
      <cc:Work
         rdf:about="">
        <cc:license
           rdf:resource="http://creativecommons.org/licenses/by-sa/4.0/" />
      </cc:Work>
      <cc:License
         rdf:about="http://creativecommons.org/licenses/by-sa/4.0/">
        <cc:permits
           rdf:resource="http://creativecommons.org/ns#Reproduction" />
        <cc:permits
           rdf:resource="http://creativecommons.org/ns#Distribution" />
        <cc:requires
           rdf:resource="http://creativecommons.org/ns#Notice" />
        <cc:requires
           rdf:resource="http://creativecommons.org/ns#Attribution" />
        <cc:permits
           rdf:resource="http://creativecommons.org/ns#DerivativeWorks" />
        <cc:requires
           rdf:resource="http://creativecommons.org/ns#ShareAlike" />
      </cc:License>
    </rdf:RDF>
  </metadata>
</svg>
