<?xml version="1.0" encoding="UTF-8" standalone="no"?>
<svg
   width="1600"
   height="1000"
   xml:space="preserve"
   version="1.1"
   id="svg1022"
   sodipodi:docname="Flag_of_Utah_(2011–2024).svg"
   inkscape:version="1.2.2 (b0a8486541, 2022-12-01)"
   xmlns:inkscape="http://www.inkscape.org/namespaces/inkscape"
   xmlns:sodipodi="http://sodipodi.sourceforge.net/DTD/sodipodi-0.dtd"
   xmlns="http://www.w3.org/2000/svg"
   xmlns:svg="http://www.w3.org/2000/svg"><defs
     id="defs1026"><inkscape:path-effect
       effect="spiro"
       id="path-effect3248"
       is_visible="true"
       lpeversion="1" /><inkscape:path-effect
       effect="spiro"
       id="path-effect3244"
       is_visible="true"
       lpeversion="1" /><inkscape:path-effect
       effect="spiro"
       id="path-effect3232"
       is_visible="true"
       lpeversion="1" /></defs><sodipodi:namedview
     id="namedview1024"
     pagecolor="#ffffff"
     bordercolor="#000000"
     borderopacity="0.25"
     inkscape:showpageshadow="2"
     inkscape:pageopacity="0.0"
     inkscape:pagecheckerboard="0"
     inkscape:deskcolor="#d1d1d1"
     showgrid="false"
     inkscape:zoom="0.4896214"
     inkscape:cx="837.38169"
     inkscape:cy="472.8143"
     inkscape:window-width="1280"
     inkscape:window-height="731"
     inkscape:window-x="0"
     inkscape:window-y="0"
     inkscape:window-maximized="1"
     inkscape:current-layer="svg1022" /><path
     id="path2"
     style="fill:#012d6a;fill-rule:evenodd"
     d="M 0,0 V 1000 H 1600 V 0 Z m 543.47656,332.35547 c 0.28221,-0.0141 0.56213,-0.0137 0.83985,0.002 5.71309,0.32149 10.31214,6.87152 6.98632,17.52539 -0.54479,1.74518 -0.26042,0.84493 -0.84961,2.69922 -0.81279,2.41846 -1.72331,4.8049 -3.06445,6.98828 -0.36852,0.60723 -0.75069,1.20698 -1.14062,1.80078 0.0331,1.18116 0.0291,2.36607 -0.13477,3.53907 -0.21467,1.37073 -0.52492,2.71904 -0.85547,4.0664 -0.36306,1.53553 -0.73271,3.07111 -1.08398,4.60938 -0.23272,0.83561 -0.17745,1.74116 -0.35938,2.58594 -0.28057,2.23827 -0.56444,4.47739 -0.83593,6.71679 -0.24536,1.98838 -0.57879,3.96349 -1.00391,5.92188 -0.47518,2.1832 -0.95447,4.38058 -1.82617,6.44726 -0.60083,1.44217 -1.24926,2.86808 -2.08985,4.18946 -0.57924,0.90332 -1.18246,1.79178 -1.84765,2.63476 -0.86106,1.09195 -1.74813,2.16312 -2.69141,3.18555 -0.79632,0.85972 -1.60421,1.71429 -2.45508,2.52148 0.03,0.21642 0.0509,0.43446 0.084,0.65039 0.0158,0.0944 0.0314,0.18871 0.0469,0.28321 0.60112,0.91003 1.29527,1.75616 2.01172,2.57617 0.91071,1.01483 1.98481,1.83219 3.13867,2.5625 1.6138,1.01792 3.31568,1.87737 5.10352,2.55078 1.78289,0.67179 3.59041,1.28891 5.45508,1.68945 0.039,-0.0289 0.0709,-0.0642 0.11132,-0.0918 0.15413,0.0793 0.29519,0.14058 0.44727,0.21679 0.019,0.004 0.0377,0.008 0.0566,0.0117 1.21607,0.24019 0.26804,0.0554 1.18945,0.22852 0.0729,0.0137 0.27365,-0.007 0.21875,0.043 -0.0412,0.0375 -0.38288,0.0739 -0.65234,0.10937 11.16277,5.32863 16.51545,2.49367 14.92188,9.61524 -0.14211,0.59176 -0.30787,1.17572 -0.49805,1.7539 -0.34172,1.08157 -0.69281,2.16003 -1.05078,3.23633 -0.51759,1.59004 -1.00137,3.19093 -1.3418,4.83008 -0.5762,2.48162 -1.22771,4.95919 -2.33203,7.26758 -1.34817,2.6423 -3.36179,5.72806 -6.42383,6.59961 -0.82684,0.23533 -1.52188,0.40247 -2.15234,0.5332 -0.55328,0.56003 -1.1331,1.09708 -1.75586,1.58984 -0.56507,0.40276 -0.49187,0.35422 -0.92774,0.63672 -1.02048,0.81222 -1.84488,1.4115 -3.13672,1.74414 -0.24116,1.36419 -0.48691,2.73047 -0.88867,4.0586 -0.4694,1.57129 -0.98977,3.12565 -1.55273,4.66601 -0.53962,1.48135 -1.07828,2.96158 -1.61133,4.44531 -0.65594,1.77481 -1.32172,3.54629 -2.01562,5.30664 -0.82857,2.09203 -1.64055,4.19394 -2.59571,6.23243 -0.34733,0.69527 -0.70627,1.38467 -1.06836,2.07226 -0.735,1.81076 -1.45252,3.62978 -2.78906,5.10938 -0.64422,0.59529 -1.21856,1.27631 -1.93164,1.78711 -2.54874,1.82573 -5.64926,2.45455 -8.71289,2.01171 -2.60034,-0.45041 -5.03311,-1.34481 -7.08203,-3.06445 -1.34112,-1.31695 -1.85902,-1.65248 -2.81836,-3.39453 -1.37619,-2.49901 -1.70877,-5.33318 -1.23438,-8.11328 0.34396,-1.67528 0.77692,-3.3307 1.24805,-4.97461 0.0564,-0.19624 0.11061,-0.39389 0.16797,-0.58984 0.13206,-1.12769 0.33711,-2.24334 0.75391,-3.3125 0.53113,-1.42631 1.13253,-2.82424 1.71875,-4.22852 0.0531,-0.12711 0.10711,-0.25372 0.16015,-0.38086 -0.0558,-1.43367 -0.12534,-2.86633 -0.20312,-4.29883 -0.18181,-2.82064 -0.44147,-5.63334 -0.91797,-8.42187 -0.33097,-3.29345 -0.20104,-6.58408 0,-9.88477 0.24683,-4.5425 0.57983,-9.08078 0.79687,-13.625 0.12503,-2.82831 0.22386,-5.65611 0.34961,-8.48437 0.0192,-0.43134 0.0589,-0.84163 0.0957,-1.25391 -0.99455,-1.8444 -1.58365,-3.85028 -1.99024,-5.91406 -0.38325,-2.20206 -0.61179,-4.42864 -0.75391,-6.65821 -0.16052,-2.52752 0.22294,-5.11745 1.47461,-7.35546 0.36518,-0.65296 0.84502,-1.23418 1.26758,-1.85157 1.16497,-1.45449 2.69309,-2.41011 4.31446,-3.25586 0.0668,-0.0348 -0.13839,0.0595 -0.20899,0.0859 -0.11408,0.0669 -0.22002,0.15242 -0.34375,0.19922 -0.0456,0.0173 0.0657,-0.0723 0.0996,-0.10742 0.086,-0.0892 0.17492,-0.17723 0.26172,-0.26563 0.4179,-0.42555 0.82473,-0.85794 1.22852,-1.29687 0.58281,-0.63529 1.1304,-1.30219 1.6621,-1.98047 0.22795,-0.31233 0.46866,-0.61946 0.66211,-0.95508 0.20219,-0.36121 0.35022,-0.75018 0.50586,-1.13281 0.36344,-0.9778 0.54013,-2.01928 0.75977,-3.03711 0.28856,-1.3534 0.53124,-2.7137 0.69336,-4.08789 0.27469,-2.26538 0.56193,-4.53064 0.8457,-6.79492 0.15538,-1.30484 0.33109,-2.60629 0.57031,-3.89844 0.38848,-1.81226 0.82942,-3.6124 1.25586,-5.41602 0.14903,-0.63702 0.301,-1.27398 0.44532,-1.91211 0.0288,-0.1272 0.0574,-0.25316 0.084,-0.38085 0.009,-0.043 0.0361,-0.17286 0.0234,-0.13086 -0.0195,0.0648 -0.0287,0.13313 -0.043,0.19921 -0.0458,0.30828 -0.0418,0.0215 -0.0488,-0.19531 -0.0506,-1.29251 0.0594,-2.58208 0.21875,-3.86328 0.22116,-1.99691 0.93311,-3.86198 1.83203,-5.64258 0.58088,-1.11572 1.31783,-2.1372 1.95899,-3.21679 0.56239,-0.9202 0.87787,-1.94163 1.20898,-2.95899 0.49503,-1.56543 0.24795,-0.77996 0.73828,-2.35156 2.42382,-7.76885 7.07359,-11.34583 11.30664,-11.55664 z m -12.5664,75.92578 c 0.002,0.0285 0.019,0.0534 0.0293,0.0801 0.0171,0.0279 0.0394,0.0523 0.0566,0.0801 -0.0348,-0.0628 -0.0879,-0.18172 -0.0859,-0.16016 z m 24.52734,28.7832 c -0.006,0.003 -0.0118,0.005 -0.0176,0.008 0.0201,0.10936 0.0221,0.32087 0.0781,0.25 0.0552,-0.0699 -0.0236,-0.16874 -0.0606,-0.25782 z m -8.02148,17.06641 c -0.10742,0.0843 -0.1824,0.14242 -0.28321,0.22266 0.0521,-0.0416 0.0655,-0.0414 0.16602,-0.1211 0.0389,-0.0334 0.15749,-0.13316 0.11719,-0.10156 z" /><path
     style="fill:#012d6a;fill-opacity:1;fill-rule:evenodd;stroke-width:0.385445"
     d="M 312.59552,546.04022 V 382.41901 h 155.41124 c 89.04327,0 155.25487,0.14429 155.04507,0.33788 -0.2014,0.18583 -2.5343,2.07144 -5.18423,4.19024 -10.11795,8.09 -23.40783,20.52392 -32.8562,30.74005 -10.48633,11.33844 -27.91524,35.067 -34.7522,47.31332 -1.41509,2.5347 -1.87805,2.97959 -2.33361,2.24248 -0.12212,-0.1976 -1.14333,-0.56545 -2.26936,-0.81745 -5.51175,-1.23347 -11.14578,3.4304 -13.5277,11.19828 -0.35753,1.16597 -1.77342,4.37479 -3.14643,7.13072 -2.38095,4.77912 -2.51205,5.18898 -2.83575,8.86523 -0.18667,2.11994 -0.6993,5.32877 -1.13919,7.13072 -0.43988,1.80195 -1.15173,6.05148 -1.58188,9.44339 -0.43015,3.39191 -1.12475,7.54505 -1.54355,9.22919 -0.8821,3.54719 -2.18244,5.33577 -6.28595,8.64616 -1.99103,1.6062 -2.84308,2.62971 -3.78941,4.55198 -1.09154,2.21723 -1.21961,2.83461 -1.20934,5.8295 0.0143,4.16394 0.72967,8.91203 1.72423,11.44396 0.90913,2.31446 0.9239,4.71495 0.11265,18.30766 -0.69736,11.68426 -0.69576,14.76749 0.0106,20.62224 0.83525,6.92251 0.75686,8.68957 -0.54547,12.29558 -1.90542,5.27594 -3.23728,11.62687 -2.95456,14.08871 0.78674,6.85071 7.18959,11.75582 14.48216,11.09455 4.59607,-0.41676 7.58567,-2.72002 10.10354,-7.78404 3.00061,-6.03493 8.13934,-19.47845 9.51268,-24.88626 0.64381,-2.53519 0.88186,-2.95695 2.02711,-3.59152 0.71369,-0.39546 2.03045,-1.31611 2.92613,-2.0459 0.89569,-0.7298 2.47594,-1.57856 3.51167,-1.88614 3.78467,-1.12392 6.81089,-5.64925 8.75246,-13.08821 0.55331,-2.11994 1.51308,-5.46093 2.13283,-7.42441 1.722,-5.45564 1.51146,-7.34031 -0.98048,-8.77695 -0.62267,-0.35898 -0.64631,-0.60535 -0.24036,-2.50539 0.65536,-3.06743 1.95008,-4.7863 4.6207,-6.13442 1.28308,-0.6477 3.68448,-2.48585 5.53088,-4.23363 3.40885,-3.22675 5.59269,-6.14184 9.35045,-12.48142 2.22788,-3.75856 2.28168,-3.81286 8.44348,-8.52132 3.41073,-2.60626 8.51294,-6.58455 11.33826,-8.84065 2.82534,-2.25609 5.25848,-4.10199 5.407,-4.10199 0.32665,0 7.36895,-7.23382 10.84825,-11.14327 4.43769,-4.98635 5.56489,-5.97921 8.68829,-7.65279 1.68727,-0.90408 6.45004,-4.14934 10.58393,-7.21168 8.02287,-5.94325 13.0748,-8.86238 17.73045,-10.2451 3.85581,-1.14517 4.7155,-1.61594 7.80201,-4.27242 4.94361,-4.25483 9.94309,-6.18968 21.77276,-8.42625 8.29223,-1.56777 8.23989,-1.58576 8.89647,3.05706 0.56872,4.02158 2.48667,8.24232 4.73839,10.42754 1.90754,1.85119 4.95063,3.49686 8.22802,4.44963 3.62068,1.05255 4.70466,0.53528 7.4372,-3.54897 2.61443,-3.90775 3.87344,-4.74909 7.10663,-4.74909 6.33825,0 19.03892,6.40183 27.23212,13.72648 3.1455,2.81203 3.57345,3.69363 2.39962,4.94311 -0.4813,0.51234 -1.85414,1.32005 -3.05079,1.79493 -6.0334,2.39434 -9.03548,4.5319 -10.44023,7.43368 -1.04355,2.15575 -1.05354,4.31278 -0.0224,4.86458 0.44211,0.23662 0.77089,0.80705 0.77089,1.33753 0,2.18745 2.12353,5.09503 4.66986,6.39407 1.98481,1.01258 2.14257,0.96757 2.44445,-0.69723 0.27798,-1.53306 1.7515,-4.88921 2.59527,-5.91112 0.28076,-0.34003 1.4026,-0.71678 2.52829,-0.84909 l 2.02358,-0.23784 v 1.35004 c 0,1.78433 0.76334,3.17965 2.6933,4.92329 2.34851,2.12173 4.2447,2.74865 4.2447,1.40338 0,-1.09658 1.34478,-4.48557 2.38776,-6.01735 l 0.88852,-1.30496 3.71761,-0.003 3.71758,-0.003 0.18944,1.44542 c 0.10423,0.79498 0.29845,1.79231 0.43166,2.2163 0.2061,0.65606 -0.14276,0.94191 -2.34219,1.91896 -6.59106,2.92797 -15.13991,8.86443 -20.95431,14.551 -3.07041,3.00289 -6.8537,7.26985 -7.57309,8.54126 -0.27151,0.47985 -0.85396,0.48219 -4.36054,0.0175 -5.25692,-0.69661 -14.25428,-0.69481 -18.8884,0.004 -4.13393,0.6232 -9.27133,2.14185 -12.13988,3.58867 -5.10371,2.57417 -9.85638,6.97778 -11.90868,11.03408 -1.02142,2.0188 -1.19534,2.16526 -3.25768,2.74327 -21.1943,5.94017 -33.48828,15.2277 -37.50138,28.33054 -0.69977,2.28478 -0.88788,3.8201 -0.89723,7.32344 -0.007,2.43794 0.10656,4.95947 0.25124,5.60341 0.24607,1.09513 0.14643,1.23187 -1.54178,2.11584 -3.73023,1.95319 -9.99316,6.42256 -12.92913,9.22652 -4.88504,4.66539 -7.91122,9.49913 -9.28941,14.83803 -1.28609,4.98207 -0.49602,12.82461 1.73191,17.19172 0.41724,0.81785 0.75862,1.5654 0.75862,1.6612 0,0.0958 -0.73717,0.28935 -1.63814,0.43008 -3.2232,0.50347 -10.2896,2.48297 -13.06966,3.66118 -12.36678,5.24113 -18.75248,14.22068 -18.81243,26.45397 -0.0159,3.25028 0.81882,8.34375 1.86484,11.37892 l 0.74928,2.17413 -2.95192,2.33517 c -4.08967,3.2352 -9.97544,9.2928 -12.60623,12.97425 -2.38732,3.34075 -5.19852,8.77293 -6.22459,12.02802 l -0.64343,2.04074 H 443.769 312.59552 Z m 231.26673,-95.01208 c 0,-0.212 -0.17345,-0.38545 -0.38545,-0.38545 -0.21199,0 -0.38544,0.17345 -0.38544,0.38545 0,0.21199 0.17345,0.38544 0.38544,0.38544 0.212,0 0.38545,-0.17345 0.38545,-0.38544 z"
     id="path2233" /><g
     id="g964"
     transform="matrix(2,0,0,1.9937405,-829.7345,-444.99144)"><g
       id="g696"
       transform="matrix(1.9934569,0,0,1.9909206,-784.62495,-516.69318)"><path
         d="m 1452.199,876.775 c -0.301,0.067 -0.623,0.11 -0.973,0.11 h -99.96 v 50.47 h 119.927 v -19.829 z"
         style="fill:#68321e"
         transform="matrix(0.61495,0,0,0.61495,-31.106,0)"
         id="path624" /><path
         style="fill:#68321e"
         class="st97"
         d="m 1453.885,926.255 v 26.776 l -9.479,4.406 h -17.851 v -31.182"
         transform="matrix(0.61495,0,0,0.61495,-31.106,0)"
         id="path626" /><path
         style="fill:#ffffff"
         d="m 1440.219,927.355 h 4.408 v 26.692 h -4.408 z"
         transform="matrix(0.61495,0,0,0.61495,-31.106,0)"
         id="path628" /><g
         id="g636"><path
           style="fill:#68321e"
           d="m 1258.419,876.886 -18.897,30.593 v 19.829 h 119.927 v -50.422 z"
           transform="matrix(0.61495,0,0,0.61495,-31.106,0)"
           id="path630" /><path
           style="fill:#68321e"
           class="st97"
           d="m 1256.833,926.206 v 26.777 l 9.479,4.405 h 17.851 v -31.182"
           transform="matrix(0.61495,0,0,0.61495,-31.106,0)"
           id="path632" /><path
           style="fill:#ffffff"
           d="m 1243.854,907.563 h 115.595 v 4.745 h -115.595 z m 22.237,19.745 h 4.408 V 954 h -4.408 z"
           transform="matrix(0.61495,0,0,0.61495,-31.106,0)"
           id="path634" /></g><path
         style="fill:#ffffff"
         d="m 1350.267,907.563 h 115.597 v 4.745 h -115.597 z"
         transform="matrix(0.61495,0,0,0.61495,-31.106,0)"
         id="path638" /><g
         id="g694"><path
           d="m 1357.51,905.483 c 0,0 126.709,1.311 90.395,-53.757 0,0 6.41,-11.261 -8.271,-21.984 0,0 6.613,-15.108 -12.686,-18.005 0,0 6.678,-10.161 -8.68,-18.028 0,0 4.006,-12.612 -16.357,-17.614 0,0 -2.756,-9.36 -19.529,-6.642 0,0 -9.514,-14.772 -30.045,-12.671 l 3.256,148.703"
           style="fill:#933c06;fill-rule:evenodd"
           transform="matrix(0.61495,0,0,0.61495,-31.106,0)"
           id="path640" /><path
           id="path642"
           style="fill:#933c06;fill-rule:evenodd"
           transform="matrix(0.61495,0,0,0.61495,-31.106,0)"
           d="m 1356.3883,756.50908 c -17.9616,-0.10744 -26.3252,12.8759 -26.3252,12.8759 -16.773,-2.71799 -19.5268,6.64119 -19.5268,6.64119 -20.365,5.003 -16.3595,17.61355 -16.3595,17.61355 -15.356,7.86699 -8.6776,18.02963 -8.6776,18.02963 -19.301,2.89599 -12.6879,18.00482 -12.6879,18.00482 -14.679,10.72299 -8.2713,21.98313 -8.2713,21.98313 -36.312,55.06894 90.3961,53.75681 90.3961,53.75681 l 1.9191,0.003 3.2542,-148.70419 c -1.2832,-0.13125 -2.5236,-0.19687 -3.7211,-0.20404 z" /><path
           d="m 1381.74,770.405 c 0,0 -6.814,-8.85 -25.795,-9.833 v 15.077 c 0,0 21.252,0.492 25.795,-5.244 z m 18.981,7.867 c 0,0 -1.947,-11.615 -21.656,-2.612 0,0 -11.113,4.415 -23.119,3.595 l 0.813,11.473 c -10e-4,0 30.983,0.164 43.962,-12.456 z"
           style="fill:#fcb040;fill-rule:evenodd"
           transform="matrix(0.61495,0,0,0.61495,-31.106,0)"
           id="path644" /><path
           d="m 1415.688,792.408 c 0,0 2.189,-13.03 -13.385,-12.169 0,0 -9.004,12.538 -45.141,13.644 v 14.504 c 0,0 43.072,0.738 58.526,-15.979 z"
           style="fill:#fcb040;fill-rule:evenodd"
           transform="matrix(0.61495,0,0,0.61495,-31.106,0)"
           id="path646" /><path
           d="m 1417.998,795.972 c 0,0 -15.816,15.734 -60.836,16.225 v 17.456 c 0,0 41.125,0.162 65.623,-16.842 0,10e-4 10.869,-5.858 -4.787,-16.839 z"
           style="fill:#fcb040;fill-rule:evenodd"
           transform="matrix(0.61495,0,0,0.61495,-31.106,0)"
           id="path648" /><path
           d="m 1430.166,813.919 c 0,0 -24.902,17.945 -72.273,19.42 v 20.814 c 0,0 66.189,-3.278 79.492,-25.239 0,0 5.029,-6.884 -7.219,-14.995 z"
           style="fill:#fcb040;fill-rule:evenodd"
           transform="matrix(0.61495,0,0,0.61495,-31.106,0)"
           id="path650" /><path
           d="m 1439.656,832.603 c 0,0 -20.928,24.337 -81.764,23.846 v 20.157 c 0,0 61.322,0.491 84.928,-22.001 0,-10e-4 9.735,-9.219 -3.164,-22.002 z"
           style="fill:#fcb040;fill-rule:evenodd"
           transform="matrix(0.61495,0,0,0.61495,-31.106,0)"
           id="path652" /><path
           d="m 1446.342,856.448 c 0,0 -26.639,23.601 -88.449,23.928 l -0.73,20.979 c 0,0 66.826,-2.951 89.18,-19.666 -10e-4,-10e-4 9.118,-8.852 -10e-4,-25.241 z m -115.218,-86.043 c 0,0 6.813,-8.85 25.796,-9.833 v 15.077 c 0,0 -21.253,0.492 -25.796,-5.244 z m -18.98,7.867 c 0,0 1.945,-11.615 21.656,-2.612 0,0 11.113,4.415 23.12,3.595 l -0.813,11.473 c 0,0 -30.985,0.164 -43.963,-12.456 z"
           style="fill:#fcb040;fill-rule:evenodd"
           transform="matrix(0.61495,0,0,0.61495,-31.106,0)"
           id="path654" /><path
           d="m 1297.177,792.408 c 0,0 -2.189,-13.03 13.385,-12.169 0,0 9.004,12.538 45.142,13.644 v 14.504 c -10e-4,0 -43.074,0.738 -58.527,-15.979 z"
           style="fill:#fcb040;fill-rule:evenodd"
           transform="matrix(0.61495,0,0,0.61495,-31.106,0)"
           id="path656" /><path
           d="m 1294.866,795.972 c 0,0 15.816,15.734 60.837,16.225 v 17.456 c 0,0 -41.126,0.162 -65.624,-16.842 0,10e-4 -10.869,-5.858 4.787,-16.839 z"
           style="fill:#fcb040;fill-rule:evenodd"
           transform="matrix(0.61495,0,0,0.61495,-31.106,0)"
           id="path658" /><path
           d="m 1282.698,813.919 c 0,0 24.902,17.945 72.274,19.42 v 20.814 c 0,0 -66.19,-3.278 -79.493,-25.239 0,0 -5.029,-6.884 7.219,-14.995 z"
           style="fill:#fcb040;fill-rule:evenodd"
           transform="matrix(0.61495,0,0,0.61495,-31.106,0)"
           id="path660" /><path
           d="m 1273.208,832.603 c 0,0 20.928,24.337 81.765,23.846 v 20.157 c 0,0 -61.323,0.491 -84.927,-22.001 0,-10e-4 -9.734,-9.219 3.162,-22.002 z"
           style="fill:#fcb040;fill-rule:evenodd"
           transform="matrix(0.61495,0,0,0.61495,-31.106,0)"
           id="path662" /><path
           d="m 1266.522,856.448 c 0,0 26.639,23.601 88.45,23.928 l 0.73,20.979 c 0,0 -66.825,-2.951 -89.181,-19.666 10e-4,-10e-4 -9.118,-8.852 10e-4,-25.241 z m 90.64,-62.565 c 0,0 -1.086,0.017 -2.189,-0.025 -1.103,-0.042 0,14.534 0,14.534 0,0 2.512,0.169 2.918,0 m -0.971,-17.664 c 0,0 -1.602,-0.006 -1.867,-0.011 -0.264,-0.006 0.021,-7.978 3.873,-3.922"
           style="fill:#fcb040;fill-rule:evenodd"
           transform="matrix(0.61495,0,0,0.61495,-31.106,0)"
           id="path664" /><path
           d="m 1359.111,880.366 c 0,0 -5.963,0.062 -7.425,0 -1.461,-0.063 2.976,20.936 2.976,20.936 0,0 1.883,0.104 4.205,-0.037 m 0.244,-44.811 c 0,0 -8.073,0.061 -9.597,0 -1.525,-0.061 3.265,20.137 3.265,20.137 0,0 6.412,0.023 7.953,-0.01 m -1.123,-43.304 c 0,0 -5.119,0.098 -8.286,-0.087 -3.168,-0.184 -2.109,11.457 -2.109,11.457 l 4.483,9.432 c 0,0 2.145,0.254 5.912,-0.029 m 0.844,-41.917 c 0,0 -6.107,0.107 -9.505,-0.048 -3.396,-0.154 1.104,15.723 1.104,15.723 l 2.92,1.846 c 0,0 2.133,0.031 3.957,-0.026"
           style="fill:#fcb040;fill-rule:evenodd"
           transform="matrix(0.61495,0,0,0.61495,-31.106,0)"
           id="path666" /><g
           id="g672"><path
             d="m 1443.588,880.12 c 0,0 10.326,-7.796 0,-21.016 0,0 -3.166,5.424 -45.807,21.693 0,10e-4 52.803,-15.083 45.807,-0.677 z m -6.164,-42.367 c 0,0 10.494,8.813 1,15.591 0,0 5.996,-12.034 -47.971,5.761 0,-10e-4 47.139,-20.336 46.971,-21.352 z m -6.912,-7.205 c 0,0 7.746,-5.678 -1.416,-14.32 0,0 -16.488,10.846 -42.473,17.456 0,0 42.057,-8.051 43.889,-3.136 z m -11.992,-18.813 c 0,0 6.871,-5.72 -0.625,-13.6 0,0 -21.236,12.075 -39.35,15.888 0,0 43.098,-12.328 39.975,-2.288 z m -11.077,-19.404 c 0,0 6.162,-9.151 -2.166,-11.864 0,0 -4.498,4.915 -35.979,14.745 10e-4,-10e-4 38.311,-11.355 38.145,-2.881 z m -13.457,-14.573 c 0,0 2.164,-5.726 -28.482,1.743 0,0 -2.666,3.236 28.482,-1.743 z m -38.283,-14.443 c 0,0 14.125,-2.087 17.77,7.881 0,0 -10.139,-0.232 -12.529,1.042 -10e-4,10e-4 4.669,-6.605 -5.241,-8.923 z"
             style="fill:#fdf8ee;fill-rule:evenodd"
             transform="matrix(0.61495,0,0,0.61495,-31.106,0)"
             id="path668" /><path
             d="m 1377.049,776.994 c 0,0 10.24,-4.506 15.9,-0.699"
             style="fill:#fdf8ee;fill-rule:evenodd"
             transform="matrix(0.61495,0,0,0.61495,-31.106,0)"
             id="path670" /></g><path
           d="m 1358.025,760.715 c 0,0 -1.621,-0.257 -4.469,0.124 -2.849,0.38 4.813,-0.596 4.813,-0.596"
           style="fill:#933c06;fill-rule:evenodd"
           transform="matrix(0.61495,0,0,0.61495,-31.106,0)"
           id="path674" /><path
           d="m 1352.922,763.378 c 0,0 -14.026,-2.072 -17.646,7.826 0,0 10.066,-0.231 12.441,1.035 10e-4,0 -4.636,-6.559 5.205,-8.861 z"
           style="fill:#bb823d;fill-rule:evenodd"
           transform="matrix(0.61495,0,0,0.61495,-31.106,0)"
           id="path676" /><g
           id="g680"><path
             d="m 1269.972,860.671 c 0,0 1,21.693 42.641,32.031 0,0 -30.814,-3.729 -45.639,-14.066 0,0 -2.166,-13.729 2.998,-17.965 z m 44.304,7.457 c 0,0 -41.348,-16.355 -43.473,-19.278 -2.123,-2.924 1,-8.39 3.998,-6.737 10e-4,-0.001 10.077,11.525 39.475,26.015 z m 3.832,-23.388 c 0,0 -40.975,-21.864 -31.814,-26.101 0,0 -9.16,-2.033 -7.994,10 0,10e-4 -1.498,-4.406 39.808,16.101 z m -20.82,-45.718 c 0,0 -8.869,6.61 36.102,24.533 0,0 -38.975,-15 -44.223,-13.348 0,10e-4 -0.998,-13.345 8.121,-11.185 z m 7.994,-15.126 c 0,0 8.496,10.169 29.732,22.117 0,0 -31.605,-14.363 -32.23,-15.507 -0.625,-1.143 -3.248,-10.041 2.498,-6.61 z m 38.311,0.341 c 0,0 -15.574,-5.424 -15.324,-10.677 0,0 -15.99,1.015 -4.498,5.93 11.494,4.915 13.908,4.323 19.822,4.747 z"
             style="fill:#bb823d;fill-rule:evenodd"
             transform="matrix(0.61495,0,0,0.61495,-31.106,0)"
             id="path678" /></g><path
           d="m 1357.588,882.226 c 0,0 -0.705,-0.011 -0.924,0.004 -0.219,0.015 0.502,0.707 1.002,0.707"
           style="fill:#923d05;fill-rule:evenodd"
           transform="matrix(0.61495,0,0,0.61495,-31.106,0)"
           id="path682" /><g
           id="g690"><path
             d="m 1365.658,903.188 c 0,0 2.873,-20.973 -8.496,-20.973 v 20.973 z m -16.991,0 c 0,0 -2.873,-20.973 8.495,-20.973 v 20.973 z"
             style="fill:#923d05;fill-rule:evenodd"
             transform="matrix(0.61495,0,0,0.61495,-31.106,0)"
             id="path684" /><path
             style="fill:#923d05;fill-rule:evenodd"
             d="m 1356.213,883.253 h 1.68 v 19.066 h -1.68 z"
             transform="matrix(0.61495,0,0,0.61495,-31.106,0)"
             id="path686" /><path
             style="fill:#923d05;fill-rule:evenodd"
             d="m 1355.703,883.253 2.19,-0.675 -0.096,1.861 z"
             transform="matrix(0.61495,0,0,0.61495,-31.106,0)"
             id="path688" /></g><path
           d="m 1381.641,851.653 c 0,0 -31.747,3.495 -56.444,-0.967 -24.699,-4.465 8.449,4.843 8.449,4.843 0,0 22.112,2.841 47.218,-0.169 25.105,-3.01 0.777,-3.707 0.777,-3.707 z"
           style="fill:#933c06;fill-rule:evenodd"
           transform="matrix(0.61495,0,0,0.61495,-31.106,0)"
           id="path692" /></g></g></g><path
     id="path20-2"
     style="fill:#904b2e;fill-rule:evenodd"
     d="m 578.31047,344.69292 c -24.518,11.54399 -55.0152,126.20648 -36.1582,117.27149 18.8579,-8.93399 18.3554,-32.83985 18.3554,-32.83985 10.977,-3.64799 32.1869,-29.19652 39.7168,-35.72851 7.52697,-6.533 19.81957,-41.3886 14.26957,-43.4336 -5.551,-2.04399 -36.18357,-5.26953 -36.18357,-5.26953 z" /><path
     style="fill:#012d6a;fill-opacity:1;fill-rule:evenodd;stroke-width:0.576795"
     d="m 543.59932,334.9428 c -7.55821,0.40592 -11.43863,8.13273 -13.41951,14.46157 -2.52812,5.33887 -5.27712,10.77823 -5.46377,16.85298 -1.80586,8.34653 -2.35534,16.97173 -4.65268,25.19225 -3.43155,5.27739 -10.79542,8.69396 -10.43414,15.86301 -0.5481,5.63394 1.65118,10.94983 2.30391,16.41138 -0.13414,12.64127 -1.80737,25.49836 -0.25358,38.09985 0.41918,4.05383 -0.24017,8.0601 -1.74489,11.89645 -1.66301,5.64054 -3.74955,12.73897 0.82675,17.63885 3.9696,5.712 12.3073,6.93932 18.23778,3.8393 5.84939,-4.61284 7.62383,-12.4377 10.61213,-18.93061 2.26322,-4.95988 3.28228,-10.47041 5.66657,-15.32226 4.00826,-3.8211 10.2646,-4.83125 12.98578,-10.0759 3.14703,-6.69181 4.78063,-14.0987 6.16901,-21.33917 -0.14131,-4.28604 -5.67842,-4.46292 -8.67447,-5.74205 -5.82209,-2.2681 -11.88094,-4.01514 -17.4965,-6.7582 -2.33318,-1.28703 -4.42824,-3.03604 -5.89864,-5.27677 6.0449,-5.26865 9.87342,-12.64252 10.98789,-20.56031 1.38084,-8.46509 2.74256,-16.98104 4.39646,-25.36665 3.23208,-7.74397 8.09207,-16.69335 4.30781,-25.12253 -1.5734,-3.18264 -4.6659,-6.07014 -8.45591,-5.76119 z"
     id="path2521" /><path
     id="path6"
     style="fill:#010001;fill-rule:evenodd"
     d="m 560.90039,342.3823 c 0,0 -10.49942,16.96641 -14.5384,25.11362 1.01327,0.84253 4.14453,2.0874 4.76778,3.47476 7.28593,-3.23039 19.55306,-27.78554 9.77062,-28.58838 z"
     sodipodi:nodetypes="cccc" /><path
     d="m 1055.52,367.63678 c 0,0 -9.399,-18.067 -15.774,-27.74 -6.374,-9.673 4.167,24.254 12.104,34.43"
     style="fill-rule:evenodd"
     id="path8" /><path
     d="m 1051.85,374.32678 c 0,0 -5.941,-14.269 -8.185,-7.373 -2.244,6.897 1.589,11.408 2.808,12.326 1.218,0.918 5.376,-4.953 5.376,-4.953 z"
     style="fill:#904b2e;fill-rule:evenodd"
     id="path10" /><path
     d="m 1040.534,348.97396 c 0,0 -5.4393,-5.64894 -7.6833,1.24706 -2.244,6.897 1.589,11.408 2.808,12.326 1.218,0.918 15.1605,23.26208 15.1605,23.26208 z m 10.7113,36.81484 z"
     style="fill:#904b2e;fill-rule:evenodd"
     id="path10-3"
     sodipodi:nodetypes="ccccc" /><path
     d="m 1039.7441,348.15277 c 0,0 -1.6847,-4.5847 -3.9287,2.3113 -2.244,6.897 1.589,11.408 2.808,12.326 1.218,0.918 17.4755,23.14626 17.4755,23.14626 z"
     style="fill:#904b2e;fill-rule:evenodd"
     id="path10-3-6"
     sodipodi:nodetypes="ccccc" /><path
     d="m 624.187,349.69978 c 0,0 -48.14891,-11.1145 -49.36891,19.8085 -1.22,30.923 37.45091,17.1915 44.64191,14.6585 7.193,-2.534 6.567,-40.572 4.727,-34.467 z m 398.826,-5.515 c 0,0 -30.634,3.226 -36.185,5.27 -5.55,2.045 6.743,36.901 14.27,43.434 7.53,6.532 28.741,32.08 39.718,35.728 0,0 -0.503,23.906 18.355,32.84 18.857,8.935 -11.64,-105.728 -36.158,-117.272 z"
     style="fill:#904b2e;fill-rule:evenodd"
     id="path20"
     sodipodi:nodetypes="cscccccccc" /><path
     id="path22"
     style="fill:#904b2e;fill-rule:evenodd"
     d="m 574.36719,349.70066 c -7.16021,-33.43426 -62.06421,109.74032 -31.73924,114.25732 2.55307,-4.2615 85.25824,-88.77816 67.55369,-99.99561 -2.13,-6.91099 -35.81445,-14.26171 -35.81445,-14.26171 z"
     sodipodi:nodetypes="cccc" /><path
     d="m 611.321,395.39978 c -0.78,-0.15 -1.25,-0.67 -1.594,-1.342 0.784,0.144 1.365,0.535 1.594,1.342 z"
     style="fill:#012d6a;fill-rule:evenodd"
     id="path32" /><path
     id="path38"
     style="fill:#483e4b;fill-rule:evenodd"
     d="m 551.82422,366.56784 c 0.16885,0.56065 0.30284,1.15372 0.40039,1.7793 0.002,8.8e-4 0.004,10e-4 0.006,0.002 0.09,-0.7065 -0.0647,-1.29034 -0.40625,-1.78125 z" /><path
     d="m 543.61,344.96978 -0.519,-0.532 c 0.119,0.021 0.282,0.004 0.345,0.075 0.1,0.114 0.136,0.286 0.198,0.433 z"
     style="fill:#fdc324;fill-rule:evenodd"
     id="path46" /><path
     d="m 839.914,402.68978 c 0.217,0.355 0.343,0.742 0.374,1.157 -0.74,0.008 -1.208,-0.38 -1.497,-1.03 0.439,-0.42 0.873,-0.415 1.302,0.016 l -0.18,-0.143 z"
     style="fill:#e5e8e8;fill-rule:evenodd"
     id="path70" /><path
     id="path224"
     style="fill:#020102;fill-opacity:1;fill-rule:evenodd"
     d="m 842.39453,220.13034 c -4.85937,0.2195 -9.69094,1.03261 -14.46094,2.72461 -6.12199,2.171 -10.81742,5.96835 -13.35742,11.90235 -2.695,6.29799 -3.67279,12.94583 -2.34179,19.79882 0.27081,1.40016 0.49363,2.81092 0.66601,4.22657 0.28,2.30999 -0.74933,3.34087 -3.11133,3.42187 -9.19199,0.32 -18.38232,0.719 -27.57031,1.125 -4.395,0.194 -4.81581,-0.49094 -5.25781,-4.58594 -0.872,-8.07999 -1.70971,-16.23439 -5.72071,-23.65039 -4.72599,-8.73699 -11.98544,-13.07125 -21.77343,-13.53125 -11.86199,-0.558 -23.12323,2.18357 -34.07422,6.35157 -19.92698,7.58599 -39.0853,16.83908 -57.48828,27.58007 -21.62598,12.62099 -41.84563,27.17447 -59.72461,44.81446 -7.57999,7.47799 -15.25051,14.88583 -21.8125,23.29882 -5.03,6.446 -9.82469,13.07721 -14.67969,19.65821 -1.484,2.013 -2.91801,4.1255 -0.66602,6.5625 1.857,4.42499 5.80948,4.55323 9.73047,4.74023 -0.073,-15.63698 10.8609,-25.19074 19.83789,-35.80273 1.002,-1.185 2.35535,-2.71625 4.15235,-1.40625 1.87,1.363 1.29751,3.21555 0.35351,4.93554 -0.59,1.075 -1.27537,2.09285 -1.98437,3.08985 -4.737,6.67199 -8.70416,13.80822 -12.66016,20.94922 -0.993,1.794 -2.00952,3.50976 -3.60351,4.88476 -4.665,4.026 -4.63733,4.05809 0.26367,7.95508 0.9018,0.72146 1.96544,1.21198 3.09961,1.42969 2.314,0.205 4.34237,1.03513 5.98437,2.70312 1.719,1.418 3.66988,2.25594 5.92188,2.33594 2.68999,0.046 5.11959,-1.11539 7.68359,-1.65039 6.115,-1.28 6.76497,-0.36449 6.41797,5.9375 -0.36,6.51299 -3.77392,12.40048 -3.41992,18.98047 0.573,1.65 1.57941,2.79875 3.4414,2.96875 3.223,-0.97 3.39071,-3.86816 3.84571,-6.41016 0.942,-5.24099 2.21367,-10.47253 2.51367,-15.76953 0.394,-6.96299 4.1618,-11.05327 10.2168,-14.32226 0.552,2.90999 -0.0272,5.27647 -0.65625,7.60546 -2.317,8.556 -5.71285,16.65017 -10.46485,24.16016 -1.511,2.387 -12.90016,4.77604 -11.65617,7.98304 0.704,1.141 11.06103,1.68126 12.41203,1.79626 2.989,-0.356 4.50033,-2.62533 6.11133,-4.73633 1.119,-1.467 2.1038,-3.08667 3.8418,-3.88867 11.73999,-5.424 19.98545,-16.75596 33.27343,-19.62696 1.703,-0.36699 3.43008,-1.57026 4.70508,-2.82226 7.73299,-7.59399 17.92223,-8.23752 27.69922,-10.22852 3.154,-0.641 4.05625,0.37958 4.15625,3.26758 0.09,2.69 1.00031,5.22105 2.19531,7.62305 2.404,4.83299 6.89274,6.96333 11.67774,8.23633 4.57299,1.216 5.64056,-3.17755 7.60156,-5.81055 2.546,-3.414 5.78624,-3.35953 9.36523,-2.39453 9.297,2.507 17.27704,7.40911 24.45704,13.66211 3.94199,3.43199 3.69157,4.78953 -1.10743,6.76953 -4.18199,1.726 -8.54162,3.10502 -10.64062,7.66602 -0.773,1.86999 -0.92153,3.40259 -0.14453,4.43359 1.474,0.13 2.94978,0.24375 4.42578,0.34375 1.539,-1.158 2.8515,-0.889 4.0625,0 l 0.01,0.002 c 4.048,-0.244 8.08734,-0.56544 12.11133,-0.14844 h 1.17383 c 0.274,-0.251 0.57064,-0.3 0.93164,0 h 14.43555 c 0.73,-0.552 1.30959,-0.452 1.80859,0 h 12.01563 c 0.076,0 0.14089,0.0165 0.21289,0.0215 3.405,-2.74571 14.91805,-1.38317 22.49804,-1.45117 3.218,-0.029 6.28407,0.29008 9.16407,1.33007 l 0.0273,-0.002 h 7.38086 c 0.415,-0.438 0.91081,-0.74954 1.63281,-0.68555 0.303,0.18 0.48175,0.41755 0.59375,0.68555 h 13.26367 c 0.272,-0.227 0.53707,-0.47372 0.78907,-0.76172 0.199,0.21 0.33154,0.47472 0.43554,0.76172 h 15.98633 c 0.16,-0.208 0.39433,-0.39926 0.73633,-0.57226 0.7,-0.35 1.19988,0.0388 1.67188,0.55078 0.71499,-0.932 2.07381,-1.29675 3.13281,-0.71875 0.38206,-0.0969 0.78372,-0.0936 1.16406,0.01 0.054,0.015 0.10134,0.0415 0.15234,0.0605 0.857,-0.255 1.72697,-0.35447 2.66797,-0.35547 0.156,0 0.30799,0.0198 0.45899,0.0488 -0.044,-0.805 -0.20199,-1.79444 -0.45899,-3.02344 -1.448,-2.39 -3.80689,-3.63639 -6.08789,-5.02539 -5.06199,-3.084 -5.81884,-6.85285 -2.33984,-11.71484 1.793,-2.506 4.07784,-4.60393 6.33984,-6.66992 7.82999,-7.15 14.05299,-15.42987 17.83399,-25.38086 1.395,-3.67 2.94373,-3.09605 5.92773,-1.49805 9.57199,5.12999 19.86448,8.82641 30.48047,10.69141 9.58399,1.68399 17.28865,6.85033 25.18164,11.48632 8.02199,4.71 15.8297,10.01301 23.92969,14.5 6.03299,3.342 12.40327,6.02432 17.82226,10.44532 3.254,2.65299 6.77824,3.8016 10.74024,1.47461 0.81,-0.51 1.45067,-1.18107 1.88867,-2.03907 1.33995,-3.24999 -0.96161,-5.4278 -2.34961,-7.84179 -4.73799,-8.234 -8.19649,-16.91029 -9.64648,-26.36329 -0.62,-4.04399 1.23227,-5.03948 4.82226,-4.89648 3.534,0.14 4.39374,2.39733 4.80274,5.23633 1.08,7.49899 7.12374,11.15026 14.16214,18.4668 12.9043,16.69565 6.6243,10.69745 10.3183,10.68945 4.294,-4.79 -10.5207,-11.94698 -11.1367,-18.04297 -0.323,-1.194 -1.1688,-2.16999 -1.4668,-3.33398 -0.99,-3.874 -4.0153,-7.7706 -2.5684,-11.5586 1.152,-3.013 5.9587,-1.53414 8.6407,-3.36914 3.396,-2.323 4.6689,-1.31485 5.4609,2.61914 1.49,7.40699 15.2657,21.07549 8.6387,5.17578 0.54,-0.20026 1.065,-0.4384 1.5703,-0.71484 1.233,-0.749 2.5604,-1.40385 2.7344,-3.08984 2.769,-2.66 7.0899,-2.86763 9.8379,-5.89063 -7.204,-12.74699 -15.5951,-24.3161 -25.1641,-34.99609 -11.237,-12.53999 -24.07959,-23.33967 -37.39258,-33.59766 -5.00999,-3.862 -9.60757,-8.37977 -14.97656,-11.63477 -17.14998,-10.39798 -34.73377,-20.06208 -52.96875,-28.45507 -18.02998,-8.29799 -36.28665,-16.06524 -56.14063,-18.86524 -4.88049,-0.688 -9.76758,-1.06325 -14.62695,-0.84375 z"
     sodipodi:nodetypes="sccccccscccccccccccsccccccccccccccccccccccccccccccccccccccccscsccccccccccccccscccscccccscccccccccccccccccccccccss" /><path
     id="path226"
     style="fill:#020102;fill-rule:evenodd"
     d="m 1006.3984,360.65911 c -1.398,2.88498 23.0639,36.84102 23.6739,39.54101 1.773,7.85398 3.3468,15.73019 4.0488,23.57617 -3.233,-2.86999 -6.6152,-5.41881 -9.5352,-8.4668 -1.43,-1.49099 -30.60681,-39.29993 -31.46481,-37.21093 -0.511,3.80199 26.31921,45.67317 30.36521,48.32617 0.856,0.557 1.6622,1.22239 2.5782,1.65039 5.6818,2.652 8.5659,6.97431 10.3359,13.1543 3.204,11.19697 8.9443,21.0829 19.7363,26.96289 1.819,0.991 2.3174,2.54539 2.8574,4.40039 2.313,7.94198 6.0512,15.25136 11.7012,21.27734 3.362,3.585 6.8509,7.4463 12.3789,8.9043 1.542,-8.38498 2.5186,-16.4347 2.8086,-24.55469 0.364,-10.22098 -0.8024,-20.33233 -2.2324,-30.44531 -4.024,-28.46394 -14.5028,-54.66204 -27.6348,-79.95898 -0.646,-1.244 -1.2052,-2.68932 -3.0722,-2.44532 -3.027,0.512 -3.7765,2.60099 -3.6465,5.29297 0.29,1.643 1.048,3.09913 1.75,4.57812 13.248,27.92695 22.828,56.97541 26.498,87.77735 0.844,7.09098 2.2587,14.16502 1.7227,21.375 -0.122,1.636 -0.2229,3.56617 -2.0899,4.07617 -1.833,0.501 -2.9932,-1.02524 -3.9492,-2.36523 -4.5,-6.31799 -6.9277,-13.40287 -7.7207,-21.08985 -1.429,-13.86797 -4.1329,-27.52272 -7.2129,-41.0957 -0.6,-2.64399 -0.2514,-6.34492 -4.4004,-6.91992 -2.007,2.47499 -0.8247,5.09291 -0.2597,7.6289 1.914,8.60398 3.6167,17.24168 3.5507,26.09766 -0.013,2.053 1.0128,5.15781 -1.8632,5.75781 -2.416,0.503 -3.6807,-2.20059 -4.8887,-4.05859 -3.433,-5.28199 -4.3003,-11.43869 -5.7793,-17.38867 -3.6,-14.48398 -7.2371,-28.95707 -12.4941,-42.95703 -0.893,-0.574 -24.8118,-31.89392 -25.7618,-31.41992 z M 555.4375,463.94426 c -0.006,0.003 -0.0118,0.005 -0.0176,0.008 0.0201,0.10936 0.0221,0.32087 0.0781,0.25 0.0552,-0.0699 -0.0236,-0.16873 -0.0606,-0.25781 z" /><path
     d="m 727.994,337.70778 c -2.798,-3.193 -0.546,-5.747 1.303,-8.05 2.442,-3.042 6.045,-4.067 9.8,-4.418 6.143,-0.575 12.263,0.167 18.383,0.532 7.76,0.462 15.514,1.049 23.262,1.684 4.781,0.392 8.851,-1.174 12.446,-4.164 1.41,-1.171 2.681,-2.508 4.018,-3.77 1.593,0.513 0.858,2.073 1.522,2.973 0.978,1.326 1.93,1.162 3.082,0.33 2.158,-1.56 2.816,-3.952 3.502,-6.3 1.152,-3.945 2.526,-7.783 4.971,-11.137 1.795,-2.464 4.077,-3.964 7.313,-3.54 2.298,0.303 3.178,1.592 2.871,3.81 -0.352,2.557 -1.905,4.51 -3.446,6.396 -2.667,3.269 -5.491,6.41 -8.546,9.95 4.123,1.053 6.651,-1.47 9.686,-2.465 0.522,2.093 -1.289,3.352 -1.591,5.086 -0.403,2.32 -0.536,4.531 1.476,6.204 1.721,1.43 3.067,-0.293 4.445,-0.81 3.835,-1.438 7.608,-2.942 11.826,-2.252 0.168,7.568 -2.144,9.12 -14.94,10.161 1.573,3.507 1.573,3.507 10.024,7.803 -1.206,5.5 -5.208,7.84 -10.17,9.387 -4.717,1.471 -9.766,0.705 -15.133,2.539 8.31,3.564 16.465,3.88 24.698,3.904 -3.585,5.58 -11.57,7.862 -30.364,8.545 3,2.545 6.372,1.885 9.225,2.719 3.116,0.91 6.401,1.243 10.715,2.028 -10.981,6.835 -22.24,5.676 -33.425,5.9 6.818,3.812 14.608,5.132 21.896,8.55 -18.888,4.936 -40.066,-1.162 -55.241,-15.679 0.65,-3.023 3.441,-3.198 5.608,-4.04 3.244,-1.26 4.283,-3.404 2.103,-6.065 -6.085,-7.43 -10.531,-16.565 -21.075,-19.393 -3.842,-1.032 -7.303,-3.512 -10.244,-6.418 z"
     style="fill:#ffffff;fill-rule:evenodd"
     id="path228" /><path
     d="m 771.214,250.23278 c -0.21,11.125 -4.505,21.096 -8.956,30.986 -1.674,3.721 -3.866,7.209 -5.809,10.809 -1.23,2.278 -3.107,3.433 -5.566,2.395 -2.356,-0.995 -2.123,-3.322 -1.764,-5.347 0.246,-1.382 0.942,-2.686 1.45,-4.02 3.13,-8.24 5.999,-16.522 5.87,-25.53 -0.166,-11.472 -6.56,-18.28 -18.093,-18.957 -7.856,-0.462 -15.465,1.02 -22.956,3.226 -16.2,4.77 -31.247,12.163 -45.793,20.575 -19.7,11.395 -38.336,24.354 -55.84,38.929 -2.498,2.08 -5.079,4.23 -8.43,4.836 -2.942,0.532 -4.467,-1.02 -3.615,-3.83 1.022,-3.378 2.893,-6.307 5.628,-8.632 20.626,-17.544 42.109,-33.913 66.354,-46.2 18.457,-9.353 37.567,-17.225 57.847,-21.761 6.538,-1.463 13.166,-2.466 20.034,-1.134 13.868,2.69 19.733,9.51 19.639,23.655 z m 45.352,-3.027 c -0.867,-13.617 7.492,-22.69 22.69,-23.942 11.406,-0.94 22.305,1.616 33.238,4.487 39.421,10.354 74.413,29.352 106.545,54.028 2.266,1.74 4.497,3.547 6.583,5.495 1.5,1.4 2.576,3.204 3.113,5.217 0.95,3.569 -0.716,5.29 -4.178,4.188 -2.944,-0.937 -5.493,-2.686 -7.989,-4.501 -21.412,-15.569 -44.033,-29.114 -68.087,-40.193 -14.523,-6.689 -29.456,-12.22 -45.381,-14.58 -5.482,-0.812 -10.928,-0.794 -16.455,0.173 -11.821,2.069 -16.218,11.977 -14.64,22.374 1.175,7.756 3.784,15.041 7.177,22.074 0.976,2.021 2.165,3.959 2.046,6.345 -0.077,1.51 -0.367,2.936 -1.916,3.535 -1.386,0.537 -2.85,0.474 -4.044,-0.565 -0.605,-0.526 -1.121,-1.191 -1.561,-1.869 -6.819,-10.508 -12.842,-21.39 -15.991,-33.651 -0.77,-2.996 -1.334,-5.988 -1.15,-8.615 z"
     style="fill:#904b2e;fill-rule:evenodd"
     id="path230" /><path
     d="m 741.362,360.14078 c -5.093,-2.511 -9.953,-5.515 -15.567,-6.906 -2.216,-0.55 -4.404,-0.883 -6.66,-0.773 -4.806,0.234 -7.932,2.623 -9.657,7.164 -1.14,3.002 -0.81,6.445 -2.575,9.19 -1.63,-0.244 -2.351,-1.317 -3.197,-2.17 -10.584,-10.678 -7.434,-22.68 7.065,-26.98 5.222,-1.55 10.516,-1.217 15.82,-0.616 14.03,4.395 26.032,11.511 33.404,24.862 1.421,2.574 0.403,4.294 -1.89,5.489 -2.535,1.32 -5.333,1.885 -8.095,2.525 -9.703,-4.066 -18.303,-10.081 -27.428,-15.2 6.387,-0.18 11.636,3.401 17.552,4.59 0.81,0.248 1.688,0.084 2.487,0.405 -0.096,-0.785 -0.891,-1.011 -1.259,-1.58 z"
     style="fill:#fec324;fill-rule:evenodd"
     id="path232" /><path
     d="m 958.697,300.40378 c 5.074,-1.747 8.153,0.21 11.02,2.622 3.62,3.046 6.479,6.752 9.036,10.725 3.771,5.854 6.721,12.13 9.607,18.435 0.835,1.824 1.72,3.718 1.526,5.856 -0.316,3.493 -2.908,4.903 -6.022,3.279 -1.49,-0.778 -2.717,-1.888 -3.536,-3.304 -7.126,-12.323 -14.2,-24.677 -21.63,-37.613 z"
     style="fill:#8f4a2d;fill-rule:evenodd"
     id="path234" /><path
     d="m 631.54,309.85778 c 0.474,1.246 -0.117,2.126 -0.56,3.017 -5.63,11.338 -11.294,22.657 -16.887,34.012 -1.213,2.464 -2.866,4.501 -5.194,5.87 -2.37,1.395 -4.447,0.414 -5.067,-2.29 -0.416,-1.815 -0.38,-3.733 0.273,-5.451 3.708,-9.73 7.398,-19.487 13.838,-27.858 2.002,-2.601 4.277,-4.946 7.304,-6.404 2.034,-0.98 4.08,-1.88 6.293,-0.896 z"
     style="fill:#8e492d;fill-rule:evenodd"
     id="path236" /><path
     d="m 577.73,356.27378 c -2.663,-0.068 -4.755,-1.668 -7.082,-2.636 a 262.39,262.39 0 0 0 -0.21,-1.34 c -1.957,-5.493 -0.385,-10.356 2.46,-15.115 4.855,-8.129 10.723,-15.45 17.415,-22.102 1.304,-1.295 2.326,-4.606 5.238,-2.03 3.064,2.711 3.188,4.249 0.965,7.788 a 4514.27,4514.27 0 0 0 -12.34,19.765 c -0.755,1.215 -1.549,2.434 -2.086,3.75 -1.61,3.946 -3.921,7.152 -8.297,8.19 0.769,2.132 3.673,1.45 3.936,3.73 z"
     style="fill:#8e4a2d;fill-rule:evenodd"
     id="path238" /><path
     d="m 1023.401,333.18978 c 0.05,5.087 -3,6.99 -7.28,4.977 -1.769,-0.833 -2.811,-2.313 -3.736,-3.916 -5.214,-9.03 -11.332,-17.436 -17.628,-25.724 -2.025,-2.667 -1.322,-6.253 1.53,-8.179 1.09,-0.736 1.903,-0.263 2.68,0.465 8.658,8.105 17.038,16.451 22.925,26.912 1.015,1.8 1.562,3.766 1.51,5.465 z m -408.672,-22.806 c -2.532,5.14 -4.593,9.256 -6.593,13.4 -3.822,7.916 -6.821,16.155 -9.062,24.64 -0.79,2.992 -2.606,5.015 -4.693,6.958 -1.734,1.615 -3.81,2.718 -6.07,1.26 -2.029,-1.31 -2.796,-3.502 -2.5,-5.88 0.199,-1.608 0.51,-3.279 1.173,-4.739 4.998,-10.994 10.443,-21.714 19.543,-30.053 2.191,-2.008 4.417,-3.937 8.202,-5.586 z"
     style="fill:#8e492d;fill-rule:evenodd"
     id="path240" /><path
     d="m 977.153,300.45278 c 9.156,3.99 15.369,11.177 20.744,19.119 2.96,4.372 5.284,9.173 7.95,13.749 1.402,2.406 1.783,4.987 1.416,7.668 -0.477,3.473 -2.919,4.895 -6.174,3.48 -3.32,-1.442 -5.736,-3.969 -6.847,-7.428 -4.137,-12.88 -10.228,-24.814 -17.09,-36.588 z"
     style="fill:#8e4a2d;fill-rule:evenodd"
     id="path242" /><path
     d="m 965.382,326.30378 c -0.054,3.721 -0.732,4.257 -3.665,3.224 -2.518,-0.886 -4.794,-2.21 -6.776,-4.052 -6.668,-6.196 -10.236,-14.077 -12.504,-22.694 -0.647,-2.459 0.318,-3.44 2.73,-3.34 6.252,0.264 10.712,3.68 14.183,8.457 4.083,5.617 5.17,12.293 6.032,18.405 z"
     style="fill:#8f4a2d;fill-rule:evenodd"
     id="path244" /><path
     d="m 627.31,334.00078 c 0.908,-7.014 2.37,-15.02 8.84,-21.031 2.773,-2.576 5.996,-4.263 9.765,-4.737 2.262,-0.286 3.496,0.422 2.946,3.105 -1.667,8.135 -4.58,15.69 -9.907,22.167 -1.701,2.068 -3.676,3.825 -6.11,5.043 -4.749,2.378 -5.643,1.858 -5.534,-4.547 z m 284.379,-21.803 c 6.068,-0.192 10.877,1.32 14.675,5.59 1.097,1.233 2.065,2.447 2.253,4.212 1.182,11.2 6.132,21.03 11.415,30.81 -9.601,-2.92 -23.876,-23.193 -28.343,-40.612 z m -256.999,49.229 c -0.584,-1.628 0.654,-2.726 1.194,-3.949 3.808,-8.617 6.791,-17.44 7.989,-26.857 0.792,-6.224 7.784,-11.656 13.963,-11.338 1.535,0.078 2.356,0.771 1.94,2.293 -0.59,2.16 -1.312,4.29 -2.083,6.394 -4.407,12.033 -10.5,23.01 -20.132,31.723 -0.808,0.73 -1.372,2.02 -2.871,1.734 z"
     style="fill:#8e4a2d;fill-rule:evenodd"
     id="path246" /><path
     d="m 696.425,318.05578 c -4.838,10.654 -9.212,20.277 -13.575,29.904 -0.611,1.348 -1.514,2.418 -2.811,3.126 -2.001,1.092 -4.245,2.34 -6.287,0.787 -2.07,-1.575 -0.645,-3.772 0.068,-5.607 3.323,-8.55 6.76,-17.058 10.057,-25.619 0.795,-2.064 2.066,-2.76 4.194,-2.626 2.426,0.152 4.867,0.035 8.354,0.035 z"
     style="fill:#8e492d;fill-rule:evenodd"
     id="path248" /><path
     d="m 896.157,312.30278 c 0.424,-0.137 0.797,-0.35 1.178,-0.364 3.027,-0.115 6.468,-1.129 8.972,-0.025 2.674,1.177 2.788,5.194 4.118,7.92 3.226,6.605 6.304,13.284 9.387,19.957 0.66,1.432 1.72,2.99 0.176,4.502 -1.362,1.334 -3.064,0.931 -4.627,0.529 -2.053,-0.53 -3.724,-1.757 -4.72,-3.65 a 4951.749,4951.749 0 0 1 -14.464,-27.7 c -0.162,-0.31 -0.02,-0.78 -0.02,-1.17 z"
     style="fill:#8e4a2d;fill-rule:evenodd"
     id="path250" /><path
     d="m 987.944,381.86378 c -10.533,-12.261 -17.556,-25.816 -19.987,-42.404 4.264,1.145 6.65,4.4 9.945,6.01 4.155,2.027 4.335,5.884 5.099,9.735 1.542,7.77 3.493,15.458 5.301,23.173 0.23,0.98 0.613,1.925 -0.358,3.485 z"
     style="fill:#8e492d;fill-rule:evenodd"
     id="path252" /><path
     d="m 953,357.85578 c -6.038,-2.974 -9.453,-7.69 -12.348,-12.936 -3.725,-6.75 -5.396,-14.1 -6.826,-21.551 -0.422,-2.205 0.42,-2.992 2.665,-2.66 6.28,0.932 7.316,1.88 7.899,8.032 0.84,8.874 3.788,17.135 7.157,25.286 0.521,1.261 0.97,2.551 1.452,3.829 z"
     style="fill:#8c492c;fill-rule:evenodd"
     id="path254" /><path
     d="m 848.505,343.53578 c 0.747,-6.999 3.905,-12.241 8.153,-16.976 0.93,-1.036 2.011,-1.248 3.227,-0.36 3.958,2.891 8.205,5.305 12.625,7.407 1.712,0.814 1.862,1.913 0.97,3.424 -1.441,2.44 -2.845,4.903 -4.196,7.238 -2.01,-0.086 -1.934,-1.524 -2.285,-2.59 -0.295,-0.896 -1.013,-1.602 -1.748,-1.205 -2.73,1.479 -4.998,0.985 -7.944,-10e-4 -2.234,-0.748 -4.81,2.598 -8.802,3.063 z"
     style="fill:#8e492d;fill-rule:evenodd"
     id="path256" /><path
     d="m 642.311,366.70978 c -0.887,-2.459 0.74,-4.373 1.374,-6.416 2.481,-7.993 4.737,-15.987 4.664,-24.48 -0.033,-3.88 4.37,-7.317 8.187,-6.658 2.056,0.355 1.641,2.059 1.572,3.392 -0.593,11.274 -3.851,21.606 -11.13,30.418 -1.243,1.505 -2.374,3.353 -4.667,3.744 z"
     style="fill:#8d492c;fill-rule:evenodd"
     id="path258" /><path
     d="m 871.05,284.65678 c 5.444,0.55 10.388,3.726 13.07,9.826 1.663,3.78 3.898,7.63 1.902,12.055 -4.146,0.032 -7.232,-2.41 -10.326,-4.635 -4.42,-3.178 -7.29,-7.563 -8.994,-12.717 -1.36,-4.109 -0.967,-4.673 4.348,-4.529 z m 9.34,-7.533 c 7.744,2.848 13.86,6.197 18.18,12.121 2.076,2.845 3.08,6.208 2.763,9.812 -0.248,2.84 -1.285,3.56 -4.064,2.647 -3.773,-1.239 -6.904,-3.506 -9.383,-6.598 -4.015,-5.007 -6.01,-10.828 -7.496,-17.981 z"
     style="fill:#8e492d;fill-rule:evenodd"
     id="path260" /><path
     d="m 641.198,342.03378 c 0.126,14.365 -5.059,26.369 -14.31,37.03 -1.438,-1.667 -0.626,-2.97 -0.311,-4.241 1.774,-7.158 3.082,-14.388 2.912,-21.79 -0.056,-2.494 0.363,-4.31 3.046,-5.19 3.328,-1.092 5.718,-3.711 8.663,-5.808 z"
     style="fill:#8d492c;fill-rule:evenodd"
     id="path262" /><path
     d="m 951.47,332.16378 c 4.318,3.057 7.187,5.757 11.017,6.699 1.193,0.293 1.602,1.195 1.594,2.29 -0.074,9.446 2.662,18.412 4.678,27.577 -10.048,-9.597 -16.38,-20.893 -17.29,-36.567 z"
     style="fill:#8e492d;fill-rule:evenodd"
     id="path264" /><path
     d="m 705,312.01078 c -1.545,-12.271 5.13,-21.804 16.24,-23.19 2.657,-0.332 3.47,0.416 2.91,3.018 -2.105,9.79 -10.927,19.34 -19.15,20.172 z m 4.133,-29.585 c -0.738,6.35 -2.503,11.484 -5.18,16.351 a 19.909,19.909 0 0 1 -5.132,6.04 c -2.355,1.866 -5.259,4.889 -8.007,2.764 -2.354,-1.82 -1.375,-5.793 -0.52,-8.712 1.118,-3.82 3.608,-6.893 6.733,-9.313 3.52,-2.722 6.953,-5.655 12.106,-7.13 z"
     style="fill:#8e4a2d;fill-rule:evenodd"
     id="path266" /><path
     d="m 902.41,262.00678 c -10.58,2.197 -20.851,-4.26 -25.513,-13.19 -1.118,-2.142 -0.183,-3.013 1.965,-3.069 11.507,-0.298 19.62,5.172 23.549,16.259 z"
     style="fill:#8d492d;fill-rule:evenodd"
     id="path268" /><path
     d="m 736.14,247.33178 c -1.792,11.249 -6.671,16.178 -15.879,16.47 -4.238,0.135 -4.697,-0.438 -4.069,-4.415 1.81,-11.468 11.54,-14.904 19.948,-12.055 z m -49.544,21.088 c 2.688,-11.759 11.233,-17.564 24.189,-16.738 -1.406,10.125 -12.032,17.64 -24.189,16.738 z"
     style="fill:#8e492d;fill-rule:evenodd"
     id="path270" /><path
     d="m 851.796,243.47878 c 10.757,-2.385 17.897,1.269 19.968,10.22 1.04,4.487 0.305,5.394 -4.338,5.364 -9.436,-0.06 -14.72,-5.33 -15.63,-15.584 z"
     style="fill:#8e4a2d;fill-rule:evenodd"
     id="path272" /><path
     d="m 670.276,297.12578 c -1.571,8.254 -4.321,14.905 -9.816,20.217 -0.88,0.85 -1.78,1.73 -2.812,2.363 -1.51,0.925 -3.096,2.691 -4.94,1.506 -1.506,-0.968 -0.89,-3.04 -0.727,-4.587 0.58,-5.442 2.435,-10.298 6.781,-13.98 3.14,-2.66 6.416,-4.916 11.514,-5.519 z m 38.744,24.361 c -3.396,6.992 -7.463,13.363 -10.3,20.414 -1.458,3.619 -5.151,6.059 -6.872,4.946 -3.164,-2.047 -1.824,-4.97 -1.002,-7.726 1.583,-5.306 3.279,-10.556 6.488,-15.165 0.825,-1.187 1.536,-2.542 3.381,-1.627 2.874,1.426 5.51,0.56 8.306,-0.842 z"
     style="fill:#8d492c;fill-rule:evenodd"
     id="path274" /><path
     d="m 881.714,315.54978 c 4.118,1.19 6.753,3.545 9.845,0.958 1.325,-1.11 2.212,0.315 2.897,1.226 3.972,5.279 6.699,11.182 8.28,17.571 0.476,1.93 0.816,4.357 -1.67,5.287 -2.223,0.833 -3.869,-0.734 -5.203,-2.319 -0.778,-0.923 -1.359,-2.032 -1.915,-3.115 -3.357,-6.538 -7.388,-12.665 -12.234,-19.608 z"
     style="fill:#8d492d;fill-rule:evenodd"
     id="path276" /><path
     d="m 920.359,289.74778 c 11.718,2.12 18.887,9.637 19.206,19.563 0.126,3.898 -0.768,4.602 -4.126,2.84 -5.02,-2.633 -8.66,-6.73 -11.302,-11.684 -1.7,-3.19 -3.36,-6.434 -3.778,-10.72 z"
     style="fill:#8d492c;fill-rule:evenodd"
     id="path278" /><path
     d="m 728.08,308.10178 c -4.33,0.05 -4.715,-0.444 -4.21,-3.8 1.213,-8.064 5.553,-13.392 13.52,-15.525 3.625,-0.97 4.77,-0.018 3.963,3.466 -0.777,3.357 -1.665,6.721 -3.547,9.703 -2.463,3.905 -5.95,6.015 -9.725,6.156 z m 134.73,-3.931 c -2.832,-0.47 -5.672,-1.337 -7.944,-3.703 -3.387,-3.527 -4.987,-7.904 -6.202,-12.462 -0.653,-2.447 0.623,-3.543 2.987,-3.057 8.154,1.677 13.123,5.614 15.249,14.706 0.75,3.216 -0.556,4.59 -4.09,4.516 z"
     style="fill:#8d492d;fill-rule:evenodd"
     id="path280" /><path
     d="m 727.41,318.51878 a 58.896,58.896 0 0 1 -9.487,13.8 c -1.388,1.512 -2.897,2.909 -4.818,3.681 -2.665,1.074 -4.389,-0.1 -4.544,-2.964 -0.22,-4.108 6.243,-15.408 9.749,-17.112 1.043,-0.507 1.892,-0.179 2.867,0.243 1.854,0.803 3.782,1.44 6.232,2.352 z"
     style="fill:#8e492d;fill-rule:evenodd"
     id="path282" /><path
     d="m 864.716,313.96478 c 0.947,-0.37 1.51,-0.78 2.07,-0.773 2.34,0.03 3.936,-3.211 6.047,-2.073 2.23,1.203 3.973,3.43 5.706,5.406 2.303,2.625 3.873,5.7 4.879,9.076 0.54,1.813 1.23,3.677 -0.47,5.086 -2.018,1.672 -3.927,0.25 -5.547,-0.877 -3.37,-2.344 -6.114,-5.394 -8.548,-8.665 -1.541,-2.073 -3.479,-3.975 -4.137,-7.18 z"
     style="fill:#8d492d;fill-rule:evenodd"
     id="path284" /><path
     d="m 884.776,266.10178 c 1.353,-1.305 2.322,-0.081 3.248,0.163 3.533,0.93 6.902,2.376 10.63,2.67 4.71,0.371 8.901,5.342 8.698,9.922 -0.085,1.893 -1.316,2.328 -2.903,2.324 -2.156,-0.006 -3.883,-1.13 -5.592,-2.234 -5.352,-3.456 -9.64,-8.064 -14.081,-12.845 z"
     style="fill:#8b482c;fill-rule:evenodd"
     id="path286" /><path
     d="m 906.506,292.35578 c -0.096,-1.54 0.297,-2.865 1.849,-3.483 1.78,-0.709 3.59,-0.735 5.23,0.38 2.096,1.425 3.295,3.565 4.24,5.83 1.093,2.616 2.175,5.244 3.065,7.932 0.602,1.82 -0.357,2.625 -2.216,2.522 -6.143,-0.34 -12.13,-6.812 -12.168,-13.181 z"
     style="fill:#8c482c;fill-rule:evenodd"
     id="path288" /><path
     d="m 683.832,300.19278 c -0.129,6.155 -5.29,11.953 -11.208,12.652 -1.995,0.236 -2.692,-0.759 -2.288,-2.484 0.925,-3.963 1.963,-7.918 4.102,-11.439 0.841,-1.387 1.954,-2.597 3.627,-3.115 3.756,-1.164 5.85,0.415 5.767,4.386 z"
     style="fill:#8c492c;fill-rule:evenodd"
     id="path290" /><path
     d="m 704.065,271.18178 c -3.59,5.142 -7.831,9.534 -12.49,13.5 -1.377,1.171 -3.059,2.078 -4.737,2.78 -2.875,1.204 -4.405,0.098 -4.295,-2.859 0.169,-4.553 2.87,-8.113 7.413,-9.112 4.785,-1.052 9.286,-2.864 14.109,-4.309 z"
     style="fill:#8b482c;fill-rule:evenodd"
     id="path292" /><path
     d="m 741.094,317.75678 c -3.734,0.064 -4.751,-1.216 -3.823,-4.774 1.207,-4.622 4.181,-7.778 8.337,-9.867 2.665,-1.34 3.503,-0.848 4.16,2.094 1.485,6.649 -2.52,12.442 -8.674,12.547 z"
     style="fill:#89472b;fill-rule:evenodd"
     id="path294" /><path
     d="m 813.222,276.50878 c -0.334,4.77 -3.19,8.16 -6.406,11.282 -0.912,0.884 -1.799,0.106 -2.469,-0.773 -3.268,-4.292 -2.91,-10.11 0.824,-13.866 1.386,-1.394 2.82,-2.272 4.84,-1.345 2.018,0.927 3.271,2.333 3.211,4.702 z"
     style="fill:#8c482c;fill-rule:evenodd"
     id="path296" /><path
     d="m 922.57,279.10878 c 2.051,-0.213 3.296,0.024 4.036,-0.48 4.541,-3.095 7.329,-0.585 10.14,2.74 1.593,1.882 3.165,3.746 4.423,5.867 0.535,0.906 1.001,1.885 0.239,2.814 -0.749,0.91 -1.838,0.8 -2.823,0.409 -5.948,-2.366 -11.09,-5.866 -16.015,-11.35 z"
     style="fill:#88462b;fill-rule:evenodd"
     id="path298" /><path
     d="m 837.636,264.53878 c 8.503,-0.474 14.147,2.838 16.053,8.973 0.918,2.953 0.276,3.697 -2.819,3.212 -6.828,-1.071 -10.245,-5.875 -13.234,-12.185 z"
     style="fill:#88472b;fill-rule:evenodd"
     id="path300" /><path
     d="m 666.31,287.89778 c -3.924,4.52 -8.29,8.074 -13.478,10.63 -1.098,0.541 -2.281,1.255 -3.4,0.264 -1.496,-1.325 -0.273,-2.688 0.308,-3.87 1.748,-3.55 4.609,-6.228 7.356,-8.986 1.037,-1.04 2.142,-1.195 3.249,-0.273 1.617,1.347 3.843,1.022 5.965,2.235 z"
     style="fill:#8b482b;fill-rule:evenodd"
     id="path302" /><path
     d="m 750.726,268.00378 c -2.011,6.033 -5.415,10.502 -11.847,12.07 -0.954,0.233 -1.998,0.859 -2.883,0.01 -1.052,-1.011 -0.597,-2.266 -0.234,-3.43 2.015,-6.477 7.47,-9.7 14.964,-8.65 z"
     style="fill:#8b482c;fill-rule:evenodd"
     id="path304" /><path
     d="m 841.936,247.89678 c 5.085,0.26 8.666,3.854 8.94,8.714 0.164,2.92 -0.69,3.772 -3.496,3.489 -5.002,-0.505 -8.682,-4.215 -8.753,-8.63 -0.04,-2.554 0.81,-3.95 3.31,-3.573 z"
     style="fill:#8b492c;fill-rule:evenodd"
     id="path306" /><path
     d="m 859.46,265.41778 c 4.513,1.287 7.997,2.868 11.69,1.957 2.701,-0.666 4.352,-0.314 4.63,2.825 0.3,3.386 -0.908,5.516 -3.74,6.006 -2.785,0.481 -5.247,-0.34 -7.38,-2.178 -2.383,-2.054 -3.804,-4.686 -5.2,-8.61 z"
     style="fill:#8c482c;fill-rule:evenodd"
     id="path308" /><path
     d="m 729.112,270.01078 c -0.884,4.756 -3.449,7.623 -6.635,9.87 -3.781,2.665 -8.378,1.012 -9.144,-3.039 -0.667,-3.525 0.75,-5.213 4.443,-4.67 3.815,0.559 6.987,-1.765 11.337,-2.161 z m 8.676,-10.285 c 0.038,-5.164 3.97,-9.083 8.932,-9.073 1.153,0.003 1.875,0.419 2.28,1.555 1.88,5.26 -3.905,12.3 -9.447,11.362 -2.361,-0.4 -1.529,-2.484 -1.765,-3.844 z"
     style="fill:#8b482c;fill-rule:evenodd"
     id="path310" /><path
     d="m 860.818,363.89678 c -1.186,5.363 -3.343,9.518 -8.944,10.667 -3.907,0.802 -5.337,-0.792 -4.437,-4.733 0.808,-3.538 3.085,-5.727 6.64,-6.36 1.983,-0.356 4.04,-0.586 6.74,0.426 z"
     style="fill:#8d492d;fill-rule:evenodd"
     id="path312" /><path
     d="m 782.385,286.67178 c 0.043,-5.22 5.277,-8.69 9.522,-6.87 1.12,0.482 1.29,1.38 1.378,2.416 0.358,4.198 -3.493,8.865 -7.794,9.506 -1.265,0.188 -1.87,-0.364 -2.165,-1.467 -0.366,-1.356 -0.714,-2.716 -0.94,-3.585 z"
     style="fill:#8b472c;fill-rule:evenodd"
     id="path314" /><path
     d="m 874.676,349.52778 c -2.115,4.92 -5.16,8.182 -9.594,10.131 -1.065,0.469 -2.268,1.131 -3.422,0.134 -1.218,-1.05 -2.797,-1.978 -3.048,-3.644 -0.302,-2.011 1.641,-2.63 2.957,-3.415 3.828,-2.282 7.93,-3.613 13.107,-3.206 z"
     style="fill:#8c482c;fill-rule:evenodd"
     id="path316" /><path
     d="m 840.65,375.75378 c 0.112,6.42 -2.26,11.042 -6.066,12.135 -1.734,0.498 -3.971,1.193 -5.219,-0.389 -1.337,-1.695 0.141,-3.56 1.25,-4.961 2.462,-3.116 5.793,-5.052 10.035,-6.785 z"
     style="fill:#89472b;fill-rule:evenodd"
     id="path318" /><path
     d="m 774.192,310.10778 c -1.034,-8.494 1.002,-11.578 8.565,-13.517 1.809,6.682 -0.062,9.756 -8.565,13.517 z"
     style="fill:#8a472b;fill-rule:evenodd"
     id="path320" /><path
     d="m 857.292,349.31278 c -0.14,3.246 -5.89,7.476 -8.981,6.57 -1.373,-0.403 -1.787,-1.594 -1.944,-2.836 -0.302,-2.412 0.456,-4.525 2.422,-5.938 2.144,-1.54 4.683,-1.29 7.092,-0.807 1.55,0.31 1.351,1.806 1.411,3.01 z"
     style="fill:#89472b;fill-rule:evenodd"
     id="path322" /><path
     d="m 791.136,304.43378 c -1.198,-5.3 -1.182,-9.741 3.486,-12.828 2.158,-1.427 3.365,-0.828 3.705,1.681 0.675,5.002 -0.987,7.741 -7.19,11.147 z"
     style="fill:#8c482c;fill-rule:evenodd"
     id="path324" /><path
     d="m 799.579,270.86578 c -0.075,2.825 -1.811,5.803 -3.384,5.803 -1.546,0 -5.438,-4.32 -5.417,-6.013 0.027,-2.079 3.683,-5.698 5.673,-5.615 1.894,0.078 3.214,2.536 3.128,5.825 z"
     style="fill:#8b482c;fill-rule:evenodd"
     id="path326" /><path
     d="m 846.25,306.61978 c 4.547,6.474 4.311,11.059 -0.347,14.214 -0.67,0.453 -1.361,0.92 -2.238,0.549 -0.91,-0.385 -1.105,-1.265 -0.977,-2.021 0.704,-4.133 0.72,-8.47 3.561,-12.742 z"
     style="fill:#834329;fill-rule:evenodd"
     id="path328" /><path
     d="m 680.537,265.85378 c -5.931,5.224 -12.328,9.838 -17.93,16.079 0.779,-7.797 7.334,-13.65 17.93,-16.078 z"
     style="fill:#7d4128;fill-rule:evenodd"
     id="path330" /><path
     d="m 907.288,258.62778 c 11.717,2.66 17.3,6.927 19.62,14.799 -6.79,-5.175 -12.94,-10.376 -19.62,-14.799 z"
     style="fill:#7e4228;fill-rule:evenodd"
     id="path332" /><path
     d="m 829.277,306.46378 c -0.62,-3.716 -0.171,-7.293 -0.133,-10.845 0.008,-0.81 0.213,-1.66 1.083,-2.003 1.123,-0.442 1.908,0.268 2.627,0.977 4.057,3.997 2.818,8.56 -3.577,11.87 z"
     style="fill:#824329;fill-rule:evenodd"
     id="path334" /><path
     d="m 844.62,361.10678 c -0.587,8.239 -3.265,10.746 -10.462,10.453 1.16,-5.674 5.275,-8.145 10.462,-10.453 z"
     style="fill:#824429;fill-rule:evenodd"
     id="path336" /><path
     d="m 801.191,307.16778 c -0.938,-5.424 0.453,-8.425 4.63,-10.244 2.16,-0.94 3.028,0.037 3.215,2.018 0.367,3.937 -2.244,6.642 -7.845,8.226 z"
     style="fill:#84442a;fill-rule:evenodd"
     id="path338" /><path
     d="m 942.83,276.68878 c 7.728,1.52 13.816,5.014 15.93,13.252 -5.12,-4.66 -10.363,-9.16 -15.93,-13.252 z"
     style="fill:#753d25;fill-rule:evenodd"
     id="path340" /><path
     d="m 785.338,270.27978 c 0.116,5.724 -1.49,8.406 -5.435,9.96 -2.333,0.92 -2.913,-0.198 -2.874,-2.189 0.078,-3.745 2.262,-5.84 8.31,-7.77 z"
     style="fill:#89472b;fill-rule:evenodd"
     id="path342" /><path
     d="m 631.39,299.61378 c 2.372,-7.976 7.832,-12.613 15.789,-14.499 -4.877,5.231 -11.15,8.983 -15.789,14.499 z"
     style="fill:#753d26;fill-rule:evenodd"
     id="path344" /><path
     d="m 829.618,321.00778 c -1.303,-2.577 -0.17,-4.85 0.232,-7.131 0.228,-1.286 -0.161,-3.05 1.842,-3.287 1.712,-0.203 3.195,0.423 4.173,1.875 0.88,1.305 0.767,2.778 -0.144,3.951 -1.583,2.04 -3.283,4.038 -6.103,4.592 z"
     style="fill:#7e4027;fill-rule:evenodd"
     id="path346" /><path
     d="m 758.711,306.17578 c 0.03,-3.484 1.787,-6.428 3.356,-5.945 1.444,0.446 3.079,4.272 2.683,6.4 a 5.771,5.771 0 0 1 -0.617,1.706 c -0.657,1.189 -1.055,2.946 -2.876,2.553 -1.52,-0.327 -2.109,-1.788 -2.421,-3.226 -0.128,-0.59 -0.104,-1.211 -0.125,-1.488 z"
     style="fill:#834429;fill-rule:evenodd"
     id="path348" /><path
     d="m 771.768,285.87078 c 1.156,2.934 1.06,5.19 0.495,7.354 -0.463,1.772 -1.497,3.85 -3.578,3.432 -1.947,-0.391 -2.383,-2.658 -2.28,-4.483 0.178,-3.167 2.168,-4.971 5.363,-6.303 z"
     style="fill:#88472b;fill-rule:evenodd"
     id="path350" /><path
     d="m 821.815,286.81078 c 0.09,3.944 -0.988,5.363 -4.174,5.42 -1.36,0.024 -3.013,0.23 -3.27,-1.78 -0.313,-2.44 2.77,-6.59 5.114,-6.812 2.56,-0.241 2.13,1.8 2.33,3.172 z"
     style="fill:#8a482c;fill-rule:evenodd"
     id="path352" /><path
     d="m 860.596,321.08278 c -4.418,-0.98 -6.29,-3.87 -7.867,-7.042 -0.451,-0.91 -0.892,-1.979 0.142,-2.77 0.98,-0.751 1.959,-0.113 2.817,0.386 3.557,2.067 4.17,5.545 4.908,9.426 z"
     style="fill:#7d4128;fill-rule:evenodd"
     id="path354" /><path
     d="m 793.25,312.75078 c -0.032,1.867 -3.755,5.26 -5.86,5.14 -0.366,-0.02 -0.903,-0.156 -1.047,-0.413 -1.074,-1.919 -1.109,-3.97 0.33,-5.604 1.294,-1.473 2.942,-2.934 5.213,-1.814 0.94,0.464 1.32,1.461 1.363,2.69 z"
     style="fill:#89472c;fill-rule:evenodd"
     id="path356" /><path
     d="m 835.891,353.14378 c 0.376,-3.424 2.619,-5.327 5.424,-6.682 0.942,-0.455 2.114,-0.345 2.096,1.156 -0.043,3.443 -3.305,5.858 -7.52,5.526 z"
     style="fill:#86462b;fill-rule:evenodd"
     id="path358" /><path
     d="m 754.217,310.44378 c 4.674,3.824 4.645,5.133 -0.01,9.455 -0.653,-3.172 -0.752,-5.974 0.01,-9.456 z"
     style="fill:#87462a;fill-rule:evenodd"
     id="path360" /><path
     id="path366"
     style="fill:#8e4b2f;fill-rule:evenodd"
     d="m 575.24609,391.51511 c -1.98449,-0.029 -3.94775,0.31712 -5.84375,1.51562 -2.06499,2.97 -1.14619,6.69666 -2.49218,9.84766 l 0.0605,-0.0762 c 0.243,4.76399 -1.30768,9.27792 -1.92968,13.91992 -0.995,7.42499 -2.58516,14.81779 -1.66016,22.67578 3.131,-0.313 2.29762,-9.29315 4.05762,-11.19214 7.83299,-8.443 13.37098,-12.04365 16.12597,-23.48364 0.443,1.494 0.66858,2.25167 0.89258,3.01367 1.214,1.074 0.69472,2.59353 1.01172,3.89453 1.60278,-4.4634 1.55908,-8.95346 0.22461,-13.46484 -0.807,0.148 0.33837,0.43419 -0.26563,0.61719 -2.54299,0.77 -1.29082,-1.3591 -1.29882,-1.8711 -0.028,-2.23 -0.35016,-4.27906 -2.91016,-4.66406 -1.982,-0.2985 -3.98816,-0.70342 -5.97266,-0.73242 z"
     sodipodi:nodetypes="scccscccccccccss" /><path
     d="m 1042.926,384.32778 c 1.983,-4.695 4.237,-9.244 7.202,-13.409 13.15,25.625 22.483,52.534 27.335,80.961 1.822,10.673 3.342,21.38 3.619,32.221 0.076,3.03 0.629,6.885 -3.048,7.874 -3.48,0.937 -5.27,-2.452 -6.903,-5.004 -4.137,-6.467 -6.577,-13.473 -7.347,-21.205 -1.498,-15.027 -4.418,-29.83 -8.114,-44.469 -0.322,-1.275 -0.178,-2.955 -1.725,-3.741 -0.227,-0.215 -0.453,-0.43 -0.684,-0.642 -2.613,-11.123 -8.342,-21.262 -10.335,-32.586 z"
     style="fill:#904b2e;fill-rule:evenodd"
     id="path368" /><path
     d="m 1022.4498,415.17699 c -1.436,-4.33588 -3.5478,-10.13421 -1.3658,-14.79221 0.2,-0.34 0.52,-0.66 0.581,-1.023 1.125,-6.589 0.4822,-0.11382 7.3842,0.27018 2.8,10.555 5.9248,14.68682 6.5778,25.96282 -5.205,-0.715 -7.853,-4.172 -10.898,-7.1 -0.852,-0.819 -2.3559,-3.89014 -1.5324,-2.18873 0.1524,0.42471 -0.485,-0.76155 -0.7468,-1.12906 z"
     style="fill:#8f4b2f;fill-rule:evenodd"
     id="path370"
     sodipodi:nodetypes="cccccscc" /><path
     d="m 780.053,337.66778 c -3.985,4.984 -9.02,4.01 -13.73,3.278 -2.051,-0.319 -3.609,-1.66 -4.433,1.495 -0.38,1.454 -2.01,1.999 -3.554,1.635 -1.552,-0.366 -2.362,-1.48 -2.464,-3.095 -0.047,-0.735 0.49,-1.59 -0.545,-2.199 -2.028,-0.207 -3.141,1.435 -4.44,2.654 -1.223,1.147 -2.557,1.163 -3.965,0.663 -1.21,-0.43 -2.146,-1.314 -2.372,-2.588 -0.243,-1.365 0.682,-2.362 1.753,-2.934 1.238,-0.661 2.625,-1.334 3.984,-1.424 3.041,-0.2 6.142,-0.337 9.15,0.046 3.412,0.435 6.637,1.85 10.039,2.57 3.447,0.73 6.78,-0.774 10.577,-0.1 z"
     style="fill:#0e0a0a;fill-rule:evenodd"
     id="path372" /><path
     d="m 748.991,371.49778 c 2.087,-2.245 5.169,-2.233 7.744,-3.373 2.25,-0.998 2.783,-2.362 1.267,-4.252 -3.833,-4.776 -7.501,-9.727 -11.743,-14.12 -2.422,-2.508 -5.216,-6.039 -9.717,-3.123 -0.65,0.42 -1.22,-0.143 -1.465,-0.628 -2.002,-3.983 -6.43,-4.806 -9.505,-7.38 l 1.404,-1.342 c 2.15,0.032 3.85,1.251 5.505,2.346 2.555,1.689 5.083,3.185 8.18,3.811 2.598,0.525 4.838,2.104 6.77,3.947 4.88,4.654 8.51,10.352 12.708,15.568 2.45,3.046 1.38,5.494 -2.38,7.175 -2.373,1.062 -5.182,1.11 -7.176,3.068 a 690.09,690.09 0 0 1 -1.592,-1.697 z"
     style="fill:#010001;fill-rule:evenodd"
     id="path374" /><path
     id="path376"
     style="fill:#020102;fill-rule:evenodd"
     d="m 1025.5195,354.50339 c -0.5696,0.0543 -0.633,0.46553 0.627,1.64453 3.361,3.144 15.293,42.16211 15.293,42.16211 l 19.6621,48.11328 c -2.423,-16.86698 -5.6993,-27.21289 -5.6993,-27.21289 -2.075,-8.85899 -26.5742,-63.89453 -26.5742,-63.89453 0,0 -2.3592,-0.90301 -3.3086,-0.8125 z m -454.32223,35.19727 c -0.13532,0.10742 -0.4654,0.71937 -1.04102,1.9375 -4.605,9.74399 -9.25586,35.06054 -9.25586,35.06054 l 2.70899,0.19336 c -0.0149,-13.96411 8.5351,-37.94336 7.58789,-37.1914 z" /><path
     d="m 740.84,359.88178 c 0,0 4.386,2.278 5.307,3.252 0.922,0.973 -3.164,-0.937 -6.594,-1.942"
     style="fill:#010001;fill-rule:evenodd"
     id="path378" /><path
     d="m 1050.128,370.91978 c 0,0 -1.232,-2.662 -2.309,-1.663 -1.076,1 2.773,5.016 2.309,1.663 z"
     style="fill:#904b2e;fill-rule:evenodd"
     id="path384" /><path
     class="st158"
     style="fill:#010001;fill-rule:evenodd;stroke-width:0.61495"
     d="m 850.80917,344.12857 6.32722,-7.12235 2.70947,7.12235 m 9.34478,0.50857 -2.00351,-5.21109 -4.45716,1.98936"
     id="path386" /><path
     d="m 867.09,391.79178 c 0,0 1.959,1.58 1.959,5.499 h -6.663 l -0.525,-1.924"
     style="fill:#010001;fill-rule:evenodd"
     id="path388" /><path
     d="m 741.816,394.82678 c 0,0 -7.533,0.538 -3.228,6.84 0,0 1.998,2.384 4.15,2.999 0,0 1,-5.15 2.999,-6.765 0,0 1.23,-4.074 -3.92,-3.074 z m 14.217,0 c 0,0 -7.533,0.538 -3.228,6.84 0,0 1.998,2.384 4.15,2.999 0,0 1,-5.15 2.999,-6.765 0,0 1.23,-4.074 -3.92,-3.074 z m 17.738,0 c 0,0 -7.533,0.538 -3.228,6.84 0,0 1.998,2.384 4.15,2.999 0,0 1,-5.15 2.998,-6.765 0,0 1.23,-4.074 -3.92,-3.074 z m 52.7,0.009 c 0,0 -7.533,0.538 -3.228,6.842 0,0 1.998,2.383 4.15,2.998 0,0 1,-5.15 2.999,-6.765 0,0 1.23,-4.074 -3.92,-3.075 z m 14.832,0 c 0,0 -7.533,0.538 -3.228,6.842 0,0 1.998,2.383 4.15,2.998 0,0 1,-5.15 2.999,-6.765 0,0 1.23,-4.074 -3.92,-3.075 z m 16.508,0 c 0,0 -7.533,0.538 -3.228,6.842 0,0 1.998,2.383 4.15,2.998 0,0 1,-5.15 2.998,-6.765 0,0 1.23,-4.074 -3.92,-3.075 z"
     style="fill:#ffffff;fill-rule:evenodd;stroke:#010001;stroke-width:1.22991;stroke-miterlimit:10"
     id="path1020" /><path
     d="m 561.57897,348.66004 c 0,0 1.6847,-4.5847 3.9286,2.3113 2.244,6.897 -1.5889,11.408 -2.808,12.326 -1.218,0.918 -16.7981,20.89039 -16.7981,20.89039 z"
     style="fill:#904b2e;fill-rule:evenodd"
     id="path10-3-6-0"
     sodipodi:nodetypes="ccccc" /><path
     d="m 558.39707,384.83505 c -1.983,-4.695 -4.2371,-9.244 -7.202,-13.409 -13.1501,25.625 -22.483,52.534 -27.3351,80.961 -1.8219,10.673 -3.342,21.38 -3.6189,32.221 -0.076,3.03 -0.629,6.885 3.048,7.874 3.48,0.937 5.27,-2.452 6.903,-5.004 4.137,-6.467 6.577,-13.473 7.347,-21.205 1.498,-15.027 4.4179,-29.83 8.114,-44.469 0.3219,-1.275 0.178,-2.955 1.725,-3.741 0.227,-0.215 0.4529,-0.43 0.6839,-0.642 2.6131,-11.123 8.3421,-21.262 10.3351,-32.586 z"
     style="fill:#904b2e;fill-rule:evenodd"
     id="path368-7" /><path
     id="path376-5"
     style="fill:#020102;fill-rule:evenodd"
     d="m 575.80267,355.01128 c -0.9493,-0.0905 -3.3086,0.8125 -3.3086,0.8125 0,0 -24.4992,55.03555 -26.5743,63.89453 0,0 -3.2762,10.34593 -5.6992,27.21289 l 19.6621,-48.11328 c 0,0 16.47716,-47.07311 17.39695,-42.59192 1.26,-1.179 -0.90735,-1.16042 -1.47695,-1.21472 z"
     sodipodi:nodetypes="scccccs" /><path
     d="m 551.19507,371.42705 c 0,0 1.2319,-2.662 2.3089,-1.663 1.076,1 -2.7729,5.016 -2.3089,1.663 z"
     style="fill:#904b2e;fill-rule:evenodd"
     id="path384-9" /><path
     id="path226-3"
     style="fill:#020102;fill-rule:evenodd"
     d="m 591.30552,361.58628 c -0.9499,-0.474 -19.59249,25.04509 -21.72637,31.49912 -5.257,13.99997 -8.8941,28.47306 -12.4941,42.95703 -1.479,5.94999 -2.3463,12.10669 -5.7793,17.38867 -1.208,1.858 -2.4727,4.5616 -4.8887,4.0586 -2.876,-0.6 -1.8503,-3.70482 -1.8633,-5.75781 -0.066,-8.85599 1.6368,-17.49368 3.5508,-26.09766 0.565,-2.536 1.7473,-5.15391 -0.2597,-7.62891 0.72644,4.00292 -1.74802,3.3191 -2.58494,6.91756 -3.25028,13.97504 -7.59936,27.23009 -9.02836,41.09807 -0.793,7.68698 -3.2207,14.77186 -7.7207,21.08984 -0.956,1.34 -2.1162,2.86624 -3.9492,2.36524 -1.867,-0.51 -1.9679,-2.44018 -2.0899,-4.07618 -0.536,-7.20998 0.8787,-14.28401 1.7227,-21.375 3.67,-30.80194 13.25,-59.8504 26.498,-87.77734 0.702,-1.479 1.46,-2.93513 1.75,-4.57812 0.13,-2.69199 -0.6195,-4.78097 -3.6465,-5.29297 -1.867,-0.244 -2.4262,1.20131 -3.0722,2.44531 -13.132,25.29694 -23.6108,51.49504 -27.6348,79.95898 -1.43,10.11298 -2.5964,20.22434 -2.2324,30.44532 0.29,8.11999 1.2666,16.1697 2.8086,24.55468 5.528,-1.458 9.0169,-5.3193 12.3789,-8.90429 5.65,-6.02599 9.3881,-13.33537 11.7011,-21.27735 0.54,-1.855 1.0385,-3.40939 2.8575,-4.40039 10.792,-5.87998 16.5323,-15.76591 19.7363,-26.96289 1.77,-6.17998 4.654,-10.5023 10.3359,-13.1543 0.916,-0.428 1.7222,-1.09339 2.5782,-1.65039 4.046,-2.65299 30.87617,-44.52417 30.36517,-48.32617 -0.858,-2.089 -30.03487,35.71994 -31.46477,37.21094 -2.92,3.04799 -6.3022,5.59681 -9.5352,8.4668 0.702,-7.84599 2.2758,-15.72219 4.0488,-23.57618 0.70977,-3.84554 34.16445,-51.2534 19.63847,-39.62021 z m 454.99808,103.36435 c -0.037,0.0891 -0.1155,0.18792 -0.06,0.25782 0.056,0.0709 0.058,-0.14064 0.078,-0.25 -0.01,-0.003 -0.01,-0.005 -0.018,-0.008 z"
     sodipodi:nodetypes="ccscccccscccccccccccccccccccccccsccss" /><path
     style="fill:#020102;fill-opacity:1;fill-rule:evenodd"
     d="m 603.28307,390.96607 c 0.24297,0.0518 0.49138,0.078 0.73981,0.0782 0.26033,1.7e-4 0.51976,-0.0282 0.77841,-0.0577 0.23559,-0.0269 0.47123,-0.0547 0.70471,-0.0961 0.37486,-0.0664 0.7429,-0.16729 1.10544,-0.28344 0.30347,-0.0972 0.60355,-0.20526 0.89817,-0.32668 0.28393,-0.11701 0.56515,-0.24787 0.81065,-0.43236 0.17918,-0.13465 0.33653,-0.29576 0.49284,-0.45639 0.10981,-0.11284 0.22037,-0.2269 0.30399,-0.36031 0.13542,-0.21606 0.19288,-0.47051 0.29018,-0.7062 0.0707,-0.17127 0.16315,-0.33373 0.27636,-0.48041 0.0266,-0.0345 0.0544,-0.0682 0.0768,-0.10558 0.0223,-0.0374 0.0391,-0.079 0.0413,-0.12254 8.6e-4,-0.0171 -5.4e-4,-0.0342 0,-0.0513 0.001,-0.044 0.0156,-0.0878 0.009,-0.13132 -0.007,-0.0452 -0.0354,-0.0841 -0.0668,-0.11738 -0.0314,-0.0333 -0.0668,-0.0632 -0.0926,-0.10096 -0.0144,-0.021 -0.0256,-0.0441 -0.0387,-0.066 -0.0388,-0.065 -0.0934,-0.11866 -0.14184,-0.17676 -0.12279,-0.14727 -0.20585,-0.32264 -0.29939,-0.49002 -0.0163,-0.0292 -0.033,-0.0582 -0.0507,-0.0865 -0.004,-0.007 -0.008,-0.0133 -0.0118,-0.0203 -0.003,-0.007 -0.006,-0.0146 -0.007,-0.0225 -1.7e-4,-0.002 -1.7e-4,-0.005 0,-0.007 -0.15298,0.0316 -0.30746,0.0559 -0.46275,0.0729 -0.14682,0.0161 -0.29448,0.0255 -0.44217,0.024 -0.11827,-0.001 -0.23639,-0.009 -0.35466,-0.01 -0.32581,-0.001 -0.6486,0.0554 -0.97186,0.0961 -0.19991,0.0252 -0.40082,0.0442 -0.59878,0.0817 -0.24129,0.0457 -0.47658,0.11859 -0.70932,0.19697 -0.19052,0.0642 -0.3798,0.13213 -0.56654,0.20657 -0.20654,0.0823 -0.41087,0.17307 -0.59806,0.29306 -0.18719,0.11999 -0.35757,0.27061 -0.47974,0.45638 -0.0532,0.0809 -0.097,0.16804 -0.12897,0.25942 -0.0722,0.20635 -0.0829,0.42826 -0.11975,0.64375 -0.0551,0.32164 -0.16975,0.63465 -0.17964,0.96082 -0.003,0.11046 0.005,0.2211 0,0.33148 -0.009,0.1817 -0.0563,0.36104 -0.0507,0.54287 0.002,0.0701 0.012,0.14143 -0.005,0.20942 -0.0121,0.0482 -0.0372,0.0921 -0.0654,0.13296 -0.0282,0.0409 -0.0598,0.0794 -0.0868,0.12102 -0.0758,0.11653 -0.1145,0.25681 -0.10918,0.39572"
     id="path3230"
     inkscape:path-effect="#path-effect3232"
     inkscape:original-d="m 603.28307,390.96607 c 0.30996,0.0502 0.41121,0.0782 0.73981,0.0782 0.20981,0 0.55843,-0.0323 0.77841,-0.0577 0.10881,-0.0125 0.58309,-0.0744 0.70471,-0.0961 0.37601,-0.067 0.742,-0.16739 1.10544,-0.28344 0.30371,-0.097 0.60499,-0.20091 0.89817,-0.32668 0.28,-0.12011 0.56581,-0.24735 0.81065,-0.43236 0.18057,-0.13645 0.3355,-0.29532 0.49284,-0.45639 0.11079,-0.11341 0.21624,-0.22776 0.30399,-0.36031 0.14247,-0.2152 0.17629,-0.47731 0.29018,-0.7062 0.0865,-0.17379 0.17689,-0.3134 0.27636,-0.48041 0.0323,-0.0543 0.10768,-0.1626 0.11808,-0.22812 0.003,-0.0169 -0.004,-0.0346 0,-0.0513 0.0103,-0.0459 0.0257,-0.084 0.009,-0.13132 -0.0315,-0.0906 -0.10672,-0.14232 -0.15941,-0.21834 -0.0142,-0.0205 -0.0231,-0.0462 -0.0387,-0.066 -0.0469,-0.0592 -0.0979,-0.11531 -0.14184,-0.17676 -0.11058,-0.15461 -0.20363,-0.32593 -0.29939,-0.49002 -0.0168,-0.0289 -0.0349,-0.057 -0.0507,-0.0865 -0.007,-0.0137 -0.0125,-0.0284 -0.0183,-0.0428 -4.4e-4,-10e-4 6.9e-4,-0.007 0,-0.007 -0.0971,-0.0551 -0.36449,0.0623 -0.46275,0.0729 -0.14676,0.0158 -0.29463,0.0195 -0.44217,0.024 -0.11822,0.005 -0.23645,-0.0132 -0.35466,-0.01 -0.32585,0.01 -0.64837,0.0606 -0.97186,0.0961 -0.20139,0.0221 -0.39982,0.0412 -0.59878,0.0817 -0.24092,0.049 -0.47507,0.12343 -0.70932,0.19697 -0.19166,0.0602 -0.38513,0.11885 -0.56654,0.20657 -0.39451,0.19079 -0.75995,0.44772 -1.0778,0.74944 -0.0822,0.0781 -0.10525,0.15 -0.12897,0.25942 -0.0462,0.21331 -0.0761,0.42991 -0.11975,0.64375 -0.0642,0.31403 -0.16546,0.64306 -0.17964,0.96082 -0.005,0.11528 0.007,0.2079 0,0.33148 -0.0106,0.18134 -0.0383,0.3616 -0.0507,0.54287 -7.5e-4,0.0109 10e-4,0.1983 -0.005,0.20942 -0.0452,0.0877 -0.11623,0.16207 -0.15219,0.25398 -0.1641,0.41945 0.0268,0.34352 -0.10918,0.39572" /><path
     style="fill:#020102;fill-opacity:1;fill-rule:evenodd"
     d="m 565.85082,351.93591 c 0.0417,0.11221 0.0862,0.22335 0.13353,0.33329 0.0987,0.2291 0.2094,0.45274 0.31781,0.67738 0.15309,0.31724 0.30185,0.63716 0.47903,0.9416 0.21411,0.36788 0.46858,0.71109 0.74156,1.03769 0.29133,0.34856 0.60417,0.67894 0.88895,1.03287 0.0947,0.11768 0.18621,0.23788 0.28097,0.35551 0.11881,0.14748 0.24265,0.29084 0.36848,0.43237 0.24107,0.27115 0.49038,0.53649 0.7692,0.76865 0.244,0.20317 0.50903,0.37961 0.77841,0.54767 0.22291,0.13907 0.44973,0.27304 0.65865,0.43236 0.0458,0.035 0.0909,0.0712 0.14033,0.10095 0.0494,0.0297 0.10374,0.053 0.16105,0.0593 0.0628,0.007 0.12572,-0.007 0.18766,-0.0189 0.11482,-0.0226 0.23049,-0.0407 0.34545,-0.0625 0.23566,-0.0448 0.47566,-0.10915 0.66491,-0.25655 0.0811,-0.0632 0.15069,-0.14005 0.21535,-0.22004 0.21906,-0.27097 0.38638,-0.58211 0.50498,-0.90974 0.0734,-0.20269 0.1283,-0.41148 0.18421,-0.61966 0.0159,-0.0592 0.0319,-0.11858 0.0401,-0.17933 0.008,-0.0607 0.008,-0.12331 -0.008,-0.18254 -0.0188,-0.0706 -0.0594,-0.1338 -0.10698,-0.18928 -0.0476,-0.0555 -0.1024,-0.10421 -0.15491,-0.15506 -0.0162,-0.0157 -0.0322,-0.0316 -0.0506,-0.0446 -0.0526,-0.0372 -0.11984,-0.0474 -0.17531,-0.0801 -0.0211,-0.0125 -0.0402,-0.028 -0.0597,-0.0428 -0.0707,-0.0537 -0.14765,-0.0987 -0.22009,-0.15014 -0.13584,-0.0964 -0.25468,-0.21434 -0.37308,-0.33148 -0.2089,-0.20667 -0.41868,-0.41267 -0.6172,-0.62934 -0.16783,-0.18317 -0.32782,-0.37431 -0.46521,-0.58129 -0.10575,-0.15932 -0.19773,-0.32748 -0.28096,-0.49963 -0.0696,-0.1439 -0.13314,-0.29076 -0.20727,-0.43237 -0.0418,-0.0799 -0.087,-0.15811 -0.13358,-0.2354 -0.0279,-0.0463 -0.0563,-0.0923 -0.0829,-0.13932 -0.0208,-0.0367 -0.0406,-0.0743 -0.0675,-0.10679 -0.0632,-0.0762 -0.15996,-0.11765 -0.2266,-0.19088 -0.0178,-0.0196 -0.0333,-0.0413 -0.0506,-0.0614 -0.0173,-0.0201 -0.0367,-0.039 -0.0603,-0.051 -0.0122,-0.006 -0.0253,-0.0106 -0.0382,-0.0153 -0.0675,-0.0248 -0.13021,-0.0608 -0.19304,-0.0958 -0.16523,-0.092 -0.33388,-0.17771 -0.50205,-0.26423 -0.21398,-0.11008 -0.42871,-0.22213 -0.65866,-0.29305 -0.22612,-0.0697 -0.46245,-0.0983 -0.6955,-0.13932 -0.17285,-0.0304 -0.3452,-0.0679 -0.52048,-0.0769 -0.10429,-0.005 -0.20888,-5.7e-4 -0.31321,-0.005 -0.0445,-0.002 -0.089,-0.005 -0.13357,-0.005 -0.12423,0.001 -0.24573,0.0337 -0.36848,0.0528 -0.16938,0.0264 -0.34661,0.0286 -0.50205,0.10089 -0.0494,0.023 -0.0955,0.0526 -0.14494,0.0754 -0.0359,0.0165 -0.0735,0.0295 -0.1074,0.0499 -0.0253,0.0152 -0.048,0.0343 -0.0708,0.0531 -0.0886,0.0733 -0.17929,0.1442 -0.27182,0.21254 z"
     id="path3242"
     inkscape:path-effect="#path-effect3244"
     inkscape:original-d="m 565.85082,351.93591 c 0.0445,0.1111 0.0854,0.22371 0.13353,0.33329 0.10027,0.22837 0.21085,0.45207 0.31781,0.67738 0.15064,0.31731 0.29776,0.64019 0.47903,0.9416 0.21963,0.3652 0.47548,0.70526 0.74156,1.03769 0.28384,0.3546 0.60248,0.68061 0.88895,1.03287 0.0953,0.11719 0.18626,0.23785 0.28097,0.35551 0.11852,0.14723 0.24416,0.28999 0.36848,0.43237 0.23835,0.27298 0.48717,0.53986 0.7692,0.76865 0.24584,0.19943 0.51879,0.36714 0.77841,0.54767 0.21543,0.14979 0.43114,0.30122 0.65865,0.43236 0.0859,0.0495 0.20765,0.1297 0.30138,0.16021 0.0484,0.0158 0.14431,-0.0124 0.18766,-0.0189 0.11545,-0.0172 0.23158,-0.0366 0.34545,-0.0625 0.23619,-0.0536 0.46309,-0.11998 0.66491,-0.25655 0.0824,-0.0558 0.15018,-0.14559 0.21535,-0.22004 0.2483,-0.28365 0.36412,-0.56697 0.50498,-0.90974 0.0826,-0.20099 0.14503,-0.40511 0.18421,-0.61966 0.0165,-0.0903 0.0541,-0.26764 0.0325,-0.36187 -0.0332,-0.14518 -0.15522,-0.25088 -0.26189,-0.34434 -0.0169,-0.0148 -0.0317,-0.0325 -0.0506,-0.0446 -0.0535,-0.0342 -0.11906,-0.0512 -0.17531,-0.0801 -0.0221,-0.0114 -0.0395,-0.0289 -0.0597,-0.0428 -0.0742,-0.051 -0.14496,-0.0949 -0.22009,-0.15014 -0.13607,-0.10005 -0.25278,-0.21369 -0.37308,-0.33148 -0.21043,-0.20605 -0.42098,-0.40932 -0.6172,-0.62934 -0.16444,-0.18437 -0.32719,-0.37652 -0.46521,-0.58129 -0.10574,-0.1569 -0.19896,-0.32858 -0.28096,-0.49963 -0.0693,-0.14449 -0.13331,-0.28996 -0.20727,-0.43237 -0.0416,-0.0801 -0.0892,-0.15686 -0.13358,-0.2354 -0.0887,-0.15681 -0.006,-0.015 -0.0829,-0.13932 -0.0196,-0.0318 -0.0398,-0.0782 -0.0675,-0.10679 -0.0682,-0.0705 -0.15307,-0.1261 -0.2266,-0.19088 -0.0392,-0.0345 -0.0664,-0.0846 -0.11092,-0.11242 -0.01,-0.006 -0.0312,-0.0119 -0.0382,-0.0153 -0.0646,-0.031 -0.12914,-0.0632 -0.19304,-0.0958 -0.16842,-0.0858 -0.33294,-0.18004 -0.50205,-0.26423 -0.203,-0.10105 -0.43599,-0.22443 -0.65866,-0.29305 -0.23123,-0.0713 -0.45787,-0.1043 -0.6955,-0.13932 -0.17193,-0.0253 -0.34652,-0.0629 -0.52048,-0.0769 -0.10439,-0.008 -0.20873,-0.003 -0.31321,-0.005 -0.0445,-9.7e-4 -0.089,-0.005 -0.13357,-0.005 -0.12465,0 -0.24582,0.0369 -0.36848,0.0528 -0.17116,0.0223 -0.33964,0.0374 -0.50205,0.10089 -0.0506,0.0198 -0.0975,0.0494 -0.14494,0.0754 -0.0348,0.019 -0.0728,0.0311 -0.1074,0.0499 -0.0275,0.0149 -0.0467,0.0352 -0.0708,0.0531 -0.10054,0.0745 -0.074,0.0537 -0.27182,0.21254 z" /><path
     style="fill:#020102;fill-opacity:1;fill-rule:evenodd"
     d="m 573.9915,352.55535 c -0.50378,0.0125 -1.00758,0.0243 -1.51139,0.0354 -0.13817,0.003 -0.27647,0.006 -0.41454,0 -0.11216,-0.005 -0.22402,-0.0158 -0.33623,-0.0192 -0.15194,-0.005 -0.30404,0.004 -0.45599,0 -0.0617,-0.002 -0.12359,-0.006 -0.18504,0 -0.0591,0.006 -0.11702,0.0201 -0.17579,0.0285 -0.0959,0.0138 -0.19327,0.0113 -0.2901,0.0144 -0.12763,0.004 -0.25476,0.0178 -0.3823,0.024 -0.1336,0.007 -0.26773,0.005 -0.40072,0.0192 -0.0555,0.006 -0.11073,0.0147 -0.16582,0.024 -0.0927,0.0156 -0.18507,0.0325 -0.27721,0.0508 0.007,0.007 0.013,0.0138 0.0192,0.021 0.0223,0.026 0.0416,0.0544 0.0616,0.0823 0.11467,0.16008 0.25196,0.30313 0.36412,0.46498 0.16784,0.24218 0.27522,0.52 0.3869,0.79267 0.0643,0.15701 0.13052,0.31324 0.19345,0.47081 0.0771,0.19307 0.15029,0.39013 0.26715,0.56207 0.1294,0.19039 0.30678,0.34191 0.46981,0.50443 0.0676,0.0673 0.13292,0.13688 0.19806,0.20658 0.0727,0.0778 0.14522,0.15586 0.22108,0.2306 0.13423,0.13226 0.27862,0.2538 0.41454,0.38432 0.18708,0.17964 0.36026,0.378 0.57878,0.51771 0.12477,0.0798 0.26242,0.13887 0.40532,0.17775 0.17516,0.0477 0.35823,0.0653 0.52969,0.12491 0.009,0.003 0.0184,0.007 0.0276,0.01 0.0245,0.007 0.0491,0.0129 0.0737,0.0192 0.17874,0.0455 0.35927,0.0842 0.53686,0.13404 0.0975,0.0274 0.19449,0.0582 0.29478,0.0721 0.0485,0.007 0.0974,0.009 0.14611,0.0142 0.10938,0.0107 0.21748,0.0316 0.3255,0.0518 0.20028,0.0375 0.40106,0.0729 0.59963,0.11863 0.0767,0.0177 0.15316,0.0369 0.2303,0.0528 0.10263,0.0211 0.20638,0.0363 0.3094,0.0555 0.14671,0.0273 0.29207,0.0627 0.44016,0.0811 0.0705,0.009 0.14155,0.0137 0.21188,0.024 0.074,0.0109 0.14704,0.0278 0.22109,0.0384 0.10834,0.0155 0.21815,0.0176 0.32702,0.0288 0.0754,0.008 0.15036,0.02 0.22569,0.0288 0.0858,0.01 0.17199,0.0157 0.25794,0.024 0.3073,0.0297 0.61017,0.0935 0.91198,0.15853 0.23324,0.0503 0.46644,0.10136 0.70191,0.13982 0.0931,0.0152 0.18699,0.0285 0.28133,0.0274 0.17674,-0.002 0.3521,-0.0553 0.50205,-0.14893 0.23974,-0.14961 0.40902,-0.3979 0.49284,-0.66777 0.0343,-0.11028 0.0552,-0.22418 0.0829,-0.33628 0.0389,-0.1573 0.0912,-0.31093 0.13818,-0.466 0.10639,-0.35081 0.18636,-0.71078 0.21648,-1.07612 0.01,-0.11975 0.0136,-0.24444 -0.0322,-0.3555 -0.0168,-0.0408 -0.04,-0.0786 -0.0645,-0.1153 -0.10618,-0.15874 -0.23916,-0.29735 -0.36388,-0.44197 -0.1308,-0.15166 -0.25298,-0.31053 -0.37308,-0.4708 -0.0656,-0.0875 -0.13111,-0.17608 -0.21188,-0.24982 -0.0419,-0.0383 -0.0876,-0.0722 -0.13357,-0.10569 -0.10257,-0.0747 -0.20674,-0.14717 -0.31321,-0.21618 -0.0749,-0.0486 -0.15092,-0.0954 -0.22569,-0.14412 -0.021,-0.0137 -0.0419,-0.0276 -0.0645,-0.0384 -0.0433,-0.0208 -0.091,-0.0298 -0.13783,-0.0405 -0.18979,-0.0434 -0.37165,-0.11734 -0.56193,-0.15853 -0.11686,-0.0253 -0.23601,-0.038 -0.35466,-0.0529 -0.14345,-0.0179 -0.28657,-0.039 -0.42835,-0.0673 -0.20175,-0.0402 -0.40029,-0.0949 -0.59878,-0.14893 -0.17656,-0.0481 -0.35324,-0.0957 -0.52969,-0.14412 -0.0965,-0.0265 -0.19294,-0.0533 -0.29018,-0.0769 -0.28812,-0.07 -0.58239,-0.11255 -0.87053,-0.18255 -0.14346,-0.0349 -0.28606,-0.0766 -0.43296,-0.0913 -0.0597,-0.006 -0.11971,-0.007 -0.17964,-0.01 -0.0663,-0.003 -0.13276,-0.007 -0.19805,-0.0192 -0.0641,-0.0118 -0.12743,-0.031 -0.1926,-0.0319 -0.0454,-6.5e-4 -0.0913,0.008 -0.13604,0 -0.0299,-0.005 -0.0583,-0.017 -0.0877,-0.0245 -0.051,-0.0129 -0.10539,-0.0118 -0.15583,0.003 -0.0504,0.0148 -0.0968,0.0434 -0.13266,0.0818 z"
     id="path3246"
     inkscape:path-effect="#path-effect3248"
     inkscape:original-d="m 573.9915,352.55535 c -0.50357,0.0252 -1.00726,0.0354 -1.51139,0.0354 -0.13786,0 -0.27686,0.006 -0.41454,0 -0.11211,-0.005 -0.22379,-0.0175 -0.33623,-0.0192 -0.15188,-0.002 -0.30408,0 -0.45599,0 -0.0613,0 -0.12383,-0.003 -0.18504,0 -0.059,0.003 -0.11719,0.0223 -0.17579,0.0285 -0.0959,0.0101 -0.19394,0.009 -0.2901,0.0144 -0.12721,0.008 -0.25469,0.0181 -0.3823,0.024 -0.13259,0.006 -0.2687,0.004 -0.40072,0.0192 -0.0555,0.006 -0.11039,0.0172 -0.16582,0.024 -0.0366,0.004 -0.24854,0.008 -0.27721,0.0508 -7.8e-4,0.001 0.0169,0.0179 0.0192,0.021 0.0203,0.0282 0.0418,0.0532 0.0616,0.0823 0.11113,0.1636 0.24111,0.31027 0.36412,0.46498 0.18437,0.23189 0.27899,0.52069 0.3869,0.79267 0.0626,0.15769 0.13054,0.31333 0.19345,0.47081 0.0765,0.19144 0.14575,0.39325 0.26715,0.56207 0.13397,0.18632 0.30863,0.34254 0.46981,0.50443 0.0673,0.0675 0.13209,0.13778 0.19806,0.20658 0.0735,0.0766 0.14462,0.15698 0.22108,0.2306 0.1357,0.13064 0.27805,0.25452 0.41454,0.38432 0.18738,0.1782 0.34987,0.38981 0.57878,0.51771 0.12417,0.0694 0.2689,0.13656 0.40532,0.17775 0.17334,0.0523 0.35326,0.0847 0.52969,0.12491 0.01,0.002 0.0184,0.006 0.0276,0.01 0.0246,0.006 0.0489,0.0137 0.0737,0.0192 0.18027,0.0403 0.35779,0.0888 0.53686,0.13404 0.0974,0.0246 0.19594,0.0546 0.29478,0.0721 0.0831,0.0147 0.0749,0.005 0.14611,0.0142 0.10846,0.0143 0.21778,0.0317 0.3255,0.0518 0.20017,0.0373 0.40069,0.0749 0.59963,0.11863 0.0769,0.0169 0.15282,0.0384 0.2303,0.0528 0.10271,0.0191 0.20735,0.0331 0.3094,0.0555 0.14528,0.0319 0.29217,0.0627 0.44016,0.0811 0.20642,0.0256 0.005,-0.008 0.21188,0.024 0.0739,0.0115 0.14697,0.0283 0.22109,0.0384 0.10858,0.0148 0.21826,0.0171 0.32702,0.0288 0.0754,0.008 0.15005,0.0224 0.22569,0.0288 0.0863,0.007 0.17193,0.0128 0.25794,0.024 0.30711,0.04 0.61074,0.0846 0.91198,0.15853 0.23224,0.057 0.46494,0.10829 0.70191,0.13982 0.0951,0.0127 0.1843,0.0313 0.28133,0.0274 0.15751,-0.006 0.37319,-0.0652 0.50205,-0.14893 0.25303,-0.1644 0.40797,-0.38176 0.49284,-0.66777 0.0329,-0.11075 0.0541,-0.22454 0.0829,-0.33628 0.0518,-0.20114 0.0713,-0.25392 0.13818,-0.466 0.11116,-0.35228 0.20657,-0.70397 0.21648,-1.07612 0.003,-0.11708 0.004,-0.24218 -0.0322,-0.3555 -0.0141,-0.0441 -0.0356,-0.0796 -0.0645,-0.1153 -0.1201,-0.1483 -0.244,-0.29349 -0.36388,-0.44197 -0.12578,-0.1558 -0.24689,-0.31534 -0.37308,-0.4708 -0.0688,-0.0848 -0.13578,-0.17151 -0.21188,-0.24982 -0.0396,-0.0407 -0.0883,-0.0714 -0.13357,-0.10569 -0.15383,-0.11645 -0.15105,-0.10879 -0.31321,-0.21618 -0.18019,-0.11933 -0.07,-0.0513 -0.22569,-0.14412 -0.0215,-0.0128 -0.0412,-0.0293 -0.0645,-0.0384 -0.0446,-0.0174 -0.092,-0.0267 -0.13783,-0.0405 -0.18734,-0.0564 -0.37106,-0.11662 -0.56193,-0.15853 -0.12319,-0.0271 -0.2123,-0.0318 -0.35466,-0.0529 -0.14298,-0.0211 -0.28596,-0.0425 -0.42835,-0.0673 -0.20324,-0.0353 -0.40014,-0.0945 -0.59878,-0.14893 -0.17647,-0.0484 -0.35324,-0.0957 -0.52969,-0.14412 -0.13502,-0.0371 -0.16516,-0.0496 -0.29018,-0.0769 -0.28964,-0.0631 -0.58069,-0.12022 -0.87053,-0.18255 -0.1423,-0.0306 -0.28881,-0.0708 -0.43296,-0.0913 -0.0423,-0.006 -0.15442,-0.008 -0.17964,-0.01 -0.009,-6e-4 -0.18635,-0.0178 -0.19805,-0.0192 -0.0496,-0.006 -0.13754,-0.0104 -0.1926,-0.0319 -0.0318,-0.0124 -0.10042,0.007 -0.13604,0 -0.004,-7e-4 -0.0779,-0.0267 -0.0877,-0.0245 -0.0977,0.0225 -0.19232,0.0565 -0.28849,0.0848 z" /><text
     xml:space="preserve"
     style="fill:#ffb917;fill-opacity:1;fill-rule:evenodd"
     x="473.12875"
     y="923.39325"
     id="text4643"><tspan
       sodipodi:role="line"
       id="tspan4641" /></text><path
     style="fill:#012d6a;fill-opacity:1;stroke-width:2.71247"
     d="m 543.664,200.00776 c -20.83895,4.82242 -21.44179,32.79094 -25.32342,49.69322 2.57143,11.22911 25.75115,9.85732 29.4345,-1.54695 2.57499,-14.27508 12.60344,-32.35271 3.14688,-45.70929 -1.974,-1.74304 -4.65251,-2.53279 -7.25796,-2.43698 z"
     id="path754" /><path
     style="fill:#012d6a;fill-opacity:1;stroke-width:0.0185444"
     d="m 543.35541,314.31225 c -1.71573,0.0266 -3.40358,0.78502 -4.56067,2.05248 -1.12872,1.21452 -1.74901,2.88306 -1.68138,4.54033 0.0509,1.68499 0.80679,3.33526 2.05815,4.46643 1.12848,1.04769 2.64812,1.66364 4.18955,1.67678 1.67777,0.0324 3.35957,-0.62191 4.55772,-1.8 1.26929,-1.22453 1.99758,-2.9945 1.92513,-4.75977 -0.0488,-1.72373 -0.82879,-3.41392 -2.12194,-4.55709 -1.18337,-1.06622 -2.77472,-1.65292 -4.36656,-1.61916 z"
     id="path756" /><path
     style="fill:#012d6a;fill-opacity:1;stroke-width:0.0185444"
     d="m 542.86011,338.46082 c -1.58042,0.0647 -3.12106,0.78416 -4.18002,1.95992 -1.14233,1.24484 -1.71325,2.98888 -1.52535,4.66821 0.14253,1.40772 0.81248,2.7471 1.83526,3.72226 0.57442,0.59903 1.21957,1.14403 1.97362,1.50261 1.52118,0.7569 3.36732,0.8158 4.93411,0.15871 1.54197,-0.62812 2.78898,-1.93182 3.3491,-3.49972 0.50269,-1.3654 0.47094,-2.90772 -0.053,-4.26217 -0.39149,-1.05691 -1.02298,-2.03644 -1.89341,-2.76102 -1.18337,-1.01253 -2.75385,-1.54106 -4.30742,-1.49122 -0.0443,8.1e-4 -0.0886,0.002 -0.13291,0.002 z"
     id="path760" /><path
     style="fill:#012d6a;fill-opacity:1;stroke-width:0.162254"
     d="m 543.61976,326.44611 c -5.95761,0.0569 -11.11769,4.14184 -14.09551,9.06182 -1.18152,2.17042 -2.56837,4.40065 -2.81458,6.90717 -0.29642,3.29907 2.58452,6.45798 5.91224,6.37384 2.59594,0.12623 4.80614,-1.71658 5.9591,-3.92034 1.23784,-2.02549 3.20904,-4.18944 5.80597,-3.97808 1.86857,0.73696 2.36761,3.06924 4.11047,4.00622 2.64286,1.83365 6.63671,1.09817 8.37853,-1.62933 1.69267,-2.3172 1.07702,-5.3891 -0.0375,-7.81335 -2.13372,-5.29085 -7.44249,-9.13631 -13.21873,-9.00795 z"
     id="path764" /><path
     style="fill:#012d6a;fill-opacity:1;stroke-width:0.0371734"
     d="m 529.57496,343.60346 c -1.84414,0.14023 -3.5761,1.1884 -4.57949,2.73852 -1.13526,1.696 -2.19407,3.45447 -2.96517,5.34952 -0.70174,1.70559 -1.2632,3.48795 -1.47912,5.3245 -0.21165,2.12568 0.82593,4.3139 2.60349,5.49807 1.69895,1.17831 4.01505,1.36526 5.88577,0.48838 1.48546,-0.67474 2.63394,-1.98614 3.18704,-3.5129 0.95875,-2.54948 2.17198,-4.99092 3.31105,-7.46182 0.73487,-1.65714 0.6797,-3.64135 -0.17871,-5.24205 -0.9814,-1.89842 -3.04173,-3.17447 -5.18005,-3.19628 -0.20159,-0.0118 -0.40322,0.01 -0.60481,0.0141 z"
     id="path766" /><text
     xml:space="preserve"
     style="font-size:96px;fill:#ffffff;fill-opacity:1"
     x="626.67999"
     y="193.27367"
     id="text928"><tspan
       sodipodi:role="line"
       id="tspan926"
       x="626.67999"
       y="193.27367"
       style="font-size:96px" /></text></svg>
