<?xml version="1.0" encoding="UTF-8" standalone="no"?>
<svg
   width="1000"
   height="600"
   viewBox="0 0 264.62027 158.77216"
   version="1.1"
   id="svg14"
   sodipodi:docname="newbc.svg"
   inkscape:version="1.4 (e7c3feb100, 2024-10-09)"
   xmlns:inkscape="http://www.inkscape.org/namespaces/inkscape"
   xmlns:sodipodi="http://sodipodi.sourceforge.net/DTD/sodipodi-0.dtd"
   xmlns="http://www.w3.org/2000/svg"
   xmlns:svg="http://www.w3.org/2000/svg">
  <sodipodi:namedview
     id="namedview14"
     pagecolor="#ffffff"
     bordercolor="#000000"
     borderopacity="0.25"
     inkscape:showpageshadow="2"
     inkscape:pageopacity="0.0"
     inkscape:pagecheckerboard="0"
     inkscape:deskcolor="#d1d1d1"
     inkscape:zoom="25.6"
     inkscape:cx="105"
     inkscape:cy="608.75"
     inkscape:window-width="1920"
     inkscape:window-height="1008"
     inkscape:window-x="0"
     inkscape:window-y="0"
     inkscape:window-maximized="1"
     inkscape:current-layer="svg14" />
  <defs
     id="defs5">
    <clipPath
       id="clip-0">
      <path
         clip-rule="nonzero"
         d="m 0,78 h 264.58594 v 73 H 0 Z m 0,0"
         id="path1" />
    </clipPath>
    <clipPath
       id="clip-1">
      <path
         clip-rule="nonzero"
         d="M 0,0 H 264.58594 V 73 H 0 Z m 0,0"
         id="path2" />
    </clipPath>
    <clipPath
       id="clip-2">
      <path
         clip-rule="nonzero"
         d="m 0,65 h 264 v 93.75 H 0 Z m 0,0"
         id="path3" />
    </clipPath>
    <clipPath
       id="clip-3">
      <path
         clip-rule="nonzero"
         d="m 3,69 h 259 v 89.75 H 3 Z m 0,0"
         id="path4" />
    </clipPath>
    <clipPath
       id="clip-4">
      <path
         clip-rule="nonzero"
         d="m 54,126 h 157 v 32.75 H 54 Z m 0,0"
         id="path5" />
    </clipPath>
  </defs>
  <path
     fill-rule="nonzero"
     fill="#ffffff"
     fill-opacity="1"
     d="M 0,158.75 H 264.58203 V 0 H 0 Z m 0,0"
     id="path6" />
  <g
     clip-path="url(#clip-0)"
     id="g7">
    <path
       fill-rule="nonzero"
       fill="#0047bb"
       fill-opacity="1"
       d="m 0.00390625,92.054688 c 16.51562475,0 16.56249975,6.851562 33.07812475,6.851562 16.527344,0 16.539063,-6.851562 33.066407,-6.851562 16.527343,0 16.601562,6.851562 33.128906,6.851562 16.535156,0 16.535156,-6.851562 33.070316,-6.851562 16.5625,0 16.49218,6.851562 33.05468,6.851562 16.53125,0 16.51953,-6.851562 33.05078,-6.851562 16.54297,0 16.49219,6.851562 33.03516,6.851562 16.56641,0 16.52734,-6.851562 33.09766,-6.851562 V 78.855469 c -16.55078,0 -16.55078,6.847656 -33.09766,6.847656 -16.51953,0 -16.51953,-6.847656 -33.03516,-6.847656 -16.52343,0 -16.52343,6.847656 -33.05078,6.847656 -16.52734,0 -16.52734,-6.847656 -33.05468,-6.847656 -16.53516,0 -16.53516,6.847656 -33.070316,6.847656 -16.566406,0 -16.566406,-6.847656 -33.128906,-6.847656 -16.53125,0 -16.53125,6.847656 -33.066407,6.847656 -16.539062,0 -16.539062,-6.847656 -33.07812475,-6.847656 z m 0,26.195312 c 16.51562475,0 16.56249975,6.85156 33.07812475,6.85156 16.527344,0 16.539063,-6.85156 33.066407,-6.85156 16.527343,0 16.601562,6.85156 33.128906,6.85156 16.535156,0 16.535156,-6.85156 33.070316,-6.85156 16.5625,0 16.49218,6.85156 33.05468,6.85156 16.53125,0 16.51953,-6.85156 33.05078,-6.85156 16.54297,0 16.49219,6.85156 33.03516,6.85156 16.56641,0 16.52734,-6.85156 33.09766,-6.85156 v -13.20312 c -16.55078,0 -16.55078,6.85156 -33.09766,6.85156 -16.51953,0 -16.51953,-6.85156 -33.03516,-6.85156 -16.52343,0 -16.52343,6.85156 -33.05078,6.85156 -16.52734,0 -16.52734,-6.85156 -33.05468,-6.85156 -16.53516,0 -16.53516,6.85156 -33.070316,6.85156 -16.566406,0 -16.566406,-6.85156 -33.128906,-6.85156 -16.53125,0 -16.53125,6.85156 -33.066407,6.85156 -16.539062,0 -16.539062,-6.85156 -33.07812475,-6.85156 z m 0,25.6875 c 16.51562475,0 16.56249975,6.85156 33.07812475,6.85156 16.527344,0 16.539063,-6.85156 33.066407,-6.85156 16.527343,0 16.601562,6.85156 33.128906,6.85156 16.535156,0 16.535156,-6.85156 33.070316,-6.85156 16.5625,0 16.49218,6.85156 33.05468,6.85156 16.53125,0 16.51953,-6.85156 33.05078,-6.85156 16.54297,0 16.49219,6.85156 33.03516,6.85156 16.56641,0 16.52734,-6.85156 33.09766,-6.85156 v -13.19922 c -16.55078,0 -16.55078,6.85156 -33.09766,6.85156 -16.51953,0 -16.51953,-6.85156 -33.03516,-6.85156 -16.52343,0 -16.52343,6.85156 -33.05078,6.85156 -16.52734,0 -16.52734,-6.85156 -33.05468,-6.85156 -16.53516,0 -16.53516,6.85156 -33.070316,6.85156 -16.566406,0 -16.566406,-6.85156 -33.128906,-6.85156 -16.53125,0 -16.53125,6.85156 -33.066407,6.85156 -16.539062,0 -16.539062,-6.85156 -33.07812475,-6.85156 z m 0,0"
       id="path7" />
  </g>
  <g
     clip-path="url(#clip-1)"
     id="g8">
    <path
       fill-rule="nonzero"
       fill="#0047bb"
       fill-opacity="1"
       d="m 0,13.464844 c 16.515625,0 16.5625,6.851562 33.082031,6.851562 16.523438,0 16.539063,-6.851562 33.0625,-6.851562 16.53125,0 16.601563,6.851562 33.128907,6.851562 16.535152,0 16.535152,-6.851562 33.070312,-6.851562 16.56641,0 16.49219,6.851562 33.05469,6.851562 16.53125,0 16.51953,-6.851562 33.05468,-6.851562 16.53907,0 16.49219,6.851562 33.03125,6.851562 16.56641,0 16.53125,-6.851562 33.09766,-6.851562 V 0.265625 c -16.55078,0 -16.54687,6.847656 -33.09766,6.847656 -16.51953,0 -16.51953,-6.847656 -33.03125,-6.847656 -16.52734,0 -16.52734,6.847656 -33.05468,6.847656 -16.52735,0 -16.52735,-6.847656 -33.05469,-6.847656 -16.53516,0 -16.53516,6.847656 -33.070312,6.847656 -16.5625,0 -16.5625,-6.847656 -33.128907,-6.847656 -16.53125,0 -16.53125,6.847656 -33.0625,6.847656 C 16.539062,7.113281 16.539062,0.265625 0,0.265625 Z m 0,26.195312 c 16.515625,0 16.5625,6.851563 33.082031,6.851563 16.523438,0 16.539063,-6.851563 33.0625,-6.851563 16.53125,0 16.601563,6.851563 33.128907,6.851563 16.535152,0 16.535152,-6.851563 33.070312,-6.851563 16.56641,0 16.49219,6.851563 33.05469,6.851563 16.53125,0 16.51953,-6.851563 33.05468,-6.851563 16.53907,0 16.49219,6.851563 33.03125,6.851563 16.56641,0 16.53125,-6.851563 33.09766,-6.851563 V 26.460938 c -16.55078,0 -16.54687,6.851562 -33.09766,6.851562 -16.51953,0 -16.51953,-6.851562 -33.03125,-6.851562 -16.52734,0 -16.52734,6.851562 -33.05468,6.851562 -16.52735,0 -16.52735,-6.851562 -33.05469,-6.851562 -16.53516,0 -16.53516,6.851562 -33.070312,6.851562 -16.5625,0 -16.5625,-6.851562 -33.128907,-6.851562 -16.53125,0 -16.53125,6.851562 -33.0625,6.851562 C 16.539062,33.3125 16.539062,26.460938 0,26.460938 Z m 0,25.691406 c 16.515625,0 16.5625,6.847657 33.082031,6.847657 16.523438,0 16.539063,-6.847657 33.0625,-6.847657 16.53125,0 16.601563,6.847657 33.128907,6.847657 16.535152,0 16.535152,-6.847657 33.070312,-6.847657 16.56641,0 16.49219,6.847657 33.05469,6.847657 16.53125,0 16.51953,-6.847657 33.05468,-6.847657 16.53907,0 16.49219,6.847657 33.03125,6.847657 16.56641,0 16.53125,-6.847657 33.09766,-6.847657 V 52.148438 C 248.03125,52.148438 248.03516,59 231.48437,59 214.96484,59 214.96484,52.148438 198.45312,52.148438 181.92578,52.148438 181.92578,59 165.39844,59 148.87109,59 148.87109,52.148438 132.34375,52.148438 115.80859,52.148438 115.80859,59 99.273438,59 82.710938,59 82.710938,52.148438 66.144531,52.148438 49.613281,52.148438 49.613281,59 33.082031,59 16.539062,59 16.539062,52.148438 0,52.148438 Z m 0,0"
       id="path8" />
  </g>
  <g
     clip-path="url(#clip-2)"
     id="g9">
    <path
       fill-rule="nonzero"
       fill="#000000"
       fill-opacity="1"
       d="m 242,118.82031 c -4.24609,0.0195 -12.33594,1.7461 -18.84766,13.42188 -4.63281,8.33593 -7.05078,9.59765 -10.39843,11.34375 -0.22657,0.11718 -0.44922,0.23437 -0.6836,0.35937 l -0.23828,0.125 c -4.90234,2.60156 -7.28906,3.86719 -9.92187,7.28125 -0.0781,-0.0664 -0.15625,-0.13672 -0.23438,-0.20312 25.63672,-41.89844 30.53516,-50.42188 30.53516,-50.42188 0,0 -34.83594,38.13281 -37.57813,41.32813 l -2.0664,2.32031 c -0.26563,-0.17188 -0.53516,-0.34766 -0.80079,-0.51953 0.21094,-0.77735 0.48047,-1.66797 0.90235,-2.54688 1.80078,-3.74218 3.32422,-5.40234 4.79687,-7.00781 1.40625,-1.53125 2.73047,-2.97656 4.10938,-5.94922 2.10547,-4.53515 2.48437,-7.22265 2.88281,-10.0664 0.19531,-1.39453 0.39844,-2.83594 0.80469,-4.61328 1.72265,-7.46485 4.01172,-10.01954 12.18359,-16.226568 l -0.004,-0.0078 1.58593,-1.242188 c 0,0 -0.85547,-0.230468 -2.19922,-0.144531 -0.11328,0.0039 -0.26562,0.01563 -0.45312,0.03516 -0.004,0 -0.008,0 -0.0156,0 v 0.0039 c -2.76562,0.296875 -12.78906,2.460937 -17.33203,18.093747 -2.69531,9.28125 -4.89843,11.21094 -7.6875,13.65235 -0.19922,0.17187 -0.40625,0.35156 -0.60937,0.53515 -4.64844,4.125 -6.50781,5.91016 -8.35156,10.11719 -0.0469,-0.0234 -0.0937,-0.0469 -0.14063,-0.0703 1.77734,-5.14453 3.44141,-10.03906 5.02344,-14.74609 12.90234,-36.8086 14.92187,-43.550787 14.92187,-43.550787 0,0 -25.8125,44.199217 -27.61718,47.558597 l -3.35157,5.92968 c -0.14062,-0.0547 -0.28125,-0.10546 -0.42578,-0.16015 0.12891,-1.71485 0.48438,-3.70313 1.05469,-5.92578 1.05078,-4.07813 2.22656,-6.05078 3.36719,-7.96094 1.08593,-1.82031 2.10937,-3.53906 2.89062,-6.77344 1.19531,-4.9375 1.04297,-7.67187 0.88672,-10.5664 -0.0781,-1.41797 -0.16016,-2.886723 -0.10156,-4.730473 0.23437,-7.460938 1.875,-10.578126 8.05859,-17.925782 l 0.0156,-0.01953 c 0.24218,-0.285156 0.47656,-0.566406 0.73047,-0.863281 l -0.004,-0.0039 1.31641,-1.570313 c 0,0 -0.85547,-0.03906 -2.11329,0.320313 -1.22265,0.320312 -12.43359,3.761718 -14.02343,21.964843 -0.85547,9.753913 -2.64453,12.148443 -4.91797,15.179693 -0.16406,0.22266 -0.32813,0.44531 -0.5,0.67187 -4.46875,6.05079 -5.3711,8.07813 -6.375,15.12891 -0.0469,-0.008 -0.0898,-0.0234 -0.13281,-0.0352 0.13671,-1.21093 0.26953,-2.41015 0.40234,-3.61328 l 0.0195,-0.0312 c 5.67578,-49.527345 6.35156,-58.500002 6.35156,-58.500002 0,0 -15.30859,49.792972 -16.44531,53.578132 l -1.75,5.91406 c -0.0391,-0.004 -0.0742,-0.008 -0.11328,-0.0156 -0.0469,-0.004 -0.0977,-0.0117 -0.14844,-0.0195 -0.0117,-0.0781 -0.0273,-0.16015 -0.0391,-0.23828 -0.23047,-1.40625 -0.51563,-3.15234 -0.45313,-5.33984 0.13282,-4.30469 0.80079,-6.34766 1.44922,-8.32031 0.61328,-1.85938 1.19141,-3.61328 1.30078,-6.92188 0.21094,-6.41015 -0.53125,-8.843753 -1.39062,-11.664065 -0.375,-1.230469 -0.76563,-2.507813 -1.09375,-4.238281 -1.42969,-7.4375 -0.47656,-10.933594 4.07031,-20.117188 l 1.26953,-2.523438 c 0,0 -0.9414,0.199219 -2.1914,0.960938 -0.0273,0.01563 -0.0625,0.03516 -0.0937,0.05469 -0.0547,0.03906 -0.10938,0.06641 -0.16797,0.105468 -0.92578,0.613282 -2.48047,1.886719 -3.97656,3.859375 -2.78125,3.675781 -5.79297,10.320313 -4.34375,21.105469 1.30468,9.746092 0.0859,12.558592 -1.45704,16.121092 -0.10937,0.25782 -0.22265,0.51954 -0.33984,0.78907 -2.78516,6.54297 -3.65234,8.91015 -3.31641,15.17968 -0.0391,0 -0.0781,0 -0.11718,0 -0.0195,-0.004 -0.0391,-0.004 -0.0586,-0.004 -0.5664,-6.26172 -1.17187,-12.35938 -1.79297,-18.41016 -3.3125,-36.60547 -4.22265,-42.63672 -4.22265,-42.63672 0,0 -0.90625,6.03125 -4.22266,42.63672 -0.61718,6.05078 -1.22656,12.14844 -1.78906,18.41016 -0.0195,0 -0.043,0 -0.0625,0.004 -0.0391,0 -0.0781,0 -0.11719,0 0.33985,-6.26953 -0.53125,-8.63671 -3.3164,-15.17968 -0.11328,-0.26953 -0.22657,-0.53125 -0.33985,-0.78907 -1.54297,-3.5625 -2.76562,-6.375 -1.45312,-16.121092 1.44922,-10.785156 -1.56641,-17.429688 -4.34766,-21.105469 -1.49219,-1.972656 -3.04687,-3.246093 -3.97656,-3.859375 -0.0586,-0.03906 -0.10938,-0.06641 -0.16797,-0.105468 -0.0312,-0.01953 -0.0625,-0.03906 -0.0937,-0.05469 -1.24609,-0.761719 -2.1875,-0.960938 -2.1875,-0.960938 l 1.26563,2.523438 c 4.55078,9.183594 5.5,12.679688 4.07421,20.117188 -0.33203,1.730468 -0.71875,3.007812 -1.09765,4.238281 -0.85938,2.820312 -1.60156,5.253915 -1.39063,11.664065 0.10938,3.3086 0.6875,5.0625 1.30078,6.92188 0.64844,1.97265 1.32032,4.01562 1.44922,8.32031 0.0664,2.1875 -0.22265,3.93359 -0.45312,5.33984 -0.0117,0.0781 -0.0273,0.16016 -0.0391,0.23828 -0.0508,0.008 -0.0977,0.0156 -0.14844,0.0195 -0.0352,0.008 -0.0742,0.0117 -0.10938,0.0156 l -1.75,-5.91406 c -1.14062,-3.78516 -16.449216,-53.578132 -16.449216,-53.578132 0,0 0.675781,8.972657 6.351566,58.500002 l 0.0195,0.0312 c 0.13672,1.20313 0.26562,2.40235 0.40625,3.61328 -0.0469,0.0117 -0.0898,0.0273 -0.13281,0.0352 -1.00782,-7.05078 -1.90625,-9.07812 -6.378911,-15.12891 -0.167969,-0.22656 -0.335938,-0.44921 -0.5,-0.67187 C 94.366958,111.543 92.573989,109.14847 91.71852,99.394557 90.128906,81.191406 78.917969,77.75 77.699219,77.429688 76.4375,77.070312 75.582031,77.109375 75.582031,77.109375 l 1.316407,1.570313 -0.0039,0.0039 c 0.257813,0.296875 0.488281,0.578125 0.730469,0.863281 l 0.01563,0.01953 c 6.1875,7.347656 7.824219,10.464844 8.058594,17.925782 0.05859,1.84375 -0.01953,3.312499 -0.09766,4.730469 -0.160156,2.89453 -0.3125,5.6289 0.882813,10.5664 0.78125,3.23438 1.808594,4.95313 2.894531,6.77344 1.136719,1.91016 2.316406,3.88281 3.363282,7.96094 0.574218,2.22265 0.925781,4.21093 1.058593,5.92578 -0.144531,0.0547 -0.285156,0.10547 -0.429687,0.16015 L 90.01954,127.67968 C 88.214844,124.32031 62.40625,80.121094 62.40625,80.121094 c 0,0 2.019531,6.742187 14.917969,43.550786 1.585937,4.70703 3.246093,9.60156 5.023437,14.74609 -0.04687,0.0234 -0.09375,0.0469 -0.140625,0.0703 -1.84375,-4.20703 -3.699219,-5.99219 -8.347656,-10.11719 -0.207031,-0.18359 -0.410156,-0.36328 -0.609375,-0.53515 -2.789062,-2.44141 -4.992188,-4.3711 -7.691406,-13.65235 C 61.019531,98.550781 50.992188,96.386719 48.226562,96.089844 v -0.0039 c -0.0039,0 -0.0078,0 -0.01562,0 -0.1875,-0.01953 -0.339844,-0.03125 -0.453126,-0.03516 -1.339843,-0.08594 -2.199218,0.144531 -2.199218,0.144531 l 1.585937,1.242188 -0.0039,0.0078 c 8.171875,6.207027 10.460937,8.761717 12.183594,16.226567 0.410156,1.77734 0.613281,3.21875 0.808593,4.61328 0.398438,2.84375 0.773438,5.53125 2.878907,10.0664 1.378906,2.97266 2.707031,4.41797 4.109375,5.94922 1.472656,1.60547 2.996094,3.26563 4.796875,7.00781 0.421875,0.87891 0.691406,1.76953 0.902343,2.54688 -0.265624,0.17187 -0.535156,0.34765 -0.796874,0.51953 l -2.070313,-2.32031 C 67.214844,138.85937 32.375,100.72656 32.375,100.72656 c 0,0 4.902344,8.52344 30.539062,50.42188 -0.07812,0.0664 -0.160156,0.13672 -0.234374,0.20312 -2.636719,-3.41406 -5.019532,-4.67969 -9.925782,-7.28125 l -0.238281,-0.125 c -0.230469,-0.125 -0.457031,-0.24219 -0.679687,-0.35937 -3.351563,-1.7461 -5.769532,-3.00782 -10.398438,-11.34375 -6.511719,-11.67578 -14.605469,-13.40235 -18.851562,-13.42188 -1.492188,-0.004 -3.171876,0.27344 -5.199219,0.8086 0,0 1.648437,0.47265 3.144531,1.13281 8.824219,3.89062 11.558594,5.875 14.769531,12.5 0.78125,1.62109 1.292969,2.96875 1.785157,4.27344 1.007812,2.65234 1.953124,5.15625 4.964843,9.03906 1.976563,2.55078 3.566407,3.6289 5.25,4.77344 1.765625,1.19921 3.59375,2.4414 6.136719,5.63281 0.488281,0.61328 0.859375,1.23437 1.148438,1.76562 H 210 c 0.28906,-0.53125 0.66016,-1.15234 1.14844,-1.76562 2.54297,-3.19141 4.37109,-4.4336 6.13672,-5.63281 1.6875,-1.14454 3.27734,-2.22266 5.25,-4.77344 3.01171,-3.88281 3.96093,-6.38672 4.96484,-9.03906 0.49219,-1.30469 1.00391,-2.65235 1.78906,-4.27344 3.20703,-6.625 5.94531,-8.60938 14.76563,-12.5 1.5,-0.66016 3.14843,-1.13281 3.14843,-1.13281 -2.03125,-0.53516 -3.71093,-0.81641 -5.20312,-0.8086 M 52.011719,158.74609 c -7.527344,-5.36328 -44.9375,-31.35937 -44.9375,-31.35937 0,0 19.058593,20.76562 28.871093,31.35937 z m -31.722657,0 h 7.863282 l -0.519532,-0.54687 c -0.570312,-0.60156 -1.09375,-1.17578 -1.558593,-1.71094 -6.832031,-7.77734 -13.460938,-9.41016 -17.578125,-9.41016 -2.132813,0 -4.121094,0.375 -5.628906,1.04297 -1.503907,0.67188 -2.203126,1.14844 -2.203126,1.14844 l 2.253907,0.36719 c 9.234375,1.92578 12.652343,3.07031 17.371093,9.10937 m 192.285158,0 c 7.52734,-5.36328 44.9375,-31.35937 44.9375,-31.35937 0,0 -19.0586,20.76562 -28.8711,31.35937 z m 31.72265,0 h -7.85937 l 0.51562,-0.54687 c 0.57032,-0.60156 1.09375,-1.17578 1.5586,-1.71094 6.83203,-7.77734 13.45703,-9.41016 17.58203,-9.41016 2.12891,0 4.11719,0.375 5.625,1.04297 1.50391,0.67188 2.20703,1.14844 2.20703,1.14844 l -2.25391,0.36719 c -9.23828,1.92578 -12.65234,3.07031 -17.375,9.10937"
       id="path9" />
  </g>
  <g
     clip-path="url(#clip-3)"
     id="g10">
    <path
       fill-rule="nonzero"
       fill="#ffcd00"
       fill-opacity="1"
       d="m 35.953125,132.90625 c 2.441406,5.04687 2.296875,7.53906 6.667969,13.17578 3.96875,5.13281 6.363281,4.10156 11.378906,10.39844 0.601562,0.75781 1.050781,1.53125 1.429688,2.26562 H 209.20703 c -0.0117,-0.0117 -0.0234,-0.0234 -0.0352,-0.0352 0.37891,-0.72266 0.82422,-1.48828 1.41407,-2.23047 5.01562,-6.29688 7.41015,-5.26563 11.3789,-10.39844 4.375,-5.63672 4.22657,-8.12891 6.66797,-13.17578 3.46875,-7.16406 6.56641,-9.11328 15.67969,-13.10547 0,0.043 -11.71484,-2.97656 -20.52734,12.83594 -5.05469,9.09765 -7.69141,10.04687 -11.38282,12 -5.24218,2.78125 -7.47656,3.92969 -10.13281,7.48047 -0.44922,-0.38672 -0.90234,-0.76563 -1.36328,-1.14063 9.28125,-15.36328 18.55859,-30.58593 27.83984,-45.51953 -11.93359,12.99219 -23.87109,26.27734 -35.8125,39.65234 -0.63672,-0.42187 -1.28125,-0.83593 -1.93359,-1.24218 0.24219,-0.90625 0.52734,-1.90625 1.01172,-2.91016 3.55078,-7.37891 6.1289,-6.96484 8.90234,-12.94922 3.05469,-6.57422 2.35547,-8.97656 3.63672,-14.51953 1.8125,-7.87109 4.41406,-10.55859 12.46484,-16.671874 0,0.01953 -12.14453,-0.101562 -17.28906,17.593754 -2.94922,10.15625 -5.33203,11.72265 -8.52344,14.55468 -4.69531,4.16407 -6.47265,5.83985 -8.34765,10.29688 -0.47656,-0.24219 -0.96094,-0.48047 -1.44531,-0.71485 6.3164,-18.25781 11.39062,-33.76171 17.70312,-51.742182 -9.52734,16.566402 -17.81641,30.722652 -27.35156,47.605472 -0.57422,-0.21485 -1.15235,-0.42579 -1.73438,-0.62891 0.0898,-1.56641 0.39063,-3.67969 1.10547,-6.46484 2.07031,-8.04297 4.6875,-8.21485 6.25781,-14.71875 1.73047,-7.16016 0.57813,-9.375 0.76172,-15.132816 0.25782,-8.179688 2.28907,-11.429688 8.99219,-19.300782 0,0 -11.91797,2.671876 -13.54687,21.300782 -0.9336,10.679686 -2.97657,12.749996 -5.57032,16.257816 -4.57422,6.1914 -5.3125,8.10156 -6.32812,15.47265 -0.51563,-0.13672 -1.03125,-0.27734 -1.55078,-0.40625 2.26172,-19.61718 4.125,-37.16406 6.38281,-56.714841 -5.59766,18.777343 -10.80078,35.601561 -16.40625,54.484371 -0.51563,-0.0898 -0.98828,-0.1289 -1.50391,-0.21093 -0.22656,-1.51953 -0.67187,-3.57813 -0.58984,-6.29688 0.25,-8.3789 2.52734,-8.48828 2.75,-15.24609 0.30078,-9.132815 -1.38672,-10.05469 -2.47266,-15.722659 -1.54687,-8.054687 -0.28515,-11.773437 4.48438,-21.320312 0,0 -10.96875,5.910156 -8.46875,24.503906 1.42969,10.660155 -0.10156,13.226565 -1.85156,17.339845 -2.94141,6.90234 -3.64454,9.05469 -3.20313,15.65625 -0.23828,-0.0117 -1.39453,-0.0273 -1.63281,-0.0391 -1.78125,-19.74219 -3.5625,-37.937504 -5.34375,-57.683598 -1.78125,19.746094 -3.5625,37.941408 -5.34375,57.683598 -0.23438,0.008 -1.39453,0.0273 -1.63281,0.0391 0.4414,-6.60156 -0.26172,-8.75391 -3.19922,-15.65625 -1.75391,-4.11328 -3.28516,-6.67969 -1.85156,-17.339845 2.49609,-18.59375 -8.47266,-24.507813 -8.47266,-24.503906 4.76953,9.546875 6.03125,13.265625 4.48437,21.320312 -1.08593,5.667969 -2.77343,6.589844 -2.47265,15.722659 0.22656,6.75781 2.49609,6.86719 2.75,15.24609 0.082,2.71875 -0.36328,4.77735 -0.58985,6.29688 -0.51562,0.082 -0.98828,0.12109 -1.5039,0.21093 -5.60547,-18.88281 -10.69141,-35.230465 -16.292971,-54.011715 2.269531,19.601563 4.019531,36.718755 6.289061,56.378905 -0.51953,0.13672 -1.03515,0.27344 -1.55078,0.41406 -1.02344,-7.49609 -1.74219,-9.38281 -6.347656,-15.61718 -2.59375,-3.50782 -4.636719,-5.57813 -5.570313,-16.257816 C 89.359375,80.835938 77.441406,78.164062 77.441406,78.164062 c 6.703125,7.871094 8.734375,11.121094 8.996094,19.300782 0.179688,5.757816 -0.96875,7.972656 0.757812,15.132816 1.570313,6.5039 4.1875,6.67578 6.257813,14.71875 0.75,2.91796 1.039063,5.08984 1.113281,6.67187 -0.546875,0.19922 -1.09375,0.40234 -1.632812,0.60938 -9.574219,-16.94922 -17.898438,-31.09375 -27.460938,-47.726566 6.339844,18.070316 11.449219,33.593746 17.796875,51.945316 -0.476562,0.23828 -0.953125,0.47656 -1.425781,0.71875 -1.917969,-4.66407 -3.667969,-6.32032 -8.457031,-10.57032 -3.195313,-2.83203 -5.578125,-4.39843 -8.527344,-14.55468 C 59.714844,96.714844 47.570312,96.832031 47.570312,96.816406 c 8.050782,6.113284 10.652344,8.800784 12.46875,16.671874 1.277344,5.54297 0.582032,7.94531 3.632813,14.51953 2.773437,5.98438 5.355469,5.57031 8.902344,12.94922 0.546875,1.13672 0.847656,2.26563 1.105469,3.25781 -0.601563,0.38672 -1.199219,0.76953 -1.785157,1.16407 -12.023437,-13.46875 -24.039062,-26.84375 -36.054687,-39.92188 9.351562,15.04688 18.699218,30.38672 28.050781,45.86719 -0.449219,0.37109 -0.890625,0.74609 -1.328125,1.12109 -2.769531,-3.80859 -4.976562,-4.9414 -10.378906,-7.80859 -3.691406,-1.95313 -6.328125,-2.90235 -11.382813,-12 -8.8125,-15.8125 -20.53125,-12.79297 -20.527343,-12.83594 9.113281,3.99219 12.210937,5.94141 15.679687,13.10547 m -15.023437,25.4375 c 0.09766,0.125 0.199218,0.26562 0.304687,0.40234 h 5.878906 c -0.53125,-0.55859 -1.070312,-1.14453 -1.578125,-1.73047 C 13.699219,143.54297 3.054688,148.92969 3.058594,148.875 c 9.617187,2.00781 13.011718,3.21875 17.871094,9.46875 m 29.742187,0.40234 C 37.402344,149.33984 24.136719,139.96484 10.875,130.78906 c 5.679688,5.98828 16.335938,17.42969 26.101562,27.95703 z m 192.988285,-0.40234 c -0.0977,0.125 -0.20313,0.26562 -0.3086,0.40234 h -5.875 c 0.52735,-0.55859 1.06641,-1.14453 1.57813,-1.73047 11.83203,-13.47265 22.47656,-8.08593 22.47656,-8.14062 -9.62109,2.00781 -13.01563,3.21875 -17.87109,9.46875 m -29.7461,0.40234 c 13.27344,-9.40625 26.53906,-18.78125 39.79688,-27.95703 -5.67969,5.98828 -16.33594,17.42969 -26.09766,27.95703 z m 0,0"
       id="path10" />
  </g>
  <g
     clip-path="url(#clip-4)"
     id="g11">
    <path
       fill-rule="nonzero"
       fill="#000000"
       fill-opacity="1"
       d="m 209.62891,158.10937 c -19.8711,-19.90234 -47.97657,-31.31249 -77.10938,-31.31249 -29.05469,0 -57.109374,11.35937 -76.964842,31.16796 l -0.746094,0.67578 h 1.558594 c 19.652343,-19.59375 47.406252,-30.82812 76.152342,-30.82812 28.75391,0 56.49219,11.23437 76.14453,30.82812 h 1.47266 z m 0,0"
       id="path11" />
  </g>
  <path
     fill-rule="nonzero"
     fill="#ffcd00"
     fill-opacity="1"
     d="m 158.08984,25.972656 c -0.41797,0.625 -0.83593,1.253906 -1.2539,1.890625 -1.98438,3.347657 -3.9961,6.796875 -6,10.339844 -1.47657,-5.859375 -3.12891,-11.726563 -4.84766,-17.585937 -2.39844,5.09375 -4.88281,10.34375 -7.33594,15.707031 -2.0625,-6.339844 -4.23047,-12.632813 -6.33984,-18.84375 -2.11328,6.210937 -4.28516,12.503906 -6.34766,18.839843 -2.44921,-5.363281 -4.92968,-10.613281 -7.32812,-15.707031 -1.72266,5.855469 -3.37891,11.722657 -4.85547,17.582031 -2.0625,-3.457031 -4.13672,-6.820312 -6.1875,-10.074218 -0.34375,-0.785156 -0.68359,-1.5625 -1.02344,-2.339844 0.21094,4.195312 0.67969,9.425781 1.17969,14.722656 0.21875,2.3125 0.46094,4.597656 0.72656,6.820313 0.15625,1.632812 0.33203,3.261719 0.52735,4.890625 h 0.0234 c 0.2461,1.566406 10.44922,2.816406 23.24219,2.816406 13.16016,0 23.56641,-1.324219 23.25,-2.949219 0.0508,-0.367187 0.10156,-0.726562 0.15234,-1.089843 h 0.004 c 0.0234,-0.183594 0.0469,-0.367188 0.0703,-0.550782 0.10547,-0.765625 0.20703,-1.550781 0.30078,-2.347656 0.0117,-0.07031 0.0195,-0.140625 0.0273,-0.210938 0.29297,-2.390624 0.55859,-4.894531 0.79687,-7.398437 0.50391,-5.285156 1.00391,-10.324219 1.21875,-14.511719"
     id="path12" />
  <path
     fill-rule="nonzero"
     fill="#000000"
     fill-opacity="1"
     d="m 156.53125,42.265625 c -0.0156,0.21875 -0.10547,0.28125 -0.13281,0.304687 -0.11328,0.08594 -0.3125,0.09766 -0.56641,0.04297 -0.0625,-0.01172 -0.12891,-0.03125 -0.19922,-0.05469 -7.9414,-2.609375 -15.70312,-3.96875 -23.36328,-3.960938 -7.65234,-0.0078 -15.41797,1.355469 -23.35547,3.96875 -0.57031,0.1875 -0.89453,0.08984 -0.91797,-0.289062 -0.043,-0.605469 0.6211,-0.898438 0.91016,-0.992188 7.94922,-2.621094 15.71094,-3.988281 23.36719,-3.984375 7.65234,-0.0078 15.41406,1.359375 23.37109,3.976563 0.34375,0.117187 0.92969,0.402344 0.88672,0.988281 m -6.41406,3.429687 c 1.18359,1.265626 2.33984,2.5625 3.5,3.875 -7.19922,-2.191406 -14.31641,-3.339843 -21.34766,-3.332031 -7.03125,-0.0078 -14.15234,1.148438 -21.35156,3.339844 1.16016,-1.3125 2.32031,-2.613281 3.50781,-3.878906 0.17969,-0.195313 0.36328,-0.386719 0.54688,-0.582031 -0.21485,-0.09375 -0.42969,-0.183594 -0.64844,-0.273438 -1.41016,-0.585938 -2.84766,-1.113281 -4.28906,-1.609375 7.54297,-2.378906 14.9375,-3.625 22.23828,-3.621094 7.29687,-0.0078 14.6914,1.238281 22.23047,3.613281 -1.44532,0.496094 -2.875,1.023438 -4.28516,1.613282 -0.21875,0.08984 -0.43359,0.179687 -0.65234,0.273437 0.18359,0.191407 0.36718,0.386719 0.55078,0.582031 m 5.26172,6.136719 c -0.0234,0.222657 -0.10938,0.292969 -0.14063,0.3125 -0.11328,0.08984 -0.30469,0.105469 -0.53906,0.05859 -0.0586,-0.01172 -0.125,-0.03125 -0.1875,-0.04687 -7.48438,-2.378906 -14.91016,-3.617188 -22.24219,-3.609375 -7.32812,-0.0039 -14.75781,1.234375 -22.23437,3.613281 -0.0664,0.01953 -0.12891,0.03516 -0.1875,0.04687 -0.64453,0.136719 -0.6836,-0.238281 -0.69532,-0.367187 -0.0625,-0.605469 0.5586,-0.875 0.82813,-0.960938 7.50781,-2.386718 14.94922,-3.628906 22.28906,-3.625 7.34375,-0.0078 14.78516,1.234375 22.29688,3.621094 0.32812,0.105469 0.87109,0.371094 0.8125,0.957031 m -0.082,-1.675781 c -1.29687,-1.5 -2.87109,-3.269531 -4.13671,-4.625 1.33984,-0.546875 3.43359,-1.308594 4.98437,-1.808594 -0.29297,2.3125 -0.60156,4.542969 -0.84766,6.433594 M 132.26953,54.5 c -10.62109,0 -17.8789,-0.820312 -21.01953,-1.679688 7.06641,-2.136718 14.08594,-3.261718 21.01953,-3.257812 6.94531,-0.0039 13.96484,1.117188 21.04297,3.257812 C 150.17187,53.679688 142.89453,54.5 132.26953,54.5 M 108.47656,43.773438 c 1.53516,0.492187 3.55078,1.214843 4.90235,1.765624 -1.35157,1.449219 -2.75782,3 -4.07422,4.519532 -0.29297,-2.15625 -0.57031,-4.242188 -0.82813,-6.285156 m -1.64062,-15.878907 c 2.0664,3.644531 4.3789,7.289063 6.9414,10.9375 -1.66015,0.441407 -3.33203,0.929688 -5.0039,1.484375 -0.26953,0.08984 -0.49219,0.207032 -0.6836,0.335938 -0.51953,-4.367188 -0.94531,-8.582032 -1.2539,-12.757813 m 11.6875,-6.25 c 2.0664,4.992188 4.47265,9.984375 7.21484,14.976563 -3.91797,0.386718 -7.86719,1.121094 -11.86328,2.183594 1.66016,-5.722657 3.21094,-11.4375 4.64844,-17.160157 m 13.78906,-3.203125 v -0.0039 c -0.16406,0.0039 4.76953,15.050781 6.16406,18.148438 -2.07812,-0.195313 -4.14453,-0.300782 -6.20312,-0.296876 -2.05078,0 -4.10157,0.101563 -6.16797,0.292969 2.35156,-6.046875 4.41797,-12.097656 6.20703,-18.144531 v 0.0039 m 18.34375,20.351563 c -3.9375,-1.042969 -7.82813,-1.765625 -11.6875,-2.15625 2.72266,-5.066407 5.10547,-10.136719 7.14844,-15.207031 1.40625,5.789062 2.91797,11.574218 4.53906,17.363281 m 7.19922,-11.183594 c -0.0195,-0.0078 -0.5,6.40625 -1.33203,13.082031 -0.20703,-0.148437 -0.44922,-0.285156 -0.7461,-0.382812 -1.63672,-0.542969 -3.26562,-1.015625 -4.88672,-1.453125 2.57813,-3.75 4.89844,-7.496094 6.96485,-11.246094 m 0.89062,-3.769531 c -2.22656,4.292968 -4.79297,8.585937 -7.69531,12.875 -1.72656,-5.875 -3.33203,-11.753906 -4.81641,-17.628906 -2.125,5.261718 -4.62109,10.523437 -7.49609,15.789062 -2.45312,-6.332031 -4.59375,-12.667969 -6.42578,-19 -1.83203,6.332031 -3.98047,12.664062 -6.43359,18.996094 -2.8711,-5.265625 -5.36719,-10.527344 -7.48828,-15.792969 -1.48829,5.878906 -3.09766,11.753906 -4.82032,17.632813 -2.91406,-4.253907 -5.49218,-8.507813 -7.73437,-12.761719 -0.0547,-0.0039 0.75781,11.402343 1.40625,16.695312 0.0312,0.292969 0.0625,0.585938 0.0937,0.878907 -0.14063,0.320312 -0.19531,0.648437 -0.17188,0.945312 0.0234,0.324219 0.14844,0.644531 0.37891,0.871094 0.28516,2.488281 0.60547,4.933594 0.93359,7.222656 0.0195,0.140625 0.0391,0.28125 0.0586,0.425781 -0.15625,0.339844 -0.21485,0.695313 -0.17969,1.027344 0.0625,0.585937 0.41406,1.183594 1.17578,1.210937 3.82813,2.261719 20.60156,2.335938 22.73828,2.335938 2.14063,0 19.00391,-0.07422 22.77344,-2.355469 0.23437,-0.01563 0.45703,-0.07031 0.63281,-0.203125 0.27734,-0.214844 0.45313,-0.558594 0.49609,-1.003906 0.0312,-0.277344 -0.008,-0.574219 -0.11328,-0.867188 0.0312,-0.1875 0.0547,-0.375 0.082,-0.5625 0.33594,-2.339843 0.66016,-4.839843 0.95313,-7.382812 0.14062,-0.195312 0.24609,-0.425781 0.26953,-0.730469 0.0156,-0.238281 -0.0156,-0.496093 -0.10156,-0.753906 0.043,-0.363281 0.082,-0.722656 0.11719,-1.082031 0.64843,-5.277344 1.42578,-16.78125 1.36718,-16.78125"
     id="path13" />
  <path
     fill-rule="nonzero"
     fill="#000000"
     fill-opacity="1"
     d="m 129.57031,44.207031 h 5.48047 v -2.433593 h -5.48047 z m 6.30469,1.171875 h -7.125 v -4.773437 h 7.125 z m -14.32812,-2.730468 c -0.20704,0 -0.42188,0.01172 -0.63672,0.03906 -1.69532,0.210938 -2.6836,1.128906 -2.65625,1.554688 0.0195,0.328124 0.75781,0.914062 2.16797,0.914062 0.20312,0 0.41796,-0.01563 0.63671,-0.03906 0.77344,-0.09766 1.51954,-0.367188 2.03516,-0.742188 0.44141,-0.316406 0.62891,-0.644531 0.61719,-0.8125 -0.0195,-0.328125 -0.75781,-0.914062 -2.16406,-0.914062 m -1.125,3.675781 c -1.74219,0 -2.91407,-0.777344 -2.98829,-1.980469 -0.0937,-1.5625 1.64063,-2.597656 3.40235,-2.820312 2.07812,-0.257813 3.61328,0.574218 3.69531,1.9375 0.0273,0.425781 -0.0781,1.242187 -1.0625,1.957031 -0.61719,0.445312 -1.44922,0.75 -2.33984,0.863281 -0.24219,0.03125 -0.47657,0.04297 -0.70703,0.04297 m 22.65624,-3.675781 c -1.40625,0 -2.14843,0.585937 -2.16796,0.914062 -0.008,0.167969 0.17578,0.496094 0.62109,0.8125 0.51562,0.375 1.25781,0.644531 2.03516,0.742188 0.21484,0.02344 0.42968,0.03906 0.63671,0.03906 1.40625,0 2.14844,-0.585938 2.16797,-0.914062 0.0273,-0.425782 -0.96093,-1.34375 -2.65625,-1.554688 -0.21875,-0.02344 -0.42968,-0.03906 -0.63672,-0.03906 m 1.125,3.675781 c -0.23046,0 -0.46484,-0.01172 -0.71093,-0.04297 -0.88672,-0.113281 -1.71875,-0.417969 -2.33594,-0.863281 -0.98828,-0.714844 -1.08984,-1.53125 -1.06641,-1.957031 0.0859,-1.363282 1.61328,-2.195313 3.69922,-1.9375 1.76172,0.222656 3.4961,1.257812 3.39844,2.820312 -0.0703,1.203125 -1.24609,1.980469 -2.98438,1.980469"
     id="path14" />
</svg>
