<?xml version="1.0" encoding="UTF-8" standalone="no"?>
<svg
   width="1000"
   height="600"
   viewBox="0 0 264.58333131 158.74999879"
   version="1.1"
   id="svg16"
   sodipodi:docname="newbc.svg"
   inkscape:version="1.4 (e7c3feb100, 2024-10-09)"
   xmlns:inkscape="http://www.inkscape.org/namespaces/inkscape"
   xmlns:sodipodi="http://sodipodi.sourceforge.net/DTD/sodipodi-0.dtd"
   xmlns="http://www.w3.org/2000/svg"
   xmlns:svg="http://www.w3.org/2000/svg">
  <sodipodi:namedview
     id="namedview16"
     pagecolor="#ffffff"
     bordercolor="#000000"
     borderopacity="0.25"
     inkscape:showpageshadow="2"
     inkscape:pageopacity="0.0"
     inkscape:pagecheckerboard="0"
     inkscape:deskcolor="#d1d1d1"
     showguides="true"
     inkscape:zoom="1.3333333"
     inkscape:cx="498.75"
     inkscape:cy="159.75"
     inkscape:window-width="1920"
     inkscape:window-height="1008"
     inkscape:window-x="0"
     inkscape:window-y="0"
     inkscape:window-maximized="1"
     inkscape:current-layer="g15" />
  <defs
     id="defs1">
    <clipPath
       id="a">
      <path
         d="M379.125 376.625H576V494.75H379.125z"
         id="path1" />
    </clipPath>
  </defs>
  <g
     stroke-width=".26249999"
     id="g16">
    <path
       d="M 0,158.75 H 264.58333 V 0 H 0 Z"
       fill="#ffffff"
       id="path2"
       sodipodi:nodetypes="ccccc" />
    <g
       clip-path="url(#a)"
       transform="matrix(1.34392 0 0 -1.34392 -509.51190087 664.90211133)"
       id="g15">
      <path
         d="M379.1254 426.2508c12.289 0 12.325-5.097 24.615-5.097 12.297 0 12.307 5.097 24.603 5.097 12.299 0 12.353-5.097 24.651-5.097 12.304 0 12.304 5.097 24.607 5.097 12.326 0 12.272-5.097 24.597-5.097 12.3 0 12.292 5.097 24.594 5.097 12.308 0 12.271-5.097 24.579-5.097 12.327 0 12.3 5.097 24.628 5.097v9.823c-12.315 0-12.314-5.097-24.628-5.097-12.291 0-12.291 5.097-24.579 5.097-12.297 0-12.297-5.097-24.594-5.097-12.298 0-12.298 5.097-24.597 5.097-12.303 0-12.303-5.097-24.607-5.097-12.325 0-12.325 5.097-24.651 5.097-12.301 0-12.301-5.097-24.603-5.097-12.307 0-12.307 5.097-24.615 5.097zM379.1254 406.7585c12.289 0 12.325-5.097 24.615-5.097 12.297 0 12.307 5.097 24.603 5.097 12.299 0 12.353-5.097 24.651-5.097 12.304 0 12.304 5.097 24.607 5.097 12.326 0 12.272-5.097 24.597-5.097 12.3 0 12.292 5.097 24.594 5.097 12.308 0 12.271-5.097 24.579-5.097 12.327 0 12.3 5.097 24.628 5.097v9.824c-12.315 0-12.314-5.098-24.628-5.098-12.291 0-12.291 5.098-24.579 5.098-12.297 0-12.297-5.098-24.594-5.098-12.298 0-12.298 5.098-24.597 5.098-12.303 0-12.303-5.098-24.607-5.098-12.325 0-12.325 5.098-24.651 5.098-12.301 0-12.301-5.098-24.603-5.098-12.307 0-12.307 5.098-24.615 5.098zM379.1254 387.6442c12.289 0 12.325-5.096 24.615-5.096 12.297 0 12.307 5.096 24.603 5.096 12.299 0 12.353-5.096 24.651-5.096 12.304 0 12.304 5.096 24.607 5.096 12.326 0 12.272-5.096 24.597-5.096 12.3 0 12.292 5.096 24.594 5.096 12.308 0 12.271-5.096 24.579-5.096 12.327 0 12.3 5.096 24.628 5.096v9.824c-12.315 0-12.314-5.098-24.628-5.098-12.291 0-12.291 5.098-24.579 5.098-12.297 0-12.297-5.098-24.594-5.098-12.298 0-12.298 5.098-24.597 5.098-12.303 0-12.303-5.098-24.607-5.098-12.325 0-12.325 5.098-24.651 5.098-12.301 0-12.301-5.098-24.603-5.098-12.307 0-12.307 5.098-24.615 5.098z"
         fill="#0047bb"
         id="path3" />
      <path
         d="m 379.12368,484.72841 c 12.289,0 12.325,-5.097 24.615,-5.097 12.297,0 12.307,5.097 24.603,5.097 12.299,0 12.353,-5.097 24.651,-5.097 12.304,0 12.304,5.097 24.607,5.097 12.326,0 12.272,-5.097 24.597,-5.097 12.3,0 12.292,5.097 24.594,5.097 12.308,0 12.271,-5.097 24.579,-5.097 12.327,0 12.3,5.097 24.628,5.097 v 9.823 c -12.315,0 -12.314,-5.097 -24.628,-5.097 -12.291,0 -12.291,5.097 -24.579,5.097 -12.297,0 -12.297,-5.097 -24.594,-5.097 -12.298,0 -12.298,5.097 -24.597,5.097 -12.303,0 -12.303,-5.097 -24.607,-5.097 -12.325,0 -12.325,5.097 -24.651,5.097 -12.301,0 -12.301,-5.097 -24.603,-5.097 -12.307,0 -12.307,5.097 -24.615,5.097 z m 0,-19.4923 c 12.289,0 12.325,-5.097 24.615,-5.097 12.297,0 12.307,5.097 24.603,5.097 12.299,0 12.353,-5.097 24.651,-5.097 12.304,0 12.304,5.097 24.607,5.097 12.326,0 12.272,-5.097 24.597,-5.097 12.3,0 12.292,5.097 24.594,5.097 12.308,0 12.271,-5.097 24.579,-5.097 12.327,0 12.3,5.097 24.628,5.097 v 9.824 c -12.315,0 -12.314,-5.098 -24.628,-5.098 -12.291,0 -12.291,5.098 -24.579,5.098 -12.297,0 -12.297,-5.098 -24.594,-5.098 -12.298,0 -12.298,5.098 -24.597,5.098 -12.303,0 -12.303,-5.098 -24.607,-5.098 -12.325,0 -12.325,5.098 -24.651,5.098 -12.301,0 -12.301,-5.098 -24.603,-5.098 -12.307,0 -12.307,5.098 -24.615,5.098 z m 0,-19.1143 c 12.289,0 12.325,-5.096 24.615,-5.096 12.297,0 12.307,5.096 24.603,5.096 12.299,0 12.353,-5.096 24.651,-5.096 12.304,0 12.304,5.096 24.607,5.096 12.326,0 12.272,-5.096 24.597,-5.096 12.3,0 12.292,5.096 24.594,5.096 12.308,0 12.271,-5.096 24.579,-5.096 12.327,0 12.3,5.096 24.628,5.096 v 9.824 c -12.315,0 -12.314,-5.098 -24.628,-5.098 -12.291,0 -12.291,5.098 -24.579,5.098 -12.297,0 -12.297,-5.098 -24.594,-5.098 -12.298,0 -12.298,5.098 -24.597,5.098 -12.303,0 -12.303,-5.098 -24.607,-5.098 -12.325,0 -12.325,5.098 -24.651,5.098 -12.301,0 -12.301,-5.098 -24.603,-5.098 -12.307,0 -12.307,5.098 -24.615,5.098 z"
         fill="#0047bb"
         id="path3-3" />
      <path
         d="m 559.1937,406.33439 c -3.158,-0.0148 -9.18,-1.29799 -14.025,-9.98787 -3.445,-6.20057 -5.246,-7.14053 -7.738,-8.44064 -0.166,-0.0855 -0.333,-0.17426 -0.506,-0.26509 l -0.179,-0.095 c -3.648,-1.93484 -5.422,-2.87585 -7.383,-5.41586 -0.058,0.0496 -0.117,0.0993 -0.175,0.14892 19.076,31.1771 22.723,37.52025 22.723,37.52025 0,0 -25.923,-28.37518 -27.961,-30.7536 l -1.54,-1.72678 c -0.197,0.12885 -0.396,0.25876 -0.594,0.38655 0.156,0.57982 0.357,1.24307 0.672,1.89787 1.339,2.78186 2.472,4.0186 3.569,5.21309 1.044,1.13851 2.032,2.21366 3.058,4.42626 1.566,3.37541 1.847,5.37467 2.143,7.49116 0.145,1.03713 0.296,2.11016 0.6,3.43244 1.282,5.55316 2.984,7.45632 9.066,12.07268 l -0.004,0.008 1.181,0.92201 c 0,0 -0.637,0.17321 -1.636,0.10984 -0.085,-0.004 -0.199,-0.0127 -0.338,-0.0275 -0.004,-0.001 -0.007,-0.001 -0.012,-0.001 v -10e-4 c -2.057,-0.22179 -9.517,-1.83029 -12.897,-13.46361 -2.006,-6.90607 -3.645,-8.34136 -5.721,-10.15791 -0.148,-0.12991 -0.3,-0.26298 -0.453,-0.39922 -3.458,-3.06807 -4.841,-4.39775 -6.212,-7.52813 -0.035,0.0179 -0.07,0.0349 -0.106,0.0528 1.323,3.82638 2.56,7.46899 3.739,10.97325 9.598,27.38664 11.101,32.40539 11.101,32.40539 0,0 -19.205,-32.88805 -20.548,-35.38897 l -2.494,-4.41254 c -0.106,0.0401 -0.211,0.0792 -0.318,0.11935 0.097,1.27581 0.36,2.75651 0.786,4.41042 0.781,3.03322 1.657,4.5023 2.505,5.9228 0.808,1.35397 1.571,2.63295 2.152,5.04094 0.888,3.67429 0.776,5.70841 0.658,7.86081 -0.058,1.05613 -0.118,2.14818 -0.075,3.52115 0.175,5.54999 1.395,7.87032 5.996,13.33688 l 0.013,0.0158 c 0.179,0.21334 0.354,0.42034 0.543,0.64319 l -0.002,0.002 0.977,1.16703 c 0,0 -0.634,0.0306 -1.572,-0.23658 -0.908,-0.23974 -9.25,-2.80087 -10.434,-16.34369 -0.636,-7.25987 -1.969,-9.04157 -3.658,-11.29642 -0.122,-0.1637 -0.246,-0.32951 -0.373,-0.50061 -3.327,-4.5023 -3.996,-6.0094 -4.745,-11.25628 -0.033,0.007 -0.066,0.0169 -0.099,0.0253 0.104,0.90194 0.201,1.79438 0.301,2.69104 l 0.015,0.0232 c 4.223,36.85172 4.725,43.52755 4.725,43.52755 0,0 -11.391,-37.04922 -12.238,-39.86699 l -1.301,-4.39985 c -0.028,0.002 -0.056,0.006 -0.083,0.01 -0.037,0.005 -0.074,0.01 -0.111,0.0148 -0.009,0.0591 -0.02,0.11934 -0.029,0.17954 -0.172,1.04452 -0.385,2.34356 -0.337,3.97212 0.097,3.20432 0.596,4.72304 1.079,6.19212 0.455,1.38249 0.885,2.68892 0.967,5.14866 0.157,4.77162 -0.395,6.58184 -1.035,8.67932 -0.28,0.91778 -0.569,1.86725 -0.815,3.15468 -1.063,5.5352 -0.355,8.13541 3.031,14.9686 l 0.942,1.87886 c 0,0 -0.7,-0.14786 -1.629,-0.715 -0.022,-0.0137 -0.046,-0.0285 -0.069,-0.0422 -0.043,-0.0275 -0.082,-0.0486 -0.126,-0.0771 l 0.001,-0.002 c -0.691,-0.45413 -1.848,-1.4036 -2.96,-2.87163 -2.07,-2.73433 -4.311,-7.67915 -3.233,-15.70367 0.973,-7.25037 0.066,-9.34468 -1.082,-11.99664 -0.084,-0.19116 -0.168,-0.38654 -0.253,-0.58615 -2.074,-4.86879 -2.72,-6.62831 -2.469,-11.29537 -0.03,10e-4 -0.058,10e-4 -0.087,0.002 -0.015,10e-4 -0.03,10e-4 -0.044,10e-4 -0.421,4.66072 -0.873,9.19788 -1.334,13.69807 -2.465,27.23773 -3.141,31.72841 -3.141,31.72841 0,0 -0.676,-4.49068 -3.142,-31.72841 -0.461,-4.50019 -0.913,-9.03735 -1.333,-13.69807 -0.015,0 -0.03,0 -0.045,-10e-4 -0.029,-0.001 -0.058,-0.001 -0.087,-0.002 0.251,4.66706 -0.395,6.42658 -2.469,11.29537 -0.085,0.19961 -0.169,0.39499 -0.252,0.58615 -1.149,2.65196 -2.057,4.74627 -1.082,11.99664 1.078,8.02452 -1.164,12.96934 -3.234,15.70367 -1.112,1.46803 -2.268,2.4175 -2.961,2.87163 l 0.002,0.002 c -0.043,0.0285 -0.083,0.0496 -0.125,0.0771 -0.024,0.0137 -0.047,0.0285 -0.07,0.0422 -0.929,0.56714 -1.629,0.715 -1.629,0.715 l 0.942,-1.87886 c 3.386,-6.83319 4.094,-9.4334 3.032,-14.9686 -0.247,-1.28743 -0.536,-2.2369 -0.816,-3.15468 -0.639,-2.09748 -1.192,-3.9077 -1.034,-8.67932 0.081,-2.45974 0.511,-3.76617 0.966,-5.14866 0.483,-1.46908 0.982,-2.9878 1.079,-6.19212 0.049,-1.62856 -0.165,-2.9276 -0.336,-3.97212 -0.011,-0.0602 -0.021,-0.1204 -0.03,-0.17954 -0.037,-0.005 -0.074,-0.01 -0.11,-0.0148 -0.028,-0.003 -0.056,-0.007 -0.083,-0.01 l -1.301,4.39985 c -0.848,2.81777 -12.239,39.86699 -12.239,39.86699 0,0 0.503,-6.67583 4.725,-43.52755 l 0.015,-0.0232 c 0.1,-0.89666 0.197,-1.7891 0.301,-2.69104 -0.033,-0.008 -0.065,-0.0179 -0.098,-0.0253 -0.749,5.24688 -1.419,6.75398 -4.746,11.25628 -0.126,0.1711 -0.251,0.33691 -0.373,0.50061 -1.689,2.25485 -3.023,4.03655 -3.658,11.29642 -1.185,13.54282 -9.526,16.10395 -10.434,16.34369 -0.938,0.26721 -1.573,0.23658 -1.573,0.23658 l 0.978,-1.16703 -0.002,-0.002 c 0.19,-0.22285 0.364,-0.42985 0.543,-0.64319 l 0.013,-0.0158 c 4.602,-5.46656 5.82,-7.78689 5.996,-13.33688 0.044,-1.37297 -0.016,-2.46502 -0.074,-3.52115 -0.119,-2.1524 -0.231,-4.18652 0.657,-7.86081 0.581,-2.40799 1.345,-3.68697 2.153,-5.04094 0.847,-1.4205 1.724,-2.88958 2.504,-5.9228 0.426,-1.65391 0.69,-3.13461 0.786,-4.41042 -0.107,-0.0401 -0.212,-0.0792 -0.318,-0.11935 l -2.494,4.41254 c -1.343,2.50092 -20.548,35.38897 -20.548,35.38897 0,0 1.503,-5.01875 11.101,-32.40539 1.179,-3.50426 2.415,-7.14687 3.739,-10.97325 -0.035,-0.0179 -0.07,-0.0349 -0.105,-0.0528 -1.371,3.13038 -2.754,4.46006 -6.213,7.52813 -0.153,0.13624 -0.304,0.26931 -0.453,0.39922 -2.075,1.81655 -3.715,3.25184 -5.721,10.15791 -3.38,11.63332 -10.84,13.24182 -12.897,13.46361 v 10e-4 c -0.004,0 -0.008,0 -0.012,0.001 -0.139,0.0148 -0.253,0.0232 -0.338,0.0275 -0.998,0.0634 -1.636,-0.10984 -1.636,-0.10984 l 1.181,-0.92201 -0.003,-0.008 c 6.081,-4.61636 7.783,-6.51952 9.065,-12.07268 0.305,-1.32228 0.455,-2.39531 0.6,-3.43244 0.297,-2.11649 0.577,-4.11575 2.144,-7.49116 1.025,-2.2126 2.013,-3.28775 3.058,-4.42626 1.096,-1.19449 2.23,-2.43123 3.569,-5.21309 0.314,-0.6548 0.515,-1.31805 0.671,-1.89787 -0.198,-0.12779 -0.397,-0.2577 -0.593,-0.38655 l -1.541,1.72678 c -2.038,2.37842 -27.961,30.7536 -27.961,30.7536 0,0 3.647,-6.34315 22.724,-37.52025 -0.059,-0.0496 -0.118,-0.0993 -0.176,-0.14892 -1.961,2.54001 -3.735,3.48102 -7.383,5.41586 l -0.179,0.095 c -0.172,0.0908 -0.34,0.17955 -0.506,0.26509 -2.492,1.30011 -4.293,2.24007 -7.738,8.44064 -4.845,8.68988 -10.866,9.97308 -14.025,9.98787 -1.11,0.005 -2.361,-0.20384 -3.87,-0.602 0,0 1.227,-0.35169 2.34,-0.84068 6.565,-2.89593 8.601,-4.37135 10.989,-9.30139 0.583,-1.2061 0.963,-2.20943 1.33,-3.18002 0.748,-1.97392 1.454,-3.83799 3.694,-6.72652 1.469,-1.89893 2.653,-2.7016 3.906,-3.55179 1.315,-0.89243 2.674,-1.81549 4.567,-4.19074 0.363,-0.45625 0.64,-0.91884 0.855,-1.31594 h 115.642 c 0.215,0.3971 0.491,0.85969 0.854,1.31594 1.893,2.37525 3.253,3.29831 4.567,4.19074 1.254,0.85019 2.438,1.65286 3.906,3.55179 2.241,2.88853 2.947,4.7526 3.694,6.72652 0.367,0.97059 0.747,1.97392 1.331,3.18002 2.387,4.93004 4.423,6.40546 10.988,9.30139 1.114,0.48899 2.341,0.84068 2.341,0.84068 -1.51,0.39816 -2.761,0.60728 -3.871,0.602 M 417.8256,376.6252 c -5.601,3.99325 -33.438,23.33425 -33.438,23.33425 0,0 14.18,-15.44915 21.484,-23.33425 z m -23.6051,0 h 5.85 l -0.386,0.40767 c -0.423,0.4478 -0.813,0.87659 -1.159,1.27264 -5.083,5.78762 -10.015,7.00218 -13.081,7.00218 -1.587,0 -3.066,-0.27777 -4.186,-0.77626 -1.121,-0.49744 -1.642,-0.85336 -1.642,-0.85336 l 1.677,-0.27354 c 6.874,-1.43317 9.415,-2.28442 12.927,-6.77933 m 143.0785,0 c 5.601,3.99325 33.438,23.33425 33.438,23.33425 0,0 -14.181,-15.44915 -21.484,-23.33425 z m 23.6047,0 h -5.85 l 0.386,0.40767 c 0.423,0.4478 0.813,0.87659 1.159,1.27264 5.083,5.78762 10.014,7.00218 13.081,7.00218 1.586,0 3.065,-0.27777 4.186,-0.77626 1.121,-0.49744 1.642,-0.85336 1.642,-0.85336 l -1.677,-0.27354 c -6.874,-1.43317 -9.415,-2.28442 -12.927,-6.77933"
         id="path9"
         style="stroke-width:0.269767" />
      <path
         d="m 405.876,395.8532 c 1.817,-3.75562 1.708,-5.61019 4.961,-9.80411 2.955,-3.81792 4.736,-3.05117 8.468,-7.73619 0.448,-0.56397 0.781,-1.14062 1.064,-1.6877 h 114.423 c -0.008,0.01 -0.016,0.0179 -0.024,0.0275 0.28,0.53757 0.611,1.10683 1.051,1.66024 3.732,4.68502 5.513,3.91827 8.468,7.73619 3.253,4.19392 3.144,6.04849 4.961,9.80411 2.582,5.33031 4.886,6.78144 11.668,9.75129 0,-0.0306 -8.717,2.21472 -15.275,-9.54957 -3.761,-6.76983 -5.723,-7.47533 -8.471,-8.92962 -3.9,-2.06897 -5.562,-2.9255 -7.54,-5.56478 -0.334,0.28516 -0.671,0.56714 -1.013,0.84808 6.906,11.43055 13.81,22.75654 20.715,33.86919 -8.881,-9.66575 -17.762,-19.55117 -26.648,-29.50419 -0.473,0.31262 -0.953,0.62101 -1.438,0.92518 0.178,0.67381 0.393,1.41627 0.753,2.16507 2.64,5.48874 4.56,5.18246 6.623,9.63407 2.272,4.89202 1.753,6.679 2.705,10.80532 1.351,5.85521 3.286,7.85658 9.277,12.4043 0,-0.0127 -9.038,0.076 -12.864,-13.09185 -2.195,-7.55559 -3.968,-8.72156 -6.345,-10.82855 -3.493,-3.0987 -4.815,-4.34705 -6.21,-7.66226 -0.355,0.17954 -0.715,0.35697 -1.076,0.53123 4.701,13.58718 8.476,25.12229 13.173,38.50141 -7.089,-12.32827 -13.257,-22.85899 -20.353,-35.42277 -0.427,0.15947 -0.857,0.31578 -1.29,0.46892 0.068,1.16598 0.291,2.73645 0.824,4.80859 1.541,5.98511 3.487,6.11396 4.655,10.95423 1.287,5.32609 0.431,6.97366 0.566,11.2584 0.193,6.08651 1.706,8.504 6.693,14.36238 0,0 -8.868,-1.9887 -10.08,-15.84942 -0.695,-7.94636 -2.215,-9.48832 -4.145,-12.09908 -3.403,-4.60686 -3.953,-6.02737 -4.708,-11.51293 -0.385,0.1035 -0.769,0.207 -1.156,0.30311 1.685,14.59579 3.069,27.65278 4.751,42.2021 -4.167,-13.97267 -8.037,-26.49104 -12.208,-40.54291 -0.383,0.0665 -0.735,0.0961 -1.119,0.15842 -0.169,1.13112 -0.5,2.66251 -0.439,4.68607 0.187,6.23331 1.879,6.31463 2.045,11.34289 0.225,6.79623 -1.031,7.48272 -1.84,11.69881 -1.149,5.99357 -0.21,8.76064 3.337,15.8642 10e-4,0.002 -8.16,-4.39774 -6.302,-18.23311 1.066,-7.93263 -0.073,-9.84213 -1.377,-12.90069 -2.189,-5.13704 -2.711,-6.7392 -2.384,-11.65234 -0.175,0.0116 -1.038,0.0232 -1.213,0.0317 -1.327,14.68979 -2.652,28.22733 -3.977,42.92028 -1.325,-14.69295 -2.65,-28.23049 -3.977,-42.92028 -0.175,-0.008 -1.038,-0.0201 -1.213,-0.0317 0.327,4.91314 -0.195,6.5153 -2.383,11.65234 -1.305,3.05856 -2.444,4.96806 -1.378,12.90069 1.859,13.83537 -6.302,18.23523 -6.302,18.23311 3.547,-7.10356 4.486,-9.87063 3.337,-15.8642 -0.809,-4.21609 -2.064,-4.90258 -1.84,-11.69881 0.166,-5.02826 1.857,-5.10958 2.045,-11.34289 0.061,-2.02356 -0.269,-3.55495 -0.439,-4.68607 -0.384,-0.0623 -0.736,-0.0919 -1.118,-0.15842 -4.172,14.05187 -7.956,26.21538 -12.123,40.18911 1.686,-14.58312 2.989,-27.32222 4.677,-41.95075 -0.385,-0.10033 -0.77,-0.20277 -1.152,-0.30839 -0.763,5.57851 -1.298,6.98317 -4.724,11.62066 -1.93,2.61076 -3.449,4.15272 -4.145,12.09908 -1.212,13.86072 -10.08,15.84942 -10.08,15.84942 4.987,-5.85838 6.5,-8.27587 6.693,-14.36238 0.135,-4.28474 -0.721,-5.93231 0.566,-11.2584 1.168,-4.84027 3.115,-4.96912 4.655,-10.95423 0.558,-2.17036 0.774,-3.78519 0.83,-4.9649 -0.408,-0.14785 -0.814,-0.29888 -1.217,-0.45308 -7.122,12.61131 -13.318,23.13887 -20.434,35.51255 4.72,-13.4446 8.52,-24.99661 13.244,-38.65032 -0.355,-0.17638 -0.709,-0.35381 -1.06,-0.53441 -1.427,3.4694 -2.731,4.70297 -6.295,7.86504 -2.376,2.10699 -4.15,3.27296 -6.345,10.82855 -3.826,13.16789 -12.864,13.07918 -12.864,13.09185 5.991,-4.54772 7.926,-6.54909 9.277,-12.4043 0.952,-4.12632 0.433,-5.9133 2.704,-10.80532 2.064,-4.45161 3.984,-4.14533 6.624,-9.63407 0.407,-0.84702 0.63,-1.68559 0.822,-2.42594 -0.447,-0.28516 -0.89,-0.57242 -1.328,-0.86392 -8.946,10.01956 -17.886,19.97257 -26.827,29.7038 6.957,-11.19609 13.913,-22.60974 20.872,-34.12795 -0.333,-0.2767 -0.662,-0.55552 -0.988,-0.8354 -2.062,2.83361 -3.704,3.67852 -7.722,5.81086 -2.748,1.45429 -4.709,2.15979 -8.47,8.92962 -6.559,11.76429 -15.277,9.51894 -15.276,9.54957 6.782,-2.96985 9.086,-4.42098 11.668,-9.75129 M 394.6966,376.9256 c 0.072,-0.0929 0.15,-0.19644 0.227,-0.29994 h 4.374 c -0.394,0.41612 -0.795,0.85336 -1.174,1.28849 -8.805,10.02483 -16.726,6.01786 -16.725,6.05693 7.157,-1.49232 9.682,-2.3932 13.298,-7.04548 m 22.133,-0.30036 c -9.876,7.00006 -19.746,13.97689 -29.615,20.80481 4.228,-4.45795 12.157,-12.97146 19.422,-20.80481 z m 143.5984,0.30036 c -0.072,-0.0929 -0.15,-0.19644 -0.227,-0.29994 h -4.374 c 0.394,0.41612 0.795,0.85336 1.174,1.28849 8.805,10.02483 16.726,6.01786 16.725,6.05693 -7.157,-1.49232 -9.683,-2.3932 -13.298,-7.04548 m -22.1331,-0.30036 c 9.876,7.00006 19.747,13.97689 29.614,20.80375 -4.227,-4.45689 -12.156,-12.9704 -19.42,-20.80375 z"
         fill="#ffcd00"
         id="path11"
         style="stroke-width:0.269767" />
      <path
         d="m 535.1061,377.10004 c -14.784,14.80807 -35.697,23.30045 -57.376,23.30045 -21.619,0 -42.493,-8.4533 -57.268,-23.19167 l -0.557,-0.50378 h 1.161 c 14.623,14.57889 35.275,22.93926 56.664,22.93926 21.396,0 42.037,-8.36037 56.66,-22.93926 h 1.094 z"
         id="path12"
         style="stroke-width:0.269767" />
      <path
         d="m 496.75797,475.42363 c -0.31086,-0.46758 -0.62307,-0.93516 -0.93529,-1.40856 -1.47655,-2.48922 -2.9722,-5.058 -4.46238,-7.69273 -1.09889,4.35954 -2.32868,8.7249 -3.6089,13.08442 -1.78468,-3.79105 -3.63208,-7.6966 -5.45766,-11.6875 -1.53381,4.71652 -3.14671,9.40006 -4.71733,14.02152 -1.57335,-4.62146 -3.18761,-9.30306 -4.72279,-14.01959 -1.82285,3.99285 -3.66888,7.89839 -5.45357,11.68946 -1.28158,-4.35759 -2.51272,-8.72295 -3.61162,-13.08249 -1.53518,2.57265 -3.07853,5.07546 -4.60554,7.49484 -0.25632,0.58398 -0.50854,1.16409 -0.76077,1.74226 0.15679,-3.12172 0.50582,-7.01562 0.87803,-10.95607 0.16088,-1.72092 0.34221,-3.42051 0.5399,-5.07546 0.11725,-1.2126 0.24813,-2.4252 0.39129,-3.6378 h 0.0191 c 0.18405,-1.16603 7.77543,-2.0973 17.29462,-2.0973 9.79188,0 17.53595,0.98559 17.30008,2.19625 0.0368,0.27162 0.075,0.54131 0.11179,0.81099 h 0.003 c 0.0191,0.13575 0.0368,0.27356 0.0545,0.40937 0.0763,0.5704 0.15134,1.1544 0.2236,1.74808 0.007,0.0504 0.0123,0.1029 0.0191,0.15522 0.21678,1.77912 0.4172,3.64361 0.59308,5.50616 0.37357,3.93271 0.74713,7.68303 0.90802,10.79893"
         fill="#ffcd00"
         id="path13"
         style="stroke-width:0.426931" />
      <path
         d="m 495.59786,463.29958 c -0.0109,-0.16297 -0.0777,-0.21148 -0.0995,-0.22894 -0.0845,-0.0621 -0.23314,-0.0719 -0.41992,-0.0311 -0.0478,0.009 -0.0968,0.0252 -0.14998,0.0408 -5.90757,1.94209 -11.68562,2.95485 -17.38324,2.94709 -5.69625,0.006 -11.47294,-1.00693 -17.37915,-2.95291 -0.42538,-0.13965 -0.66534,-0.066 -0.68443,0.21535 -0.03,0.45206 0.46355,0.66741 0.67761,0.7392 5.91575,1.94987 11.69109,2.96651 17.38733,2.96262 5.69489,0.006 11.47158,-1.00888 17.39006,-2.95873 0.25768,-0.0854 0.69124,-0.29879 0.66125,-0.73338 m -4.7746,-2.55326 c 0.88347,-0.94098 1.74378,-1.90524 2.60544,-2.88307 -5.3554,1.62973 -10.65218,2.48535 -15.88351,2.47953 -5.2327,0.005 -10.53084,-0.85368 -15.8876,-2.48535 0.86166,0.97783 1.72469,1.94404 2.60816,2.88501 0.13498,0.1455 0.27132,0.28909 0.40902,0.43459 -0.16088,0.0699 -0.32176,0.13575 -0.48264,0.20373 -1.04981,0.43653 -2.11871,0.82844 -3.19306,1.19708 5.61309,1.76941 11.11437,2.69682 16.54748,2.69487 5.43039,0.006 10.93167,-0.92157 16.5434,-2.68905 -1.07572,-0.36864 -2.14189,-0.76248 -3.19034,-1.19903 -0.16224,-0.0679 -0.32312,-0.1338 -0.48537,-0.20371 0.13634,-0.14355 0.27268,-0.28908 0.40902,-0.4346 m 3.91566,-4.56519 c -0.0178,-0.16686 -0.0818,-0.2173 -0.10499,-0.23281 -0.0818,-0.066 -0.22495,-0.0795 -0.40082,-0.0428 -0.0437,0.007 -0.0913,0.0213 -0.13771,0.0349 -5.56946,1.76943 -11.09664,2.691 -16.55021,2.68518 -5.45221,0.002 -10.98076,-0.91964 -16.54612,-2.68905 -0.0478,-0.0154 -0.0941,-0.0252 -0.13907,-0.0349 -0.47991,-0.10095 -0.50855,0.1785 -0.51809,0.27163 -0.045,0.45206 0.4172,0.65189 0.61626,0.71591 5.58718,1.77525 11.12527,2.7007 16.58702,2.69877 5.46447,0.006 11.0012,-0.91964 16.58974,-2.69489 0.24405,-0.0775 0.64762,-0.2755 0.60399,-0.71203 m -0.0614,1.24752 c -0.96256,1.11364 -2.13508,2.43295 -3.07581,3.4399 0.99527,0.40743 2.55363,0.97395 3.70842,1.34646 -0.2195,-1.72092 -0.44856,-3.37975 -0.63261,-4.78636 m -17.13238,-3.23231 c -7.90358,0 -13.30534,0.60921 -15.64083,1.24752 5.25724,1.59093 10.48039,2.42714 15.64083,2.4252 5.16589,0.004 10.39177,-0.83038 15.65582,-2.42325 -2.33549,-0.64026 -7.74951,-1.24947 -15.65582,-1.24947 m -17.70637,7.98182 c 1.14253,-0.36669 2.64498,-0.90411 3.64844,-1.31543 -1.00346,-1.07679 -2.05191,-2.23119 -3.02945,-3.36229 -0.21951,1.6045 -0.42539,3.15663 -0.61899,4.67772 m -1.21888,11.81362 c 1.53792,-2.71234 3.25852,-5.42469 5.16454,-8.13703 -1.23523,-0.32982 -2.47865,-0.69263 -3.72479,-1.10589 -0.19906,-0.066 -0.36403,-0.15327 -0.50718,-0.25028 -0.3872,3.2517 -0.70351,6.387 -0.93257,9.4932 m 8.69708,4.65056 c 1.53792,-3.71541 3.32804,-7.42887 5.36632,-11.14427 -2.91357,-0.28714 -5.85305,-0.83233 -8.82661,-1.62391 1.2366,4.2567 2.39003,8.51148 3.46029,12.76818 m 10.25816,2.38446 v 0.001 c -0.12134,-0.001 3.54891,-11.1986 4.58782,-13.50156 -1.54609,0.14355 -3.08264,0.22311 -4.61645,0.22117 -1.52427,0 -3.05264,-0.0776 -4.58781,-0.21924 1.74787,4.49924 3.28713,9.00041 4.61644,13.49963 v -0.001 m 13.65028,-15.14489 c -2.92993,0.77801 -5.82578,1.31543 -8.69707,1.60452 2.02599,3.77166 3.79841,7.54334 5.31859,11.315 1.04708,-4.30715 2.17324,-8.61236 3.37848,-12.91952 m 5.35677,8.32329 c -0.0136,0.004 -0.37221,-4.76697 -0.98983,-9.73572 -0.15406,0.1125 -0.33539,0.21147 -0.55626,0.28521 -1.21751,0.40355 -2.43093,0.75666 -3.63616,1.08066 1.91965,2.78996 3.6457,5.5799 5.18225,8.36985 m 0.66397,2.80352 c -1.65789,-3.1935 -3.56664,-6.387 -5.72761,-9.5805 -1.28431,4.37311 -2.47865,8.74624 -3.58436,13.11936 -1.5788,-3.91719 -3.4371,-7.83243 -5.57763,-11.74961 -1.82422,4.71264 -3.41666,9.4253 -4.78142,14.13794 -1.36339,-4.71071 -2.95992,-9.42335 -4.7855,-14.13405 -2.13644,3.91717 -3.99474,7.83241 -5.57218,11.75154 -1.10707,-4.37507 -2.30414,-8.74818 -3.58708,-13.1213 -2.16916,3.16634 -4.08609,6.33074 -5.75489,9.49514 -0.0423,0.005 0.56445,-8.48237 1.04573,-12.42089 0.0231,-0.21924 0.0464,-0.43654 0.0709,-0.65578 -0.10635,-0.2367 -0.14453,-0.48116 -0.12817,-0.70428 0.0177,-0.24057 0.10908,-0.47727 0.28087,-0.648 0.21404,-1.84898 0.45128,-3.66885 0.69396,-5.37231 0.015,-0.10665 0.0314,-0.21147 0.045,-0.31818 -0.11726,-0.25223 -0.16088,-0.51803 -0.13498,-0.76248 0.0478,-0.43655 0.30813,-0.88083 0.87666,-0.90218 2.84676,-1.68211 15.32997,-1.73838 16.91969,-1.73838 1.59244,0 14.13973,0.0563 16.94423,1.75196 0.17588,0.012 0.34085,0.0524 0.47173,0.15133 0.20724,0.15909 0.33539,0.41714 0.36812,0.74697 0.0231,0.20565 -0.004,0.42878 -0.0832,0.64607 0.0218,0.13965 0.0409,0.27939 0.0614,0.41713 0.2495,1.74227 0.49082,3.60288 0.70896,5.49453 0.10498,0.1455 0.18269,0.31818 0.19906,0.54324 0.0136,0.1785 -0.0109,0.37058 -0.0737,0.56265 0.03,0.26774 0.0587,0.53549 0.0873,0.80322 0.48264,3.92883 1.05935,12.48881 1.01709,12.48686"
         id="path14"
         style="stroke-width:0.426931" />
      <path
         d="m 475.53623,461.8528 h 4.0779 v 1.81211 h -4.0779 z m 4.69007,-0.87114 h -5.30087 v 3.55244 h 5.30087 z m -10.66049,2.03154 c -0.15407,0 -0.31359,-0.009 -0.47447,-0.0291 -1.26113,-0.15715 -1.99737,-0.83814 -1.97692,-1.15633 0.015,-0.24446 0.56581,-0.68099 1.6129,-0.68099 0.15269,0 0.31221,0.012 0.47445,0.0311 0.57672,0.0718 1.13026,0.27357 1.5161,0.55101 0.32721,0.2367 0.46764,0.47922 0.45946,0.60533 -0.015,0.24252 -0.56581,0.67905 -1.61152,0.67905 m -0.83849,-2.73561 c -1.29523,0 -2.16779,0.57816 -2.22233,1.47451 -0.0709,1.16216 1.22024,1.93434 2.53318,2.09925 1.54609,0.19208 2.68725,-0.42877 2.74859,-1.44153 0.0191,-0.31626 -0.0586,-0.92547 -0.79212,-1.45707 -0.45947,-0.33177 -1.07708,-0.55876 -1.73969,-0.64219 -0.17997,-0.0233 -0.35584,-0.033 -0.52763,-0.033 m 16.85929,2.73561 c -1.04572,0 -1.5979,-0.43653 -1.6129,-0.67905 -0.007,-0.12615 0.13226,-0.36863 0.46084,-0.60533 0.38447,-0.27744 0.93801,-0.47922 1.51472,-0.55101 0.16225,-0.0193 0.32176,-0.031 0.47446,-0.031 1.04708,0 1.59926,0.43653 1.61426,0.68099 0.0191,0.31819 -0.71579,0.99918 -1.97692,1.15633 -0.16225,0.0194 -0.3204,0.0291 -0.47446,0.0291 m 0.83712,-2.73561 c -0.17042,0 -0.3463,0.009 -0.52763,0.033 -0.66125,0.0834 -1.27886,0.31043 -1.73833,0.6422 -0.73622,0.5316 -0.81257,1.14081 -0.79349,1.45707 0.0627,1.01275 1.19978,1.6336 2.75132,1.44153 1.31159,-0.16491 2.60272,-0.9371 2.53046,-2.09925 -0.0545,-0.89636 -0.92711,-1.47452 -2.22233,-1.47452"
         id="path15"
         style="stroke-width:0.426931" />
    </g>
  </g>
</svg>
