<?xml version="1.0" encoding="UTF-8"?>
<svg xmlns="http://www.w3.org/2000/svg" xmlns:xlink="http://www.w3.org/1999/xlink" width="600" height="1000" viewBox="0 0 600 1000">
<defs>
<clipPath id="clip-0">
<path clip-rule="nonzero" d="M 0 78 L 264.585938 78 L 264.585938 151 L 0 151 Z M 0 78 "/>
</clipPath>
<clipPath id="clip-1">
<path clip-rule="nonzero" d="M 0 0 L 264.585938 0 L 264.585938 73 L 0 73 Z M 0 0 "/>
</clipPath>
<clipPath id="clip-2">
<path clip-rule="nonzero" d="M 0 65 L 264 65 L 264 158.75 L 0 158.75 Z M 0 65 "/>
</clipPath>
<clipPath id="clip-3">
<path clip-rule="nonzero" d="M 3 69 L 262 69 L 262 158.75 L 3 158.75 Z M 3 69 "/>
</clipPath>
<clipPath id="clip-4">
<path clip-rule="nonzero" d="M 54 126 L 211 126 L 211 158.75 L 54 158.75 Z M 54 126 "/>
</clipPath>
</defs>
<path fill-rule="nonzero" fill="rgb(100%, 100%, 100%)" fill-opacity="1" d="M 0 158.75 L 264.582031 158.75 L 264.582031 0 L 0 0 Z M 0 158.75 "/>
<g clip-path="url(#clip-0)">
<path fill-rule="nonzero" fill="rgb(0%, 27.843137%, 73.333333%)" fill-opacity="1" d="M 0.00390625 92.054688 C 16.519531 92.054688 16.566406 98.90625 33.082031 98.90625 C 49.609375 98.90625 49.621094 92.054688 66.148438 92.054688 C 82.675781 92.054688 82.75 98.90625 99.277344 98.90625 C 115.8125 98.90625 115.8125 92.054688 132.347656 92.054688 C 148.910156 92.054688 148.839844 98.90625 165.402344 98.90625 C 181.933594 98.90625 181.921875 92.054688 198.453125 92.054688 C 214.996094 92.054688 214.945312 98.90625 231.488281 98.90625 C 248.054688 98.90625 248.015625 92.054688 264.585938 92.054688 L 264.585938 78.855469 C 248.035156 78.855469 248.035156 85.703125 231.488281 85.703125 C 214.96875 85.703125 214.96875 78.855469 198.453125 78.855469 C 181.929688 78.855469 181.929688 85.703125 165.402344 85.703125 C 148.875 85.703125 148.875 78.855469 132.347656 78.855469 C 115.8125 78.855469 115.8125 85.703125 99.277344 85.703125 C 82.710938 85.703125 82.710938 78.855469 66.148438 78.855469 C 49.617188 78.855469 49.617188 85.703125 33.082031 85.703125 C 16.542969 85.703125 16.542969 78.855469 0.00390625 78.855469 Z M 0.00390625 118.25 C 16.519531 118.25 16.566406 125.101562 33.082031 125.101562 C 49.609375 125.101562 49.621094 118.25 66.148438 118.25 C 82.675781 118.25 82.75 125.101562 99.277344 125.101562 C 115.8125 125.101562 115.8125 118.25 132.347656 118.25 C 148.910156 118.25 148.839844 125.101562 165.402344 125.101562 C 181.933594 125.101562 181.921875 118.25 198.453125 118.25 C 214.996094 118.25 214.945312 125.101562 231.488281 125.101562 C 248.054688 125.101562 248.015625 118.25 264.585938 118.25 L 264.585938 105.046875 C 248.035156 105.046875 248.035156 111.898438 231.488281 111.898438 C 214.96875 111.898438 214.96875 105.046875 198.453125 105.046875 C 181.929688 105.046875 181.929688 111.898438 165.402344 111.898438 C 148.875 111.898438 148.875 105.046875 132.347656 105.046875 C 115.8125 105.046875 115.8125 111.898438 99.277344 111.898438 C 82.710938 111.898438 82.710938 105.046875 66.148438 105.046875 C 49.617188 105.046875 49.617188 111.898438 33.082031 111.898438 C 16.542969 111.898438 16.542969 105.046875 0.00390625 105.046875 Z M 0.00390625 143.9375 C 16.519531 143.9375 16.566406 150.789062 33.082031 150.789062 C 49.609375 150.789062 49.621094 143.9375 66.148438 143.9375 C 82.675781 143.9375 82.75 150.789062 99.277344 150.789062 C 115.8125 150.789062 115.8125 143.9375 132.347656 143.9375 C 148.910156 143.9375 148.839844 150.789062 165.402344 150.789062 C 181.933594 150.789062 181.921875 143.9375 198.453125 143.9375 C 214.996094 143.9375 214.945312 150.789062 231.488281 150.789062 C 248.054688 150.789062 248.015625 143.9375 264.585938 143.9375 L 264.585938 130.738281 C 248.035156 130.738281 248.035156 137.589844 231.488281 137.589844 C 214.96875 137.589844 214.96875 130.738281 198.453125 130.738281 C 181.929688 130.738281 181.929688 137.589844 165.402344 137.589844 C 148.875 137.589844 148.875 130.738281 132.347656 130.738281 C 115.8125 130.738281 115.8125 137.589844 99.277344 137.589844 C 82.710938 137.589844 82.710938 130.738281 66.148438 130.738281 C 49.617188 130.738281 49.617188 137.589844 33.082031 137.589844 C 16.542969 137.589844 16.542969 130.738281 0.00390625 130.738281 Z M 0.00390625 143.9375 "/>
</g>
<g clip-path="url(#clip-1)">
<path fill-rule="nonzero" fill="rgb(0%, 27.843137%, 73.333333%)" fill-opacity="1" d="M 0 13.464844 C 16.515625 13.464844 16.5625 20.316406 33.082031 20.316406 C 49.605469 20.316406 49.621094 13.464844 66.144531 13.464844 C 82.675781 13.464844 82.746094 20.316406 99.273438 20.316406 C 115.808594 20.316406 115.808594 13.464844 132.34375 13.464844 C 148.910156 13.464844 148.835938 20.316406 165.398438 20.316406 C 181.929688 20.316406 181.917969 13.464844 198.453125 13.464844 C 214.992188 13.464844 214.945312 20.316406 231.484375 20.316406 C 248.050781 20.316406 248.015625 13.464844 264.582031 13.464844 L 264.582031 0.265625 C 248.03125 0.265625 248.035156 7.113281 231.484375 7.113281 C 214.964844 7.113281 214.964844 0.265625 198.453125 0.265625 C 181.925781 0.265625 181.925781 7.113281 165.398438 7.113281 C 148.871094 7.113281 148.871094 0.265625 132.34375 0.265625 C 115.808594 0.265625 115.808594 7.113281 99.273438 7.113281 C 82.710938 7.113281 82.710938 0.265625 66.144531 0.265625 C 49.613281 0.265625 49.613281 7.113281 33.082031 7.113281 C 16.539062 7.113281 16.539062 0.265625 0 0.265625 Z M 0 39.660156 C 16.515625 39.660156 16.5625 46.511719 33.082031 46.511719 C 49.605469 46.511719 49.621094 39.660156 66.144531 39.660156 C 82.675781 39.660156 82.746094 46.511719 99.273438 46.511719 C 115.808594 46.511719 115.808594 39.660156 132.34375 39.660156 C 148.910156 39.660156 148.835938 46.511719 165.398438 46.511719 C 181.929688 46.511719 181.917969 39.660156 198.453125 39.660156 C 214.992188 39.660156 214.945312 46.511719 231.484375 46.511719 C 248.050781 46.511719 248.015625 39.660156 264.582031 39.660156 L 264.582031 26.460938 C 248.03125 26.460938 248.035156 33.3125 231.484375 33.3125 C 214.964844 33.3125 214.964844 26.460938 198.453125 26.460938 C 181.925781 26.460938 181.925781 33.3125 165.398438 33.3125 C 148.871094 33.3125 148.871094 26.460938 132.34375 26.460938 C 115.808594 26.460938 115.808594 33.3125 99.273438 33.3125 C 82.710938 33.3125 82.710938 26.460938 66.144531 26.460938 C 49.613281 26.460938 49.613281 33.3125 33.082031 33.3125 C 16.539062 33.3125 16.539062 26.460938 0 26.460938 Z M 0 65.351562 C 16.515625 65.351562 16.5625 72.199219 33.082031 72.199219 C 49.605469 72.199219 49.621094 65.351562 66.144531 65.351562 C 82.675781 65.351562 82.746094 72.199219 99.273438 72.199219 C 115.808594 72.199219 115.808594 65.351562 132.34375 65.351562 C 148.910156 65.351562 148.835938 72.199219 165.398438 72.199219 C 181.929688 72.199219 181.917969 65.351562 198.453125 65.351562 C 214.992188 65.351562 214.945312 72.199219 231.484375 72.199219 C 248.050781 72.199219 248.015625 65.351562 264.582031 65.351562 L 264.582031 52.148438 C 248.03125 52.148438 248.035156 59 231.484375 59 C 214.964844 59 214.964844 52.148438 198.453125 52.148438 C 181.925781 52.148438 181.925781 59 165.398438 59 C 148.871094 59 148.871094 52.148438 132.34375 52.148438 C 115.808594 52.148438 115.808594 59 99.273438 59 C 82.710938 59 82.710938 52.148438 66.144531 52.148438 C 49.613281 52.148438 49.613281 59 33.082031 59 C 16.539062 59 16.539062 52.148438 0 52.148438 Z M 0 65.351562 "/>
</g>
<g clip-path="url(#clip-2)">
<path fill-rule="nonzero" fill="rgb(0%, 0%, 0%)" fill-opacity="1" d="M 242 118.820312 C 237.753906 118.839844 229.664062 120.566406 223.152344 132.242188 C 218.519531 140.578125 216.101562 141.839844 212.753906 143.585938 C 212.527344 143.703125 212.304688 143.820312 212.070312 143.945312 L 211.832031 144.070312 C 206.929688 146.671875 204.542969 147.9375 201.910156 151.351562 C 201.832031 151.285156 201.753906 151.214844 201.675781 151.148438 C 227.3125 109.25 232.210938 100.726562 232.210938 100.726562 C 232.210938 100.726562 197.375 138.859375 194.632812 142.054688 L 192.566406 144.375 C 192.300781 144.203125 192.03125 144.027344 191.765625 143.855469 C 191.976562 143.078125 192.246094 142.1875 192.667969 141.308594 C 194.46875 137.566406 195.992188 135.90625 197.464844 134.300781 C 198.871094 132.769531 200.195312 131.324219 201.574219 128.351562 C 203.679688 123.816406 204.058594 121.128906 204.457031 118.285156 C 204.652344 116.890625 204.855469 115.449219 205.261719 113.671875 C 206.984375 106.207031 209.273438 103.652344 217.445312 97.445312 L 217.441406 97.4375 L 219.027344 96.195312 C 219.027344 96.195312 218.171875 95.964844 216.828125 96.050781 C 216.714844 96.054688 216.5625 96.066406 216.375 96.085938 C 216.371094 96.085938 216.367188 96.085938 216.359375 96.085938 L 216.359375 96.089844 C 213.59375 96.386719 203.570312 98.550781 199.027344 114.183594 C 196.332031 123.464844 194.128906 125.394531 191.339844 127.835938 C 191.140625 128.007812 190.933594 128.1875 190.730469 128.371094 C 186.082031 132.496094 184.222656 134.28125 182.378906 138.488281 C 182.332031 138.464844 182.285156 138.441406 182.238281 138.417969 C 184.015625 133.273438 185.679688 128.378906 187.261719 123.671875 C 200.164062 86.863281 202.183594 80.121094 202.183594 80.121094 C 202.183594 80.121094 176.371094 124.320312 174.566406 127.679688 L 171.214844 133.609375 C 171.074219 133.554688 170.933594 133.503906 170.789062 133.449219 C 170.917969 131.734375 171.273438 129.746094 171.84375 127.523438 C 172.894531 123.445312 174.070312 121.472656 175.210938 119.5625 C 176.296875 117.742188 177.320312 116.023438 178.101562 112.789062 C 179.296875 107.851562 179.144531 105.117188 178.988281 102.222656 C 178.910156 100.804688 178.828125 99.335938 178.886719 97.492188 C 179.121094 90.03125 180.761719 86.914062 186.945312 79.566406 L 186.960938 79.546875 C 187.203125 79.261719 187.4375 78.980469 187.691406 78.683594 L 187.6875 78.679688 L 189.003906 77.109375 C 189.003906 77.109375 188.148438 77.070312 186.890625 77.429688 C 185.667969 77.75 174.457031 81.191406 172.867188 99.394531 C 172.011719 109.148438 170.222656 111.542969 167.949219 114.574219 C 167.785156 114.796875 167.621094 115.019531 167.449219 115.246094 C 162.980469 121.296875 162.078125 123.324219 161.074219 130.375 C 161.027344 130.367188 160.984375 130.351562 160.941406 130.339844 C 161.078125 129.128906 161.210938 127.929688 161.34375 126.726562 L 161.363281 126.695312 C 167.039062 77.167969 167.714844 68.195312 167.714844 68.195312 C 167.714844 68.195312 152.40625 117.988281 151.269531 121.773438 L 149.519531 127.6875 C 149.480469 127.683594 149.445312 127.679688 149.40625 127.671875 C 149.359375 127.667969 149.308594 127.660156 149.257812 127.652344 C 149.246094 127.574219 149.230469 127.492188 149.21875 127.414062 C 148.988281 126.007812 148.703125 124.261719 148.765625 122.074219 C 148.898438 117.769531 149.566406 115.726562 150.214844 113.753906 C 150.828125 111.894531 151.40625 110.140625 151.515625 106.832031 C 151.726562 100.421875 150.984375 97.988281 150.125 95.167969 C 149.75 93.9375 149.359375 92.660156 149.03125 90.929688 C 147.601562 83.492188 148.554688 79.996094 153.101562 70.8125 L 154.371094 68.289062 C 154.371094 68.289062 153.429688 68.488281 152.179688 69.25 C 152.152344 69.265625 152.117188 69.285156 152.085938 69.304688 C 152.03125 69.34375 151.976562 69.371094 151.917969 69.410156 C 150.992188 70.023438 149.4375 71.296875 147.941406 73.269531 C 145.160156 76.945312 142.148438 83.589844 143.597656 94.375 C 144.902344 104.121094 143.683594 106.933594 142.140625 110.496094 C 142.03125 110.753906 141.917969 111.015625 141.800781 111.285156 C 139.015625 117.828125 138.148438 120.195312 138.484375 126.464844 C 138.445312 126.464844 138.40625 126.464844 138.367188 126.464844 C 138.347656 126.460938 138.328125 126.460938 138.308594 126.460938 C 137.742188 120.199219 137.136719 114.101562 136.515625 108.050781 C 133.203125 71.445312 132.292969 65.414062 132.292969 65.414062 C 132.292969 65.414062 131.386719 71.445312 128.070312 108.050781 C 127.453125 114.101562 126.84375 120.199219 126.28125 126.460938 C 126.261719 126.460938 126.238281 126.460938 126.21875 126.464844 C 126.179688 126.464844 126.140625 126.464844 126.101562 126.464844 C 126.441406 120.195312 125.570312 117.828125 122.785156 111.285156 C 122.671875 111.015625 122.558594 110.753906 122.445312 110.496094 C 120.902344 106.933594 119.679688 104.121094 120.992188 94.375 C 122.441406 83.589844 119.425781 76.945312 116.644531 73.269531 C 115.152344 71.296875 113.597656 70.023438 112.667969 69.410156 C 112.609375 69.371094 112.558594 69.34375 112.5 69.304688 C 112.46875 69.285156 112.4375 69.265625 112.40625 69.25 C 111.160156 68.488281 110.21875 68.289062 110.21875 68.289062 L 111.484375 70.8125 C 116.035156 79.996094 116.984375 83.492188 115.558594 90.929688 C 115.226562 92.660156 114.839844 93.9375 114.460938 95.167969 C 113.601562 97.988281 112.859375 100.421875 113.070312 106.832031 C 113.179688 110.140625 113.757812 111.894531 114.371094 113.753906 C 115.019531 115.726562 115.691406 117.769531 115.820312 122.074219 C 115.886719 124.261719 115.597656 126.007812 115.367188 127.414062 C 115.355469 127.492188 115.339844 127.574219 115.328125 127.652344 C 115.277344 127.660156 115.230469 127.667969 115.179688 127.671875 C 115.144531 127.679688 115.105469 127.683594 115.070312 127.6875 L 113.320312 121.773438 C 112.179688 117.988281 96.871094 68.195312 96.871094 68.195312 C 96.871094 68.195312 97.546875 77.167969 103.222656 126.695312 L 103.242188 126.726562 C 103.378906 127.929688 103.507812 129.128906 103.648438 130.339844 C 103.601562 130.351562 103.558594 130.367188 103.515625 130.375 C 102.507812 123.324219 101.609375 121.296875 97.136719 115.246094 C 96.96875 115.019531 96.800781 114.796875 96.636719 114.574219 C 94.367188 111.542969 92.574219 109.148438 91.71875 99.394531 C 90.128906 81.191406 78.917969 77.75 77.699219 77.429688 C 76.4375 77.070312 75.582031 77.109375 75.582031 77.109375 L 76.898438 78.679688 L 76.894531 78.683594 C 77.152344 78.980469 77.382812 79.261719 77.625 79.546875 L 77.640625 79.566406 C 83.828125 86.914062 85.464844 90.03125 85.699219 97.492188 C 85.757812 99.335938 85.679688 100.804688 85.601562 102.222656 C 85.441406 105.117188 85.289062 107.851562 86.484375 112.789062 C 87.265625 116.023438 88.292969 117.742188 89.378906 119.5625 C 90.515625 121.472656 91.695312 123.445312 92.742188 127.523438 C 93.316406 129.746094 93.667969 131.734375 93.800781 133.449219 C 93.65625 133.503906 93.515625 133.554688 93.371094 133.609375 L 90.019531 127.679688 C 88.214844 124.320312 62.40625 80.121094 62.40625 80.121094 C 62.40625 80.121094 64.425781 86.863281 77.324219 123.671875 C 78.910156 128.378906 80.570312 133.273438 82.347656 138.417969 C 82.300781 138.441406 82.253906 138.464844 82.207031 138.488281 C 80.363281 134.28125 78.507812 132.496094 73.859375 128.371094 C 73.652344 128.1875 73.449219 128.007812 73.25 127.835938 C 70.460938 125.394531 68.257812 123.464844 65.558594 114.183594 C 61.019531 98.550781 50.992188 96.386719 48.226562 96.089844 L 48.226562 96.085938 C 48.222656 96.085938 48.21875 96.085938 48.210938 96.085938 C 48.023438 96.066406 47.871094 96.054688 47.757812 96.050781 C 46.417969 95.964844 45.558594 96.195312 45.558594 96.195312 L 47.144531 97.4375 L 47.140625 97.445312 C 55.3125 103.652344 57.601562 106.207031 59.324219 113.671875 C 59.734375 115.449219 59.9375 116.890625 60.132812 118.285156 C 60.53125 121.128906 60.90625 123.816406 63.011719 128.351562 C 64.390625 131.324219 65.71875 132.769531 67.121094 134.300781 C 68.59375 135.90625 70.117188 137.566406 71.917969 141.308594 C 72.339844 142.1875 72.609375 143.078125 72.820312 143.855469 C 72.554688 144.027344 72.285156 144.203125 72.023438 144.375 L 69.953125 142.054688 C 67.214844 138.859375 32.375 100.726562 32.375 100.726562 C 32.375 100.726562 37.277344 109.25 62.914062 151.148438 C 62.835938 151.214844 62.753906 151.285156 62.679688 151.351562 C 60.042969 147.9375 57.660156 146.671875 52.753906 144.070312 L 52.515625 143.945312 C 52.285156 143.820312 52.058594 143.703125 51.835938 143.585938 C 48.484375 141.839844 46.066406 140.578125 41.4375 132.242188 C 34.925781 120.566406 26.832031 118.839844 22.585938 118.820312 C 21.09375 118.816406 19.414062 119.09375 17.386719 119.628906 C 17.386719 119.628906 19.035156 120.101562 20.53125 120.761719 C 29.355469 124.652344 32.089844 126.636719 35.300781 133.261719 C 36.082031 134.882812 36.59375 136.230469 37.085938 137.535156 C 38.09375 140.1875 39.039062 142.691406 42.050781 146.574219 C 44.027344 149.125 45.617188 150.203125 47.300781 151.347656 C 49.066406 152.546875 50.894531 153.789062 53.4375 156.980469 C 53.925781 157.59375 54.296875 158.214844 54.585938 158.746094 L 210 158.746094 C 210.289062 158.214844 210.660156 157.59375 211.148438 156.980469 C 213.691406 153.789062 215.519531 152.546875 217.285156 151.347656 C 218.972656 150.203125 220.5625 149.125 222.535156 146.574219 C 225.546875 142.691406 226.496094 140.1875 227.5 137.535156 C 227.992188 136.230469 228.503906 134.882812 229.289062 133.261719 C 232.496094 126.636719 235.234375 124.652344 244.054688 120.761719 C 245.554688 120.101562 247.203125 119.628906 247.203125 119.628906 C 245.171875 119.09375 243.492188 118.8125 242 118.820312 M 52.011719 158.746094 C 44.484375 153.382812 7.074219 127.386719 7.074219 127.386719 C 7.074219 127.386719 26.132812 148.152344 35.945312 158.746094 Z M 20.289062 158.746094 L 28.152344 158.746094 L 27.632812 158.199219 C 27.0625 157.597656 26.539062 157.023438 26.074219 156.488281 C 19.242188 148.710938 12.613281 147.078125 8.496094 147.078125 C 6.363281 147.078125 4.375 147.453125 2.867188 148.121094 C 1.363281 148.792969 0.664062 149.269531 0.664062 149.269531 L 2.917969 149.636719 C 12.152344 151.5625 15.570312 152.707031 20.289062 158.746094 M 212.574219 158.746094 C 220.101562 153.382812 257.511719 127.386719 257.511719 127.386719 C 257.511719 127.386719 238.453125 148.152344 228.640625 158.746094 Z M 244.296875 158.746094 L 236.4375 158.746094 L 236.953125 158.199219 C 237.523438 157.597656 238.046875 157.023438 238.511719 156.488281 C 245.34375 148.710938 251.96875 147.078125 256.09375 147.078125 C 258.222656 147.078125 260.210938 147.453125 261.71875 148.121094 C 263.222656 148.792969 263.925781 149.269531 263.925781 149.269531 L 261.671875 149.636719 C 252.433594 151.5625 249.019531 152.707031 244.296875 158.746094 "/>
</g>
<g clip-path="url(#clip-3)">
<path fill-rule="nonzero" fill="rgb(100%, 80.392157%, 0%)" fill-opacity="1" d="M 35.953125 132.90625 C 38.394531 137.953125 38.25 140.445312 42.621094 146.082031 C 46.589844 151.214844 48.984375 150.183594 54 156.480469 C 54.601562 157.238281 55.050781 158.011719 55.429688 158.746094 L 209.207031 158.746094 C 209.195312 158.734375 209.183594 158.722656 209.171875 158.710938 C 209.550781 157.988281 209.996094 157.222656 210.585938 156.480469 C 215.601562 150.183594 217.996094 151.214844 221.964844 146.082031 C 226.339844 140.445312 226.191406 137.953125 228.632812 132.90625 C 232.101562 125.742188 235.199219 123.792969 244.3125 119.800781 C 244.3125 119.84375 232.597656 116.824219 223.785156 132.636719 C 218.730469 141.734375 216.09375 142.683594 212.402344 144.636719 C 207.160156 147.417969 204.925781 148.566406 202.269531 152.117188 C 201.820312 151.730469 201.367188 151.351562 200.90625 150.976562 C 210.1875 135.613281 219.464844 120.390625 228.746094 105.457031 C 216.8125 118.449219 204.875 131.734375 192.933594 145.109375 C 192.296875 144.6875 191.652344 144.273438 191 143.867188 C 191.242188 142.960938 191.527344 141.960938 192.011719 140.957031 C 195.5625 133.578125 198.140625 133.992188 200.914062 128.007812 C 203.96875 121.433594 203.269531 119.03125 204.550781 113.488281 C 206.363281 105.617188 208.964844 102.929688 217.015625 96.816406 C 217.015625 96.835938 204.871094 96.714844 199.726562 114.410156 C 196.777344 124.566406 194.394531 126.132812 191.203125 128.964844 C 186.507812 133.128906 184.730469 134.804688 182.855469 139.261719 C 182.378906 139.019531 181.894531 138.78125 181.410156 138.546875 C 187.726562 120.289062 192.800781 104.785156 199.113281 86.804688 C 189.585938 103.371094 181.296875 117.527344 171.761719 134.410156 C 171.1875 134.195312 170.609375 133.984375 170.027344 133.78125 C 170.117188 132.214844 170.417969 130.101562 171.132812 127.316406 C 173.203125 119.273438 175.820312 119.101562 177.390625 112.597656 C 179.121094 105.4375 177.96875 103.222656 178.152344 97.464844 C 178.410156 89.285156 180.441406 86.035156 187.144531 78.164062 C 187.144531 78.164062 175.226562 80.835938 173.597656 99.464844 C 172.664062 110.144531 170.621094 112.214844 168.027344 115.722656 C 163.453125 121.914062 162.714844 123.824219 161.699219 131.195312 C 161.183594 131.058594 160.667969 130.917969 160.148438 130.789062 C 162.410156 111.171875 164.273438 93.625 166.53125 74.074219 C 160.933594 92.851562 155.730469 109.675781 150.125 128.558594 C 149.609375 128.46875 149.136719 128.429688 148.621094 128.347656 C 148.394531 126.828125 147.949219 124.769531 148.03125 122.050781 C 148.28125 113.671875 150.558594 113.5625 150.78125 106.804688 C 151.082031 97.671875 149.394531 96.75 148.308594 91.082031 C 146.761719 83.027344 148.023438 79.308594 152.792969 69.761719 C 152.792969 69.761719 141.824219 75.671875 144.324219 94.265625 C 145.753906 104.925781 144.222656 107.492188 142.472656 111.605469 C 139.53125 118.507812 138.828125 120.660156 139.269531 127.261719 C 139.03125 127.25 137.875 127.234375 137.636719 127.222656 C 135.855469 107.480469 134.074219 89.285156 132.292969 69.539062 C 130.511719 89.285156 128.730469 107.480469 126.949219 127.222656 C 126.714844 127.230469 125.554688 127.25 125.316406 127.261719 C 125.757812 120.660156 125.054688 118.507812 122.117188 111.605469 C 120.363281 107.492188 118.832031 104.925781 120.265625 94.265625 C 122.761719 75.671875 111.792969 69.757812 111.792969 69.761719 C 116.5625 79.308594 117.824219 83.027344 116.277344 91.082031 C 115.191406 96.75 113.503906 97.671875 113.804688 106.804688 C 114.03125 113.5625 116.300781 113.671875 116.554688 122.050781 C 116.636719 124.769531 116.191406 126.828125 115.964844 128.347656 C 115.449219 128.429688 114.976562 128.46875 114.460938 128.558594 C 108.855469 109.675781 103.769531 93.328125 98.167969 74.546875 C 100.4375 94.148438 102.1875 111.265625 104.457031 130.925781 C 103.9375 131.0625 103.421875 131.199219 102.90625 131.339844 C 101.882812 123.84375 101.164062 121.957031 96.558594 115.722656 C 93.964844 112.214844 91.921875 110.144531 90.988281 99.464844 C 89.359375 80.835938 77.441406 78.164062 77.441406 78.164062 C 84.144531 86.035156 86.175781 89.285156 86.4375 97.464844 C 86.617188 103.222656 85.46875 105.4375 87.195312 112.597656 C 88.765625 119.101562 91.382812 119.273438 93.453125 127.316406 C 94.203125 130.234375 94.492188 132.40625 94.566406 133.988281 C 94.019531 134.1875 93.472656 134.390625 92.933594 134.597656 C 83.359375 117.648438 75.035156 103.503906 65.472656 86.871094 C 71.8125 104.941406 76.921875 120.464844 83.269531 138.816406 C 82.792969 139.054688 82.316406 139.292969 81.84375 139.535156 C 79.925781 134.871094 78.175781 133.214844 73.386719 128.964844 C 70.191406 126.132812 67.808594 124.566406 64.859375 114.410156 C 59.714844 96.714844 47.570312 96.832031 47.570312 96.816406 C 55.621094 102.929688 58.222656 105.617188 60.039062 113.488281 C 61.316406 119.03125 60.621094 121.433594 63.671875 128.007812 C 66.445312 133.992188 69.027344 133.578125 72.574219 140.957031 C 73.121094 142.09375 73.421875 143.222656 73.679688 144.214844 C 73.078125 144.601562 72.480469 144.984375 71.894531 145.378906 C 59.871094 131.910156 47.855469 118.535156 35.839844 105.457031 C 45.191406 120.503906 54.539062 135.84375 63.890625 151.324219 C 63.441406 151.695312 63 152.070312 62.5625 152.445312 C 59.792969 148.636719 57.585938 147.503906 52.183594 144.636719 C 48.492188 142.683594 45.855469 141.734375 40.800781 132.636719 C 31.988281 116.824219 20.269531 119.84375 20.273438 119.800781 C 29.386719 123.792969 32.484375 125.742188 35.953125 132.90625 M 20.929688 158.34375 C 21.027344 158.46875 21.128906 158.609375 21.234375 158.746094 L 27.113281 158.746094 C 26.582031 158.1875 26.042969 157.601562 25.535156 157.015625 C 13.699219 143.542969 3.054688 148.929688 3.058594 148.875 C 12.675781 150.882812 16.070312 152.09375 20.929688 158.34375 M 50.671875 158.746094 C 37.402344 149.339844 24.136719 139.964844 10.875 130.789062 C 16.554688 136.777344 27.210938 148.21875 36.976562 158.746094 Z M 243.660156 158.34375 C 243.5625 158.46875 243.457031 158.609375 243.351562 158.746094 L 237.476562 158.746094 C 238.003906 158.1875 238.542969 157.601562 239.054688 157.015625 C 250.886719 143.542969 261.53125 148.929688 261.53125 148.875 C 251.910156 150.882812 248.515625 152.09375 243.660156 158.34375 M 213.914062 158.746094 C 227.1875 149.339844 240.453125 139.964844 253.710938 130.789062 C 248.03125 136.777344 237.375 148.21875 227.613281 158.746094 Z M 213.914062 158.746094 "/>
</g>
<g clip-path="url(#clip-4)">
<path fill-rule="nonzero" fill="rgb(0%, 0%, 0%)" fill-opacity="1" d="M 209.628906 158.109375 C 189.757812 138.207031 161.652344 126.796875 132.519531 126.796875 C 103.464844 126.796875 75.410156 138.15625 55.554688 157.964844 L 54.808594 158.640625 L 56.367188 158.640625 C 76.019531 139.046875 103.773438 127.8125 132.519531 127.8125 C 161.273438 127.8125 189.011719 139.046875 208.664062 158.640625 L 210.136719 158.640625 Z M 209.628906 158.109375 "/>
</g>
<path fill-rule="nonzero" fill="rgb(100%, 80.392157%, 0%)" fill-opacity="1" d="M 158.089844 25.972656 C 157.671875 26.597656 157.253906 27.226562 156.835938 27.863281 C 154.851562 31.210938 152.839844 34.660156 150.835938 38.203125 C 149.359375 32.34375 147.707031 26.476562 145.988281 20.617188 C 143.589844 25.710938 141.105469 30.960938 138.652344 36.324219 C 136.589844 29.984375 134.421875 23.691406 132.3125 17.480469 C 130.199219 23.691406 128.027344 29.984375 125.964844 36.320312 C 123.515625 30.957031 121.035156 25.707031 118.636719 20.613281 C 116.914062 26.46875 115.257812 32.335938 113.78125 38.195312 C 111.71875 34.738281 109.644531 31.375 107.59375 28.121094 C 107.25 27.335938 106.910156 26.558594 106.570312 25.78125 C 106.78125 29.976562 107.25 35.207031 107.75 40.503906 C 107.96875 42.816406 108.210938 45.101562 108.476562 47.324219 C 108.632812 48.957031 108.808594 50.585938 109.003906 52.214844 L 109.027344 52.214844 C 109.273438 53.78125 119.476562 55.03125 132.269531 55.03125 C 145.429688 55.03125 155.835938 53.707031 155.519531 52.082031 C 155.570312 51.714844 155.621094 51.355469 155.671875 50.992188 L 155.675781 50.992188 C 155.699219 50.808594 155.722656 50.625 155.746094 50.441406 C 155.851562 49.675781 155.953125 48.890625 156.046875 48.09375 C 156.058594 48.023438 156.066406 47.953125 156.074219 47.882812 C 156.367188 45.492188 156.632812 42.988281 156.871094 40.484375 C 157.375 35.199219 157.875 30.160156 158.089844 25.972656 "/>
<path fill-rule="nonzero" fill="rgb(0%, 0%, 0%)" fill-opacity="1" d="M 156.53125 42.265625 C 156.515625 42.484375 156.425781 42.546875 156.398438 42.570312 C 156.285156 42.65625 156.085938 42.667969 155.832031 42.613281 C 155.769531 42.601562 155.703125 42.582031 155.632812 42.558594 C 147.691406 39.949219 139.929688 38.589844 132.269531 38.597656 C 124.617188 38.589844 116.851562 39.953125 108.914062 42.566406 C 108.34375 42.753906 108.019531 42.65625 107.996094 42.277344 C 107.953125 41.671875 108.617188 41.378906 108.90625 41.285156 C 116.855469 38.664062 124.617188 37.296875 132.273438 37.300781 C 139.925781 37.292969 147.6875 38.660156 155.644531 41.277344 C 155.988281 41.394531 156.574219 41.679688 156.53125 42.265625 M 150.117188 45.695312 C 151.300781 46.960938 152.457031 48.257812 153.617188 49.570312 C 146.417969 47.378906 139.300781 46.230469 132.269531 46.238281 C 125.238281 46.230469 118.117188 47.386719 110.917969 49.578125 C 112.078125 48.265625 113.238281 46.964844 114.425781 45.699219 C 114.605469 45.503906 114.789062 45.3125 114.972656 45.117188 C 114.757812 45.023438 114.542969 44.933594 114.324219 44.84375 C 112.914062 44.257812 111.476562 43.730469 110.035156 43.234375 C 117.578125 40.855469 124.972656 39.609375 132.273438 39.613281 C 139.570312 39.605469 146.964844 40.851562 154.503906 43.226562 C 153.058594 43.722656 151.628906 44.25 150.21875 44.839844 C 150 44.929688 149.785156 45.019531 149.566406 45.113281 C 149.75 45.304688 149.933594 45.5 150.117188 45.695312 M 155.378906 51.832031 C 155.355469 52.054688 155.269531 52.125 155.238281 52.144531 C 155.125 52.234375 154.933594 52.25 154.699219 52.203125 C 154.640625 52.191406 154.574219 52.171875 154.511719 52.15625 C 147.027344 49.777344 139.601562 48.539062 132.269531 48.546875 C 124.941406 48.542969 117.511719 49.78125 110.035156 52.160156 C 109.96875 52.179688 109.90625 52.195312 109.847656 52.207031 C 109.203125 52.34375 109.164062 51.96875 109.152344 51.839844 C 109.089844 51.234375 109.710938 50.964844 109.980469 50.878906 C 117.488281 48.492188 124.929688 47.25 132.269531 47.253906 C 139.613281 47.246094 147.054688 48.488281 154.566406 50.875 C 154.894531 50.980469 155.4375 51.246094 155.378906 51.832031 M 155.296875 50.15625 C 154 48.65625 152.425781 46.886719 151.160156 45.53125 C 152.5 44.984375 154.59375 44.222656 156.144531 43.722656 C 155.851562 46.035156 155.542969 48.265625 155.296875 50.15625 M 132.269531 54.5 C 121.648438 54.5 114.390625 53.679688 111.25 52.820312 C 118.316406 50.683594 125.335938 49.558594 132.269531 49.5625 C 139.214844 49.558594 146.234375 50.679688 153.3125 52.820312 C 150.171875 53.679688 142.894531 54.5 132.269531 54.5 M 108.476562 43.773438 C 110.011719 44.265625 112.027344 44.988281 113.378906 45.539062 C 112.027344 46.988281 110.621094 48.539062 109.304688 50.058594 C 109.011719 47.902344 108.734375 45.816406 108.476562 43.773438 M 106.835938 27.894531 C 108.902344 31.539062 111.214844 35.183594 113.777344 38.832031 C 112.117188 39.273438 110.445312 39.761719 108.773438 40.316406 C 108.503906 40.40625 108.28125 40.523438 108.089844 40.652344 C 107.570312 36.285156 107.144531 32.070312 106.835938 27.894531 M 118.523438 21.644531 C 120.589844 26.636719 122.996094 31.628906 125.738281 36.621094 C 121.820312 37.007812 117.871094 37.742188 113.875 38.804688 C 115.535156 33.082031 117.085938 27.367188 118.523438 21.644531 M 132.3125 18.441406 L 132.3125 18.4375 C 132.148438 18.441406 137.082031 33.488281 138.476562 36.585938 C 136.398438 36.390625 134.332031 36.285156 132.273438 36.289062 C 130.222656 36.289062 128.171875 36.390625 126.105469 36.582031 C 128.457031 30.535156 130.523438 24.484375 132.3125 18.4375 L 132.3125 18.441406 M 150.65625 38.792969 C 146.71875 37.75 142.828125 37.027344 138.96875 36.636719 C 141.691406 31.570312 144.074219 26.5 146.117188 21.429688 C 147.523438 27.21875 149.035156 33.003906 150.65625 38.792969 M 157.855469 27.609375 C 157.835938 27.601562 157.355469 34.015625 156.523438 40.691406 C 156.316406 40.542969 156.074219 40.40625 155.777344 40.308594 C 154.140625 39.765625 152.511719 39.292969 150.890625 38.855469 C 153.46875 35.105469 155.789062 31.359375 157.855469 27.609375 M 158.746094 23.839844 C 156.519531 28.132812 153.953125 32.425781 151.050781 36.714844 C 149.324219 30.839844 147.71875 24.960938 146.234375 19.085938 C 144.109375 24.347656 141.613281 29.609375 138.738281 34.875 C 136.285156 28.542969 134.144531 22.207031 132.3125 15.875 C 130.480469 22.207031 128.332031 28.539062 125.878906 34.871094 C 123.007812 29.605469 120.511719 24.34375 118.390625 19.078125 C 116.902344 24.957031 115.292969 30.832031 113.570312 36.710938 C 110.65625 32.457031 108.078125 28.203125 105.835938 23.949219 C 105.78125 23.945312 106.59375 35.351562 107.242188 40.644531 C 107.273438 40.9375 107.304688 41.230469 107.335938 41.523438 C 107.195312 41.84375 107.140625 42.171875 107.164062 42.46875 C 107.1875 42.792969 107.3125 43.113281 107.542969 43.339844 C 107.828125 45.828125 108.148438 48.273438 108.476562 50.5625 C 108.496094 50.703125 108.515625 50.84375 108.535156 50.988281 C 108.378906 51.328125 108.320312 51.683594 108.355469 52.015625 C 108.417969 52.601562 108.769531 53.199219 109.53125 53.226562 C 113.359375 55.488281 130.132812 55.5625 132.269531 55.5625 C 134.410156 55.5625 151.273438 55.488281 155.042969 53.207031 C 155.277344 53.191406 155.5 53.136719 155.675781 53.003906 C 155.953125 52.789062 156.128906 52.445312 156.171875 52 C 156.203125 51.722656 156.164062 51.425781 156.058594 51.132812 C 156.089844 50.945312 156.113281 50.757812 156.140625 50.570312 C 156.476562 48.230469 156.800781 45.730469 157.09375 43.1875 C 157.234375 42.992188 157.339844 42.761719 157.363281 42.457031 C 157.378906 42.21875 157.347656 41.960938 157.261719 41.703125 C 157.304688 41.339844 157.34375 40.980469 157.378906 40.621094 C 158.027344 35.34375 158.804688 23.839844 158.746094 23.839844 "/>
<path fill-rule="nonzero" fill="rgb(0%, 0%, 0%)" fill-opacity="1" d="M 129.570312 44.207031 L 135.050781 44.207031 L 135.050781 41.773438 L 129.570312 41.773438 Z M 135.875 45.378906 L 128.75 45.378906 L 128.75 40.605469 L 135.875 40.605469 Z M 121.546875 42.648438 C 121.339844 42.648438 121.125 42.660156 120.910156 42.6875 C 119.214844 42.898438 118.226562 43.816406 118.253906 44.242188 C 118.273438 44.570312 119.011719 45.15625 120.421875 45.15625 C 120.625 45.15625 120.839844 45.140625 121.058594 45.117188 C 121.832031 45.019531 122.578125 44.75 123.09375 44.375 C 123.535156 44.058594 123.722656 43.730469 123.710938 43.5625 C 123.691406 43.234375 122.953125 42.648438 121.546875 42.648438 M 120.421875 46.324219 C 118.679688 46.324219 117.507812 45.546875 117.433594 44.34375 C 117.339844 42.78125 119.074219 41.746094 120.835938 41.523438 C 122.914062 41.265625 124.449219 42.097656 124.53125 43.460938 C 124.558594 43.886719 124.453125 44.703125 123.46875 45.417969 C 122.851562 45.863281 122.019531 46.167969 121.128906 46.28125 C 120.886719 46.3125 120.652344 46.324219 120.421875 46.324219 M 143.078125 42.648438 C 141.671875 42.648438 140.929688 43.234375 140.910156 43.5625 C 140.902344 43.730469 141.085938 44.058594 141.53125 44.375 C 142.046875 44.75 142.789062 45.019531 143.566406 45.117188 C 143.78125 45.140625 143.996094 45.15625 144.203125 45.15625 C 145.609375 45.15625 146.351562 44.570312 146.371094 44.242188 C 146.398438 43.816406 145.410156 42.898438 143.714844 42.6875 C 143.496094 42.664062 143.285156 42.648438 143.078125 42.648438 M 144.203125 46.324219 C 143.972656 46.324219 143.738281 46.3125 143.492188 46.28125 C 142.605469 46.167969 141.773438 45.863281 141.15625 45.417969 C 140.167969 44.703125 140.066406 43.886719 140.089844 43.460938 C 140.175781 42.097656 141.703125 41.265625 143.789062 41.523438 C 145.550781 41.746094 147.285156 42.78125 147.1875 44.34375 C 147.117188 45.546875 145.941406 46.324219 144.203125 46.324219 "/>
</svg>
