<svg version="1.1" viewBox="0.0 0.0 3168.0 2784.0" fill="none" stroke="none" stroke-linecap="square" stroke-miterlimit="10" xmlns:xlink="http://www.w3.org/1999/xlink" xmlns="http://www.w3.org/2000/svg"><clipPath id="p.0"><path d="m0 0l3168.0 0l0 2784.0l-3168.0 0l0 -2784.0z" clip-rule="nonzero"/></clipPath><g clip-path="url(#p.0)"><path fill="#000000" fill-opacity="0.0" d="m0 0l3168.0 0l0 2784.0l-3168.0 0z" fill-rule="evenodd"/><path fill="#ffffff" d="m0.0038472442 7.7664043E-4l0 2784.0164l3168.0034 0l0 -2784.0164z" fill-rule="evenodd"/><path fill="#fec500" d="m1569.2266 868.4214l0 154.75195l35.70166 0l0 -154.75195zm-4.9993896 190.85364l-2.6929932 283.7743l-2.2929688 324.86182l0 16.131104l-1.5463867 24.583374l-2.2930908 15.744507l-4.226074 13.43811l-6.5324707 10.745117l-9.598633 6.9190674l-13.43811 1.9197998l-8.065552 -1.5465088l-17.27771 -3.4528809l-38.78125 -7.2922363l-33.035522 -8.838867l-23.79663 -8.825439l-26.116455 -12.291626l-28.036133 -16.131104l-14.971313 -10.3585205l-28.036133 -19.970581l-34.16858 -26.876343l-18.824097 -19.210693l0 -1.1464844l76.02954 -25.729858l-9.598633 -1.9196777l-54.52588 -17.277588l-32.2489 -14.211426l-20.743774 -11.518433l-9.598633 -6.5323486l-71.04358 -51.832886l-20.343872 -15.35791l-0.77319336 9.598633l3.4528809 56.832275l6.145752 34.16858l6.9190674 22.663574l4.599365 10.745117l10.371948 21.130493l24.956543 38.394653l34.181885 42.62085l6.519165 6.5323486l0 -67.20398l8.838745 8.452148l46.07361 41.474243l30.729126 25.34314l10.745239 7.2923584l28.42273 14.598022l74.49634 34.555176l46.846924 23.423462l17.277588 9.985352l16.131104 11.131714l38.00818 31.102417l51.072876 46.473633l9.225464 9.212036l9.598633 -10.371948l55.672363 -51.446167l32.648804 -24.583252l21.117065 -12.665039l9.598755 -4.226074l39.554565 -16.5177l61.058228 -29.182617l33.40869 -18.4375l12.664917 -8.065552l13.051514 -9.598633l35.32849 -30.329102l52.992676 -48.380005l9.985352 -9.612061l0 87.56128l6.9190674 -8.452148l34.941772 -48.380005l16.890991 -28.809448l9.225464 -18.810669l3.066162 -8.825439l5.3726807 -18.4375l7.678833 -43.007446l6.145996 -57.21875l0.77319336 -10.371826l-4.9992676 3.8393555l-31.10254 21.130493l-26.103027 15.35791l-13.451416 6.145752l-86.38818 36.08838l-50.31299 20.743774l80.64221 20.343872l-16.504395 13.064941l-84.48169 62.977905l-43.007446 29.18274l-23.810059 14.197998l-9.225342 4.612671l-15.35791 6.9057617l-28.79602 10.758545l-25.729858 5.7591553l-22.276855 1.533081l-18.810791 -2.6795654l-14.584595 -7.305664l-10.371948 -11.131836l-5.3725586 -15.35791l-0.38659668 -9.212036l2.3062744 -353.28467l2.6796875 -301.82507z" fill-rule="evenodd"/><path stroke="#fec500" stroke-width="1.4356955380577427" stroke-miterlimit="288.0404" stroke-linecap="butt" d="m1569.2266 868.4214l0 154.75195l35.70166 0l0 -154.75195zm-4.9993896 190.85364l-2.6929932 283.7743l-2.2929688 324.86182l0 16.131104l-1.5463867 24.583374l-2.2930908 15.744507l-4.226074 13.43811l-6.5324707 10.745117l-9.598633 6.9190674l-13.43811 1.9197998l-8.065552 -1.5465088l-17.27771 -3.4528809l-38.78125 -7.2922363l-33.035522 -8.838867l-23.79663 -8.825439l-26.116455 -12.291626l-28.036133 -16.131104l-14.971313 -10.3585205l-28.036133 -19.970581l-34.16858 -26.876343l-18.824097 -19.210693l0 -1.1464844l76.02954 -25.729858l-9.598633 -1.9196777l-54.52588 -17.277588l-32.2489 -14.211426l-20.743774 -11.518433l-9.598633 -6.5323486l-71.04358 -51.832886l-20.343872 -15.35791l-0.77319336 9.598633l3.4528809 56.832275l6.145752 34.16858l6.9190674 22.663574l4.599365 10.745117l10.371948 21.130493l24.956543 38.394653l34.181885 42.62085l6.519165 6.5323486l0 -67.20398l8.838745 8.452148l46.07361 41.474243l30.729126 25.34314l10.745239 7.2923584l28.42273 14.598022l74.49634 34.555176l46.846924 23.423462l17.277588 9.985352l16.131104 11.131714l38.00818 31.102417l51.072876 46.473633l9.225464 9.212036l9.598633 -10.371948l55.672363 -51.446167l32.648804 -24.583252l21.117065 -12.665039l9.598755 -4.226074l39.554565 -16.5177l61.058228 -29.182617l33.40869 -18.4375l12.664917 -8.065552l13.051514 -9.598633l35.32849 -30.329102l52.992676 -48.380005l9.985352 -9.612061l0 87.56128l6.9190674 -8.452148l34.941772 -48.380005l16.890991 -28.809448l9.225464 -18.810669l3.066162 -8.825439l5.3726807 -18.4375l7.678833 -43.007446l6.145996 -57.21875l0.77319336 -10.371826l-4.9992676 3.8393555l-31.10254 21.130493l-26.103027 15.35791l-13.451416 6.145752l-86.38818 36.08838l-50.31299 20.743774l80.64221 20.343872l-16.504395 13.064941l-84.48169 62.977905l-43.007446 29.18274l-23.810059 14.197998l-9.225342 4.612671l-15.35791 6.9057617l-28.79602 10.758545l-25.729858 5.7591553l-22.276855 1.533081l-18.810791 -2.6795654l-14.584595 -7.305664l-10.371948 -11.131836l-5.3725586 -15.35791l-0.38659668 -9.212036l2.3062744 -353.28467l2.6796875 -301.82507z" fill-rule="evenodd"/><path fill="#fec500" d="m1589.5703 992.071l-24.956543 0.38659668l-49.1532 2.3063965l-71.04358 6.9057007l-110.58472 17.664246l-17.664185 3.8394165l0 51.459595l18.424072 3.8394775l107.518555 17.664185l64.13782 6.9057617l42.620728 2.3063965l20.3573 0.38659668l42.23413 -0.77319336l96.00012 -7.2923584l127.87573 -14.584717l22.650146 -3.0795898l0 -56.832153l-17.277588 -3.8394165l-107.518555 -17.664246l-69.88367 -6.9057007l-49.1532 -2.3063965l-24.583374 -0.38659668z" fill-rule="evenodd"/><path stroke="#ffffff" stroke-width="1.4356955380577427" stroke-miterlimit="288.0404" stroke-linecap="butt" d="m1589.5703 992.071l-24.956543 0.38659668l-49.1532 2.3063965l-71.04358 6.9057007l-110.58472 17.664246l-17.664185 3.8394165l0 51.459595l18.424072 3.8394775l107.518555 17.664185l64.13782 6.9057617l42.620728 2.3063965l20.3573 0.38659668l42.23413 -0.77319336l96.00012 -7.2923584l127.87573 -14.584717l22.650146 -3.0795898l0 -56.832153l-17.277588 -3.8394165l-107.518555 -17.664246l-69.88367 -6.9057007l-49.1532 -2.3063965l-24.583374 -0.38659668z" fill-rule="evenodd"/><path fill="#000000" fill-opacity="0.0" d="m1855.8815 1962.2504l0.38659668 1.9196777l-1.1599121 3.4528809l-6.145752 5.3859863l-23.423462 11.131714l-40.70105 15.744507l-24.569946 13.824829l-7.305664 7.2922363l-2.2930908 5.3726807l0 2.692871" fill-rule="evenodd"/><path fill="#000000" fill-opacity="0.0" d="m1855.8815 1962.2504l0.38659668 1.9196777l-1.1599121 3.4528809l-6.145752 5.3859863l-23.423462 11.131714l-40.70105 15.744507l-24.569946 13.824829l-7.305664 7.2922363l-2.2930908 5.3726807l0 2.692871" fill-rule="evenodd"/><path stroke="#ffffff" stroke-width="0.9816272965879265" stroke-linejoin="round" stroke-linecap="butt" d="m1855.8815 1962.2504l0.38659668 1.9196777l-1.1599121 3.4528809l-6.145752 5.3859863l-23.423462 11.131714l-40.70105 15.744507l-24.569946 13.824829l-7.305664 7.2922363l-2.2930908 5.3726807l0 2.692871" fill-rule="evenodd"/><path fill="#fec500" d="m1584.0122 216.19765l-43.087402 132.47508l-139.70068 0l113.01099 82.05536l0 0l-43.12732 132.6084l112.90442 -81.962036l112.89111 81.962036l-43.12744 -132.6084l0 0l113.01111 -82.05536l-139.68738 0l-43.087402 -132.47508z" fill-rule="evenodd"/><path fill="#fec500" d="m2130.4436 350.59247l-99.73291 97.5332l-123.75635 -64.88437l61.991455 125.2894l-99.62622 97.426575l137.82104 -20.210571l0 0l61.858154 125.03613l23.463379 -137.55438l138.20752 -20.263855l-123.68945 -64.84442l23.463379 -137.52771z" fill-rule="evenodd"/><path fill="#fec500" d="m2338.9482 648.96466l-3.3596191 139.40747l-133.72827 39.91449l131.63525 46.38031l0 0l-3.3728027 139.48743l84.61499 -110.864746l0 0l131.58179 46.353638l-79.255615 -114.91748l0 0l84.628174 -110.87805l0 0l-133.59497 39.887817l0 0l-79.148926 -114.770874z" fill-rule="evenodd"/><path fill="#fec500" d="m2597.7659 1085.1846l-67.670654 121.72986l0 0l-136.99438 -26.87622l95.08008 102.279175l-67.81738 121.983154l126.51611 -58.85852l95.05347 102.25256l-16.891113 -138.62085l0 0l126.329346 -58.76526l-136.7544 -26.822998l-16.851074 -138.3009z" fill-rule="evenodd"/><path fill="#fec500" d="m2398.8599 1580.1697l36.70166 134.7948l0 0l-116.57056 76.40271l139.2207 6.7457275l0 0l36.648438 134.56824l49.433105 -130.39539l0 0l139.11426 6.7457275l-108.57178 -87.32129l0 0l49.433105 -130.40869l-116.583984 76.40271l-108.82495 -87.534546z" fill-rule="evenodd"/><path fill="#fec500" d="m2217.9915 1937.2938l-30.0625 136.26111l0 0l-138.90088 13.491455l120.316895 70.72363l0 0l-30.075928 136.26123l104.438965 -92.54712l0 0l120.20996 70.65674l-55.71216 -127.822266l0 0l104.47876 -92.600586l0 0l-138.94067 13.504883l0 0l-55.75244 -127.92908z" fill-rule="evenodd"/><path fill="#fec500" d="m1891.9832 2169.6084l-89.96094 106.691895l0 0l-129.31555 -52.539307l0 0l73.70984 118.47705l-89.82764 106.545166l135.3147 -33.421875l73.57654 118.29028l10.118652 -138.96753l0 0l135.42126 -33.44873l-129.16882 -52.49951l0 0l10.131958 -139.12744z" fill-rule="evenodd"/><path fill="#fec500" d="m1037.5808 350.59247l23.450195 137.52771l-123.67633 64.84442l138.19427 20.263855l0 0l23.463379 137.55438l61.858154 -125.03613l0 0l137.82104 20.210571l-99.612915 -97.426575l61.97815 -125.2894l-123.75635 64.88437l0 0l-99.719604 -97.5332z" fill-rule="evenodd"/><path fill="#fec500" d="m829.0629 648.96466l-79.14911 114.770874l0 0l-133.59491 -39.887817l84.62836 110.87805l-79.24243 114.91748l131.56854 -46.353638l0 0l84.61499 110.864746l0 0l-3.3728638 -139.48743l0 0l131.6352 -46.38031l-133.7149 -39.91449l-3.3728638 -139.40747z" fill-rule="evenodd"/><path fill="#fec500" d="m570.24524 1085.1846l-16.851013 138.3009l0 0l-136.75446 26.822998l126.32922 58.76526l0 0l-16.877625 138.62085l95.05353 -102.25256l0 0l126.50256 58.85852l-67.81732 -121.983154l0 0l95.09357 -102.279175l-137.00775 26.87622l0 0l-67.670715 -121.72986z" fill-rule="evenodd"/><path fill="#fec500" d="m769.1512 1580.1697l-108.82501 87.534546l-116.57062 -76.40271l49.433228 130.40869l0 0l-108.57172 87.32129l139.11414 -6.7457275l0 0l49.41986 130.39539l36.648315 -134.56824l0 0l139.23413 -6.7457275l-116.58392 -76.40271l0 0l36.7016 -134.7948z" fill-rule="evenodd"/><path fill="#fec500" d="m950.0196 1937.2938l-55.75232 127.92908l0 0l-138.92755 -13.504883l0 0l104.46564 92.600586l0 0l-55.698975 127.822266l120.21008 -70.65674l0 0l104.4256 92.54712l-30.0625 -136.26123l0 0l120.303345 -70.72363l-138.88745 -13.491455l0 0l-30.075867 -136.26111z" fill-rule="evenodd"/><path fill="#fec500" d="m1276.0414 2169.6084l10.11853 139.12744l0 0l-129.15552 52.49951l135.42139 33.44873l0 0l10.105225 138.96753l73.58984 -118.29028l0 0l135.3147 33.421875l-89.84094 -106.545166l73.70984 -118.47705l-129.30212 52.539307l0 0l-89.96094 -106.691895z" fill-rule="evenodd"/><path fill="#fec500" d="m1670.5992 994.764l-0.38659668 -8.838806l-3.0662842 -16.504395l-6.145874 -15.371216l-8.838745 -13.824768l-5.3725586 -5.7592163l-5.7592773 -5.7592163l-13.051514 -8.825439l-6.9190674 -3.4528198l-4.612671 -2.6929932l-4.599365 -1.5331421l0 29.569275l4.226074 2.3063354l5.3725586 5.7592163l3.0662842 3.8394775l3.4661865 4.2127686l5.7592773 9.985291l4.2126465 11.145142l1.9197998 11.905029l0.38659668 6.519104l-0.38659668 6.145813l-1.9197998 11.905029l-4.2126465 9.985291l-5.3859863 8.825439l-7.2923584 7.6922607l-8.452148 5.3725586l-9.598633 3.8394775l-10.358643 2.3063965l-5.3858643 0l-5.3725586 0l-10.745239 -2.3063965l-9.612061 -3.8394775l-8.438721 -5.3725586l-7.305664 -7.6922607l-5.3726807 -8.825439l-4.226074 -9.985291l-2.2929688 -11.905029l0 -6.145813l0 -6.519104l2.2929688 -11.905029l4.226074 -11.145142l5.7592773 -9.985291l3.4661865 -4.2127686l3.066162 -3.8394775l5.3726807 -5.7592163l4.226074 -2.3063354l0 -29.569275l-4.985962 1.5331421l-4.226074 2.6929932l-7.305664 3.4528198l-12.664917 8.825439l-5.7592773 5.7592163l-5.3725586 5.7592163l-8.838745 13.824768l-6.145874 15.371216l-3.0662842 16.504395l-0.38659668 8.838806l0.38659668 8.825439l3.4528809 16.5177l6.145874 15.357849l9.212036 13.824829l11.518433 11.518433l13.43811 9.212036l14.984619 6.145752l16.131104 3.4528809l8.438843 0.38659668l8.452148 -0.38659668l16.131104 -3.4528809l14.584717 -6.145752l13.43811 -9.212036l11.531738 -11.518433l8.825439 -13.824829l6.5324707 -15.357849l3.4528809 -16.5177l0.38659668 -8.825439z" fill-rule="evenodd"/><path stroke="#ffffff" stroke-width="1.4356955380577427" stroke-miterlimit="288.0404" stroke-linecap="butt" d="m1670.5992 994.764l-0.38659668 -8.838806l-3.0662842 -16.504395l-6.145874 -15.371216l-8.838745 -13.824768l-5.3725586 -5.7592163l-5.7592773 -5.7592163l-13.051514 -8.825439l-6.9190674 -3.4528198l-4.612671 -2.6929932l-4.599365 -1.5331421l0 29.569275l4.226074 2.3063354l5.3725586 5.7592163l3.0662842 3.8394775l3.4661865 4.2127686l5.7592773 9.985291l4.2126465 11.145142l1.9197998 11.905029l0.38659668 6.519104l-0.38659668 6.145813l-1.9197998 11.905029l-4.2126465 9.985291l-5.3859863 8.825439l-7.2923584 7.6922607l-8.452148 5.3725586l-9.598633 3.8394775l-10.358643 2.3063965l-5.3858643 0l-5.3725586 0l-10.745239 -2.3063965l-9.612061 -3.8394775l-8.438721 -5.3725586l-7.305664 -7.6922607l-5.3726807 -8.825439l-4.226074 -9.985291l-2.2929688 -11.905029l0 -6.145813l0 -6.519104l2.2929688 -11.905029l4.226074 -11.145142l5.7592773 -9.985291l3.4661865 -4.2127686l3.066162 -3.8394775l5.3726807 -5.7592163l4.226074 -2.3063354l0 -29.569275l-4.985962 1.5331421l-4.226074 2.6929932l-7.305664 3.4528198l-12.664917 8.825439l-5.7592773 5.7592163l-5.3725586 5.7592163l-8.838745 13.824768l-6.145874 15.371216l-3.0662842 16.504395l-0.38659668 8.838806l0.38659668 8.825439l3.4528809 16.5177l6.145874 15.357849l9.212036 13.824829l11.518433 11.518433l13.43811 9.212036l14.984619 6.145752l16.131104 3.4528809l8.438843 0.38659668l8.452148 -0.38659668l16.131104 -3.4528809l14.584717 -6.145752l13.43811 -9.212036l11.531738 -11.518433l8.825439 -13.824829l6.5324707 -15.357849l3.4528809 -16.5177l0.38659668 -8.825439z" fill-rule="evenodd"/></g></svg>