<?xml version="1.0" encoding="UTF-8" standalone="no"?>
<svg
   height="580"
   width="660"
   version="1.1"
   id="svg14"
   xmlns="http://www.w3.org/2000/svg"
   xmlns:svg="http://www.w3.org/2000/svg"
   xmlns:rdf="http://www.w3.org/1999/02/22-rdf-syntax-ns#"
   xmlns:cc="http://creativecommons.org/ns#">
  <defs
     id="defs1" />
  <path
     style="fill:#ffffff"
     d="M 0,0 H 660 V 580 H 0 Z"
     id="path1" />
  <g
     style="fill:#fec500;stroke-width:1.5"
     id="g4"
     transform="matrix(0.99999755,0,0,1.0000026,0.00244914,34.999623)">
    <path
       style="stroke:#fec500"
       d="m 325.78,185.52 c 0,0 -1.06,118.22 -1.06,126.82 0,8.6 0,20.42 -9.5,18.27 -9.48,-2.15 -21.09,-2.15 -37.97,-13.97 -16.87,-11.82 -16.87,-13.97 -16.87,-13.97 l 15.82,-5.38 c 0,0 -15.82,-3.22 -26.37,-10.74 -10.55,-7.53 -18.99,-13.98 -18.99,-13.98 0,0 -1.05,16.13 4.22,27.95 5.28,11.82 15.82,22.57 15.82,22.57 v -13.97 c 0,0 14.77,13.97 20.05,17.2 5.27,3.22 26.37,11.82 34.8,17.2 8.44,5.36 23.90429,20.41 23.90429,20.41 0,0 16.18571,-17.2 26.73571,-21.5 10.55,-4.3 24.26,-10.74 30.59,-15.04 6.33,-4.3 23.2,-20.42 23.2,-20.42 v 18.27 c 0,0 11.6,-13.97 14.77,-23.65 3.17,-9.67 4.22,-26.87 4.22,-26.87 0,0 -8.44,6.45 -15.82,9.68 -7.39,3.22 -28.48,11.82 -28.48,11.82 l 16.87,4.3 c 0,0 -27.42,21.5 -36.91,25.8 -17.28641,8.31118 -29.54,6.44 -29.54,-4.3 0,-10.74 1.06,-136.5 1.06,-136.5 z m 1.05,-39.77 h 7.38 v 32.24 h -7.38 z"
       id="path2" />
    <path
       style="stroke:#ffffff"
       d="m 274.1,178 c 0,0 29.53,-6.45 56.95,-6.45 27.42,0 55.9,6.44 55.9,6.44 v 11.83 c 0,0 -37.97,5.37 -60.12,5.37 -22.15,0 -52.73822,-6.45 -52.73822,-6.45 z"
       id="path3" />
    <path
       style="fill-rule:evenodd;stroke:#ffffff"
       d="m 347.91995,172.08 c 0,-4.9 -1.89,-9.3325 -4.945,-12.54 -1.5275,-1.60375 -3.34625,-2.90125 -5.36563,-3.79781 -1.00968,-0.44828 -0.83079,-0.61936 -1.92946,-0.85534 l 0.0323,6.14246 c 1.32423,0.65313 1.63221,1.30319 2.6341,2.47069 2.00374,2.335 3.24374,5.56 3.24374,9.12 0,7.12 -4.96,11.7321 -11.07,11.7321 -6.11,0 -11.07,-4.6121 -11.07,-11.7321 0,-3.56 1.24,-6.785 3.24375,-9.12 1.00188,-1.1675 1.30987,-1.81756 2.63409,-2.47069 l 0.0323,-6.14246 c -1.09867,0.23598 -0.91978,0.40706 -1.92946,0.85534 -2.01938,0.89656 -3.83813,2.19406 -5.36563,3.79781 -3.055,3.2075 -4.945,7.64 -4.945,12.54 0,9.8 8.0319,17.74 17.39995,17.74 9.36805,0 17.39995,-7.94 17.39995,-17.74 z"
       id="path4" />
  </g>
  <g
     transform="translate(330,290)"
     style="fill:#fec500"
     id="g14">
    <path
       id="use7"
       d="m 0,-245 23.5116,72.3608 -61.554,-44.7216 h 76.0848 l -61.554,44.7216 z"
       style="stroke-width:40" />
    <g
       id="b">
      <path
         id="use8"
         d="m 113.84844,-216.94131 -12.80623,74.99921 -33.722946,-68.20323 67.371166,35.35566 -75.286078,10.99647 z"
         style="stroke-width:40" />
      <path
         id="use9"
         d="m 201.61984,-139.1921 -46.19079,60.459003 1.83237,-76.062863 43.22613,62.613083 -71.77384,-25.247403 z"
         style="stroke-width:40" />
      <path
         id="use10"
         d="m 243.21526,-29.518425 -69.00092,32.0585987 36.97959,-66.4938097 9.16695,75.530549 -51.81205,-55.717392 z"
         style="stroke-width:40" />
      <path
         id="use11"
         d="M 229.07781,86.881273 153.08201,83.204487 216.72534,41.50985 189.74435,112.65001 169.75726,39.237255 Z"
         style="stroke-width:40" />
      <path
         id="use12"
         d="m 162.46998,183.38077 -65.583812,-38.57 75.729542,-7.34529 -56.94894,50.45509 16.41593,-74.29289 z"
         style="stroke-width:40" />
      <path
         id="use13"
         d="m 58.648306,237.87681 -40.149807,-64.62874 70.469858,28.68651 -73.872692,18.21324 49.05887,-58.1562 z"
         style="stroke-width:40" />
    </g>
    <g
       id="use14"
       transform="scale(-1,1)">
      <path
         id="path317"
         d="m 113.84844,-216.94131 -12.80623,74.99921 -33.722946,-68.20323 67.371166,35.35566 -75.286078,10.99647 z"
         style="stroke-width:40" />
      <path
         id="path319"
         d="m 201.61984,-139.1921 -46.19079,60.459003 1.83237,-76.062863 43.22613,62.613083 -71.77384,-25.247403 z"
         style="stroke-width:40" />
      <path
         id="path321"
         d="m 243.21526,-29.518425 -69.00092,32.0585987 36.97959,-66.4938097 9.16695,75.530549 -51.81205,-55.717392 z"
         style="stroke-width:40" />
      <path
         id="path323"
         d="M 229.07781,86.881273 153.08201,83.204487 216.72534,41.50985 189.74435,112.65001 169.75726,39.237255 Z"
         style="stroke-width:40" />
      <path
         id="path325"
         d="m 162.46998,183.38077 -65.583812,-38.57 75.729542,-7.34529 -56.94894,50.45509 16.41593,-74.29289 z"
         style="stroke-width:40" />
      <path
         id="path327"
         d="m 58.648306,237.87681 -40.149807,-64.62874 70.469858,28.68651 -73.872692,18.21324 49.05887,-58.1562 z"
         style="stroke-width:40" />
    </g>
  </g>
  <metadata
     id="metadata331">
    <rdf:RDF>
      <cc:License
         rdf:about="http://creativecommons.org/publicdomain/zero/1.0/">
        <cc:permits
           rdf:resource="http://creativecommons.org/ns#Reproduction" />
        <cc:permits
           rdf:resource="http://creativecommons.org/ns#Distribution" />
        <cc:permits
           rdf:resource="http://creativecommons.org/ns#DerivativeWorks" />
      </cc:License>
      <cc:Work
         rdf:about="">
        <cc:license
           rdf:resource="http://creativecommons.org/publicdomain/zero/1.0/" />
      </cc:Work>
    </rdf:RDF>
  </metadata>
</svg>
