<?xml version="1.0" encoding="UTF-8" standalone="no"?>
<svg
   height="580"
   width="660"
   version="1.1"
   id="svg14"
   sodipodi:docname="newri.svg"
   inkscape:version="1.4 (e7c3feb100, 2024-10-09)"
   xmlns:inkscape="http://www.inkscape.org/namespaces/inkscape"
   xmlns:sodipodi="http://sodipodi.sourceforge.net/DTD/sodipodi-0.dtd"
   xmlns:xlink="http://www.w3.org/1999/xlink"
   xmlns="http://www.w3.org/2000/svg"
   xmlns:svg="http://www.w3.org/2000/svg">
  <sodipodi:namedview
     id="namedview14"
     pagecolor="#ffffff"
     bordercolor="#000000"
     borderopacity="0.25"
     inkscape:showpageshadow="2"
     inkscape:pageopacity="0.0"
     inkscape:pagecheckerboard="0"
     inkscape:deskcolor="#d1d1d1"
     showguides="true"
     inkscape:zoom="1.3793103"
     inkscape:cx="329.875"
     inkscape:cy="290"
     inkscape:window-width="1920"
     inkscape:window-height="1008"
     inkscape:window-x="0"
     inkscape:window-y="0"
     inkscape:window-maximized="1"
     inkscape:current-layer="svg14" />
  <defs
     id="defs1">
    <path
       id="a"
       transform="matrix(40 0 0 40 0 -205)"
       d="M0-1 .58779.80902-.95106-.30902H.95106L-.58779.80902z" />
  </defs>
  <path
     style="fill:#fff"
     d="M0 0h660v580H0z"
     id="path1" />
  <g
     style="fill:#fec500;stroke-width:1.5"
     id="g4"
     transform="matrix(0.99999755,0,0,1.0000026,0.00244914,34.999623)">
    <path
       style="stroke:#fec500"
       d="m 325.78,185.52 c 0,0 -1.06,118.22 -1.06,126.82 0,8.6 0,20.42 -9.5,18.27 -9.48,-2.15 -21.09,-2.15 -37.97,-13.97 -16.87,-11.82 -16.87,-13.97 -16.87,-13.97 l 15.82,-5.38 c 0,0 -15.82,-3.22 -26.37,-10.74 -10.55,-7.53 -18.99,-13.98 -18.99,-13.98 0,0 -1.05,16.13 4.22,27.95 5.28,11.82 15.82,22.57 15.82,22.57 v -13.97 c 0,0 14.77,13.97 20.05,17.2 5.27,3.22 26.37,11.82 34.8,17.2 8.44,5.36 23.90429,20.41 23.90429,20.41 0,0 16.18571,-17.2 26.73571,-21.5 10.55,-4.3 24.26,-10.74 30.59,-15.04 6.33,-4.3 23.2,-20.42 23.2,-20.42 v 18.27 c 0,0 11.6,-13.97 14.77,-23.65 3.17,-9.67 4.22,-26.87 4.22,-26.87 0,0 -8.44,6.45 -15.82,9.68 -7.39,3.22 -28.48,11.82 -28.48,11.82 l 16.87,4.3 c 0,0 -27.42,21.5 -36.91,25.8 -17.28641,8.31118 -29.54,6.44 -29.54,-4.3 0,-10.74 1.06,-136.5 1.06,-136.5 z m 1.05,-39.77 h 7.38 v 32.24 h -7.38 z"
       id="path2" />
    <path
       style="stroke:#ffffff"
       d="m 274.1,178 c 0,0 29.53,-6.45 56.95,-6.45 27.42,0 55.9,6.44 55.9,6.44 v 11.83 c 0,0 -37.97,5.37 -60.12,5.37 -22.15,0 -52.73822,-6.45 -52.73822,-6.45 z"
       id="path3" />
    <path
       style="fill-rule:evenodd;stroke:#ffffff"
       d="m 347.91995,172.08 c 0,-4.9 -1.89,-9.3325 -4.945,-12.54 -1.5275,-1.60375 -3.34625,-2.90125 -5.36563,-3.79781 -1.00968,-0.44828 -0.83079,-0.61936 -1.92946,-0.85534 l 0.0323,6.14246 c 1.32423,0.65313 1.63221,1.30319 2.6341,2.47069 2.00374,2.335 3.24374,5.56 3.24374,9.12 0,7.12 -4.96,11.7321 -11.07,11.7321 -6.11,0 -11.07,-4.6121 -11.07,-11.7321 0,-3.56 1.24,-6.785 3.24375,-9.12 1.00188,-1.1675 1.30987,-1.81756 2.63409,-2.47069 l 0.0323,-6.14246 c -1.09867,0.23598 -0.91978,0.40706 -1.92946,0.85534 -2.01938,0.89656 -3.83813,2.19406 -5.36563,3.79781 -3.055,3.2075 -4.945,7.64 -4.945,12.54 0,9.8 8.0319,17.74 17.39995,17.74 9.36805,0 17.39995,-7.94 17.39995,-17.74 z"
       id="path4" />
  </g>
  <g
     style="fill:#003271;stroke:#fff;stroke-linejoin:round"
     id="g7" />
  <g
     transform="translate(330 290)"
     style="fill:#fec500"
     id="g14">
    <use
       xlink:href="#a"
       id="use7" />
    <g
       id="b">
      <use
         xlink:href="#a"
         transform="rotate(27.69)"
         id="use8" />
      <use
         xlink:href="#a"
         transform="rotate(55.38)"
         id="use9" />
      <use
         xlink:href="#a"
         transform="rotate(83.08)"
         id="use10" />
      <use
         xlink:href="#a"
         transform="rotate(110.77)"
         id="use11" />
      <use
         xlink:href="#a"
         transform="rotate(138.46)"
         id="use12" />
      <use
         xlink:href="#a"
         transform="rotate(166.15)"
         id="use13" />
    </g>
    <use
       xlink:href="#b"
       transform="scale(-1 1)"
       id="use14" />
  </g>
</svg>
