<svg version="1.1" viewBox="0.0 0.0 960.0 672.0" fill="none" stroke="none" stroke-linecap="square" stroke-miterlimit="10" xmlns:xlink="http://www.w3.org/1999/xlink" xmlns="http://www.w3.org/2000/svg"><clipPath id="p.0"><path d="m0 0l960.0 0l0 672.0l-960.0 0l0 -672.0z" clip-rule="nonzero"/></clipPath><g clip-path="url(#p.0)"><path fill="#000000" fill-opacity="0.0" d="m0 0l960.0 0l0 672.0l-960.0 0z" fill-rule="evenodd"/><path fill="#0000ff" d="m-0.0026666666 -0.011666667l960.0 0l0 672.0l-960.0 0z" fill-rule="evenodd"/><path fill="#ff0000" d="m292.77167 672.0l253.69067 -672.0l120.76599 0l-253.69064 672.0z" fill-rule="evenodd"/><path fill="#ff0000" d="m0 281.38834l960.0 0l0 109.19687l-960.0 0z" fill-rule="evenodd"/><path fill="#ffffff" d="m423.63806 324.12585l43.057007 2.746582E-4l13.305084 -38.425354l13.305084 38.425354l43.057007 -2.746582E-4l-34.834015 23.747925l13.305634 38.42517l-34.83371 -23.748322l-34.83368 23.748322l13.305634 -38.42517z" fill-rule="evenodd"/><path fill="#ffffff" d="m615.63806 324.11273l43.057007 2.746582E-4l13.305115 -38.425354l13.305054 38.425354l43.057007 -2.746582E-4l-34.834045 23.747925l13.305664 38.42517l-34.83368 -23.748322l-34.83374 23.748322l13.305664 -38.42517z" fill-rule="evenodd"/><path fill="#ffffff" d="m807.63806 324.11273l43.057007 2.746582E-4l13.305115 -38.425354l13.305054 38.425354l43.057007 -2.746582E-4l-34.834045 23.747925l13.305664 38.42517l-34.83368 -23.748322l-34.83374 23.748322l13.305664 -38.42517z" fill-rule="evenodd"/><path fill="#ffffff" d="m231.63808 324.12585l43.05699 2.746582E-4l13.305084 -38.425354l13.305084 38.425354l43.057007 -2.746582E-4l-34.834015 23.747925l13.305603 38.42517l-34.83368 -23.748322l-34.83368 23.748322l13.305634 -38.42517z" fill-rule="evenodd"/><path fill="#ffffff" d="m39.638073 324.11273l43.05701 2.746582E-4l13.305077 -38.425354l13.305069 38.425354l43.057014 -2.746582E-4l-34.834023 23.747925l13.305626 38.42517l-34.833687 -23.748322l-34.833687 23.748322l13.305618 -38.42517z" fill-rule="evenodd"/></g></svg>